{"glyphs":{"0":{"ha":571,"x_min":35,"x_max":536,"o":"m 457 579 q 536 319 536 472 q 467 67 536 149 q 290 -14 399 -14 q 112 69 189 -14 q 35 315 35 151 q 123 580 35 478 q 308 682 211 682 q 376 618 376 682 q 393 621 382 621 q 457 579 425 621 m 296 99 q 391 156 358 99 q 424 301 424 213 q 367 493 424 383 q 358 507 365 496 q 344 531 350 518 q 339 554 339 543 l 339 561 q 325 558 331 558 q 315 560 322 558 q 303 563 307 563 q 206 499 258 563 q 153 324 153 436 q 192 160 153 222 q 296 99 231 99 z "},"1":{"ha":256,"x_min":14,"x_max":207,"o":"m 156 689 q 207 606 207 683 l 206 582 q 202 517 204 558 q 199 426 200 476 q 196 312 197 376 q 194 188 194 247 q 195 123 194 158 q 196 81 196 88 q 131 -10 196 -10 q 71 92 71 -10 q 81 540 71 381 q 14 597 14 540 q 40 644 14 631 l 64 661 q 103 681 83 674 q 144 689 122 689 l 156 689 z "},"2":{"ha":471,"x_min":21,"x_max":443,"o":"m 386 110 q 422 88 406 108 q 438 43 438 67 q 422 7 438 19 q 385 -6 406 -6 q 349 -1 371 -6 q 301 3 326 3 q 117 -10 208 3 q 110 -10 114 -10 q 104 -11 106 -11 q 51 10 74 -11 q 28 86 28 32 q 197 338 28 215 q 289 419 257 381 q 321 504 321 457 q 299 574 321 544 q 249 603 276 603 q 190 581 214 603 q 158 533 167 560 q 131 485 149 507 q 85 464 113 464 q 40 482 60 464 q 21 531 21 500 q 83 649 21 583 q 250 714 146 714 q 388 653 333 714 q 443 507 443 593 q 404 385 443 443 q 317 292 365 328 q 222 206 269 256 q 160 111 174 157 q 260 114 226 114 q 386 110 339 114 z "},"3":{"ha":461,"x_min":21,"x_max":433,"o":"m 313 385 q 397 326 361 371 q 433 211 433 282 q 376 38 433 106 q 224 -29 318 -29 q 77 22 133 -29 q 21 136 21 72 q 39 180 21 167 q 75 193 57 193 q 128 156 117 193 q 159 108 136 129 q 219 86 182 86 q 294 119 271 86 q 318 199 318 151 q 297 276 318 240 q 229 314 275 311 q 156 281 175 281 q 120 297 136 281 q 104 339 104 313 q 153 399 104 381 q 304 567 268 440 q 217 569 254 569 q 133 565 171 569 q 83 504 131 504 q 26 568 26 504 q 28 606 26 592 q 38 642 31 621 q 63 673 44 663 q 110 683 81 683 l 147 683 l 246 683 q 299 685 265 683 q 347 686 333 686 q 421 586 421 686 q 385 483 421 546 q 313 385 350 421 z "},"4":{"ha":483,"x_min":0,"x_max":463,"o":"m 417 304 q 463 250 463 301 q 411 194 463 194 l 399 194 q 399 119 397 167 q 401 58 401 72 q 384 1 401 22 q 342 -19 367 -19 q 300 -3 317 -19 q 283 44 283 13 q 284 95 283 56 q 285 157 285 135 l 285 197 q 206 199 258 199 q 126 196 171 199 q 72 193 81 193 q 21 210 42 193 q 0 261 0 228 q 26 331 0 290 q 139 499 50 369 q 249 654 228 628 q 307 681 271 681 q 374 658 342 681 q 407 600 407 636 q 406 552 407 594 q 402 438 404 510 q 399 304 400 367 l 417 304 m 147 306 q 242 299 186 299 q 289 300 272 299 l 297 521 q 258 467 289 510 l 200 379 l 147 306 z "},"5":{"ha":490,"x_min":14,"x_max":456,"o":"m 454 200 q 401 41 456 114 q 239 -32 346 -32 q 134 -9 181 -32 q 63 45 88 14 q 26 102 39 76 q 14 140 14 128 q 33 185 14 168 q 79 201 53 201 q 133 157 121 201 q 228 76 157 76 q 308 113 272 76 q 344 208 344 150 q 315 279 344 250 q 243 308 285 308 q 165 274 206 308 q 149 268 157 268 q 72 298 114 268 q 31 364 31 328 l 31 392 q 30 486 31 414 q 29 590 29 558 q 51 663 29 632 q 115 694 74 694 q 202 691 139 694 q 296 688 265 688 q 333 688 310 688 q 365 689 357 689 q 433 635 433 689 q 416 594 433 614 q 360 575 399 575 q 309 578 347 575 q 249 581 271 581 q 157 575 192 581 q 139 456 139 553 q 151 381 139 381 q 195 392 163 381 q 258 403 228 403 q 401 346 349 403 q 454 200 453 289 z "},"6":{"ha":515,"x_min":35,"x_max":488,"o":"m 350 682 q 383 686 369 686 q 433 629 433 686 q 389 571 433 592 q 226 449 299 528 q 153 268 153 371 q 190 136 153 178 q 286 94 228 94 q 360 127 338 94 q 383 200 383 160 q 358 265 383 238 q 290 293 332 293 q 240 285 267 293 q 233 283 238 283 q 209 300 219 283 q 199 335 199 317 q 222 383 199 363 q 294 404 246 404 q 429 341 371 404 q 488 199 488 278 q 433 40 488 104 q 278 -24 378 -24 q 101 54 168 -24 q 35 261 35 132 q 140 531 35 410 q 350 682 244 653 z "},"7":{"ha":438,"x_min":0,"x_max":424,"o":"m 350 672 q 406 653 388 669 q 424 590 424 638 q 421 554 424 582 q 365 402 414 496 q 267 203 315 308 q 211 10 219 99 q 192 -19 210 -8 q 154 -29 175 -29 q 115 -17 131 -29 q 101 21 100 -4 q 152 223 104 119 q 251 416 200 326 q 310 561 303 506 q 264 563 292 563 q 117 556 189 563 q 101 513 114 528 q 54 497 89 497 q 0 576 0 497 q 1 609 0 594 q 6 634 1 624 q 14 651 11 644 q 27 663 17 658 q 42 671 38 668 q 64 674 47 674 q 88 675 81 675 l 118 675 l 153 675 q 350 672 278 675 z "},"8":{"ha":493,"x_min":35,"x_max":457,"o":"m 425 226 q 457 142 457 188 q 388 13 457 65 q 240 -40 319 -40 q 94 12 150 -40 q 39 132 39 64 q 43 169 39 153 q 60 206 47 186 q 81 238 72 226 l 115 278 l 153 322 l 131 343 q 104 370 113 361 q 80 399 96 379 q 56 435 64 418 q 42 474 49 451 q 35 521 35 497 q 88 630 35 583 q 203 676 142 676 q 326 642 257 676 q 358 585 358 624 q 401 611 371 611 q 437 594 424 611 q 450 560 450 578 q 446 538 450 550 q 432 510 442 526 l 414 481 q 389 446 406 467 l 364 414 l 336 378 q 310 343 317 353 q 425 226 394 263 m 168 500 q 229 417 168 457 q 328 542 301 504 q 301 533 315 533 q 258 544 290 533 q 217 556 226 556 q 183 539 197 556 q 168 500 168 522 m 240 71 q 303 92 279 71 q 328 135 328 113 q 323 155 328 144 q 313 174 318 165 q 294 194 307 182 l 275 213 l 253 232 q 232 249 238 244 l 203 214 q 181 188 186 194 q 168 170 175 181 q 160 151 161 160 q 158 132 158 143 q 181 90 158 108 q 240 71 203 71 z "},"9":{"ha":535,"x_min":28,"x_max":493,"o":"m 210 -39 q 171 -46 185 -46 q 133 -28 149 -46 q 117 17 117 -10 q 160 68 117 43 q 308 194 242 114 q 375 369 375 274 q 335 508 375 464 q 238 551 294 551 q 158 520 185 551 q 132 450 132 489 q 157 382 132 411 q 225 353 182 353 q 267 360 247 353 q 290 368 288 368 q 317 352 306 368 q 329 314 329 336 q 303 265 329 286 q 226 243 278 243 q 87 307 146 243 q 28 453 28 371 q 83 608 28 544 q 243 671 139 671 q 421 590 349 671 q 493 374 493 508 q 400 113 493 233 q 210 -39 307 -8 z "}," ":{"ha":278,"x_min":0,"x_max":0,"o":""},"!":{"ha":219,"x_min":35,"x_max":185,"o":"m 183 88 q 185 74 185 83 q 159 19 185 42 q 99 -3 133 -3 q 53 15 72 -3 q 35 61 35 32 q 58 111 35 93 q 118 129 82 129 q 183 88 172 129 m 56 253 q 55 353 56 282 q 53 486 54 425 l 53 546 l 53 567 q 53 616 53 600 q 59 653 54 632 q 76 682 64 674 q 108 690 88 690 q 174 618 174 690 q 171 531 174 593 q 168 442 168 469 q 169 390 168 425 q 169 333 169 356 q 159 212 169 243 q 113 181 149 181 q 56 253 56 181 z "},"\"":{"ha":271,"x_min":28,"x_max":243,"o":"m 118 615 q 99 454 118 581 q 63 413 92 413 q 28 451 28 413 q 35 634 28 592 q 76 676 42 676 q 118 615 118 676 m 243 607 q 224 446 243 572 q 188 404 217 404 q 153 443 153 404 q 160 626 153 585 q 201 668 167 668 q 243 607 243 668 z "},"#":{"ha":575,"x_min":21,"x_max":554,"o":"m 56 492 q 71 524 56 514 q 103 535 86 535 q 149 532 111 535 q 203 529 188 529 q 231 657 218 596 l 232 664 q 234 675 233 672 q 238 685 235 678 q 242 697 240 693 l 247 707 q 256 715 251 713 q 265 720 260 718 q 276 722 269 722 q 318 688 318 722 q 314 671 318 683 l 300 618 q 278 525 290 578 l 364 521 q 379 587 372 554 q 390 638 386 619 q 397 673 393 656 q 404 698 401 690 q 412 712 407 706 q 423 719 417 718 q 440 721 429 721 q 476 689 476 721 q 474 667 476 675 l 440 518 l 522 515 q 544 507 533 515 q 554 479 554 499 q 510 440 554 440 q 425 444 503 440 q 403 350 411 381 l 482 349 q 508 339 497 349 q 518 315 518 329 q 503 283 518 294 q 475 271 489 271 q 457 272 468 271 l 426 274 l 388 276 l 353 126 q 311 82 343 82 q 269 117 269 82 q 274 136 269 124 l 308 279 l 225 283 l 190 132 q 177 92 183 101 q 154 83 171 83 q 110 114 110 83 q 142 269 110 129 l 146 286 q 116 287 132 286 q 91 288 100 288 q 71 288 82 288 q 54 290 60 289 q 42 292 49 290 q 32 297 35 294 q 26 303 29 299 q 22 313 22 307 q 21 326 21 318 q 35 361 21 354 q 75 367 49 368 l 165 361 l 186 454 l 101 457 q 56 492 56 460 m 261 453 l 253 415 q 240 356 242 368 l 326 350 l 349 447 l 261 453 z "},"$":{"ha":475,"x_min":11,"x_max":474,"o":"m 438 689 q 463 680 451 689 q 474 657 474 671 q 465 635 474 646 q 445 613 457 624 q 432 600 433 603 q 416 573 428 594 q 394 540 404 551 q 369 529 383 529 q 342 540 353 529 q 331 563 331 551 q 342 597 331 579 q 279 619 318 614 q 272 456 274 519 q 395 417 343 456 q 447 321 447 379 q 397 221 447 263 q 272 172 347 179 q 272 128 272 140 q 263 105 271 117 q 236 93 254 93 q 193 175 193 93 q 83 219 126 185 q 43 197 61 197 q 20 208 29 197 q 11 231 11 219 q 35 276 11 249 q 48 308 42 285 q 64 344 54 331 q 96 357 74 357 q 132 319 132 357 q 129 293 132 313 q 193 260 160 268 q 196 388 193 299 q 72 428 119 393 q 25 522 25 464 q 80 640 25 592 q 208 697 135 689 q 210 744 208 731 q 221 770 211 758 q 251 782 231 782 q 292 739 292 782 q 289 716 292 732 q 286 694 286 700 q 385 660 346 685 q 438 689 411 689 m 351 326 q 271 381 351 378 l 271 253 q 329 279 307 257 q 351 326 351 301 m 125 531 q 199 464 126 476 q 202 544 200 493 q 204 613 204 594 q 125 531 125 593 z "},"%":{"ha":531,"x_min":21,"x_max":510,"o":"m 279 114 q 288 181 279 149 q 327 243 297 214 q 403 272 357 272 q 477 239 444 272 q 510 140 510 206 q 473 43 510 90 q 379 -4 436 -4 q 308 23 338 -4 q 279 114 279 50 m 210 110 l 169 18 q 131 -4 160 -4 q 100 28 100 -4 q 110 71 100 47 q 201 290 119 99 l 322 574 q 286 567 308 567 q 254 575 264 568 q 222 471 254 525 q 119 417 189 417 q 51 444 81 417 q 21 524 21 472 q 61 639 21 585 q 163 693 101 693 q 243 644 221 693 q 310 633 271 633 q 358 647 349 633 q 414 685 379 685 q 446 656 446 685 q 432 603 446 632 q 210 110 279 274 m 432 154 q 403 192 432 192 q 367 167 381 192 q 356 122 353 143 q 388 88 358 88 q 420 110 408 88 q 432 154 432 132 m 178 564 q 151 601 178 601 q 114 578 131 601 q 97 532 97 554 q 105 508 97 518 q 126 497 113 497 q 161 519 147 497 q 178 564 175 542 z "},"&":{"ha":556,"x_min":14,"x_max":556,"o":"m 469 261 q 499 249 486 261 q 513 219 513 236 q 450 121 513 189 q 499 72 471 92 q 541 42 526 53 q 556 14 556 31 q 541 -17 556 -3 q 507 -31 526 -31 q 379 58 461 -31 q 287 6 343 28 q 185 -15 231 -15 q 59 26 104 -15 q 14 132 14 68 q 163 378 14 253 q 115 456 128 429 q 103 513 103 483 q 142 607 103 568 q 243 646 181 646 q 334 610 299 646 q 369 522 369 575 q 356 466 369 494 q 331 422 343 438 l 288 369 q 399 201 340 283 q 421 229 410 213 q 442 253 432 246 q 469 261 451 261 m 203 507 q 228 451 203 485 q 268 514 268 488 q 242 543 268 543 q 215 533 226 543 q 203 507 203 522 m 125 149 q 144 101 125 118 q 196 83 164 83 q 329 133 261 83 q 219 292 278 192 q 152 226 179 265 q 125 149 125 186 z "},"'":{"ha":146,"x_min":29,"x_max":121,"o":"m 121 614 q 100 451 121 582 q 65 413 93 413 q 32 449 33 413 q 37 630 29 585 q 79 675 44 675 q 121 614 121 675 z "},"(":{"ha":267,"x_min":50,"x_max":233,"o":"m 132 714 q 193 758 153 758 q 222 746 211 758 q 233 717 233 733 q 225 681 233 701 q 178 531 201 628 q 156 328 156 435 q 218 -3 156 108 q 231 -44 231 -24 q 217 -74 231 -62 q 183 -86 204 -86 q 111 -28 136 -86 q 50 331 50 125 q 132 714 50 547 z "},")":{"ha":267,"x_min":33,"x_max":217,"o":"m 135 714 q 217 331 217 547 q 156 -28 217 125 q 83 -86 131 -86 q 49 -74 63 -86 q 36 -44 36 -62 q 49 -3 36 -24 q 111 328 111 108 q 88 531 111 435 q 42 681 65 628 q 33 717 33 701 q 44 746 33 733 q 74 758 56 758 q 135 714 114 758 z "},"*":{"ha":260,"x_min":7,"x_max":253,"o":"m 221 619 q 253 599 253 619 q 214 575 253 575 q 194 576 207 575 q 175 576 181 576 q 194 561 178 574 q 217 540 210 549 q 224 522 224 531 q 217 506 224 514 q 200 499 210 499 q 185 504 193 499 q 172 515 176 510 l 160 532 q 150 544 151 543 q 151 530 150 540 q 151 514 151 519 q 131 478 151 478 q 108 508 108 478 q 110 529 108 517 q 111 544 111 542 q 95 529 106 540 q 76 510 85 518 q 58 503 67 503 q 42 510 49 503 q 35 528 35 518 q 42 545 35 536 q 63 564 50 554 q 79 578 75 574 q 63 577 75 578 q 46 576 51 576 q 7 596 7 576 q 39 618 7 618 q 60 617 46 618 q 79 615 75 615 q 59 633 72 622 q 40 651 46 643 q 33 668 33 660 q 41 685 33 676 q 58 693 49 693 q 72 689 67 693 q 90 669 78 685 q 110 646 101 654 q 108 665 110 650 q 107 686 107 679 q 132 722 107 722 q 153 692 153 722 q 151 668 153 685 q 150 646 150 651 q 168 666 157 653 q 188 686 179 679 q 204 693 196 693 q 222 685 214 693 q 229 667 229 676 q 223 651 229 658 q 203 633 217 643 q 183 615 190 622 q 201 617 189 615 q 221 619 214 619 z "},"+":{"ha":471,"x_min":35,"x_max":436,"o":"m 397 363 q 424 349 411 361 q 435 311 436 336 q 415 276 433 288 q 379 264 397 264 l 285 264 q 285 239 285 256 q 288 214 286 222 q 286 151 288 158 q 231 108 275 106 q 179 171 179 111 q 180 208 179 176 q 181 264 181 240 q 89 265 96 264 q 35 315 35 265 q 51 353 35 339 q 83 367 67 367 l 100 367 q 138 367 115 367 q 181 368 160 368 q 179 453 181 429 q 233 507 179 507 q 288 432 286 507 q 286 368 288 392 q 397 363 371 365 z "},",":{"ha":222,"x_min":35,"x_max":188,"o":"m 113 128 q 167 106 147 128 q 188 43 188 83 q 164 -44 188 -4 q 114 -85 140 -85 q 92 -78 101 -85 q 83 -58 83 -71 q 92 -33 83 -50 q 103 -6 101 -17 l 92 -6 q 35 50 35 -6 q 59 107 35 86 q 113 128 83 128 z "},"-":{"ha":347,"x_min":21,"x_max":326,"o":"m 313 214 q 326 181 326 200 q 310 138 326 151 q 272 125 294 125 q 217 124 258 125 q 156 124 176 124 q 122 123 143 124 q 92 122 101 122 q 67 123 82 122 q 47 127 53 124 q 33 135 40 131 q 24 149 26 140 q 21 171 21 158 q 68 219 21 217 q 140 223 72 219 q 238 226 208 226 q 313 214 299 226 z "},".":{"ha":206,"x_min":35,"x_max":171,"o":"m 107 131 q 153 114 135 131 q 171 67 171 97 q 151 15 171 33 q 104 -3 132 -3 q 56 13 76 -3 q 35 58 35 29 q 55 110 35 90 q 107 131 75 131 z "},"/":{"ha":347,"x_min":3,"x_max":344,"o":"m 315 757 q 344 718 344 747 q 342 696 344 713 q 249 424 314 625 l 104 -36 q 76 -89 89 -81 q 54 -94 68 -94 q 15 -81 28 -94 q 3 -53 3 -68 q 6 -39 3 -47 q 125 336 15 -6 l 243 704 q 263 742 249 725 q 299 760 278 760 q 315 757 301 760 z "},":":{"ha":219,"x_min":35,"x_max":185,"o":"m 107 131 q 153 114 135 131 q 171 67 171 97 q 151 15 171 33 q 104 -3 132 -3 q 56 13 76 -3 q 35 58 35 29 q 55 110 35 90 q 107 131 75 131 m 113 344 q 67 361 85 344 q 49 408 49 378 q 68 460 49 442 q 115 478 88 478 q 164 462 143 478 q 185 417 185 446 q 165 365 185 385 q 113 344 144 344 z "},";":{"ha":222,"x_min":35,"x_max":188,"o":"m 113 128 q 167 106 147 128 q 188 43 188 83 q 164 -44 188 -4 q 114 -85 140 -85 q 92 -78 101 -85 q 83 -58 83 -71 q 92 -33 83 -50 q 103 -6 101 -17 l 92 -6 q 35 50 35 -6 q 59 107 35 86 q 113 128 83 128 m 113 344 q 67 361 85 344 q 49 408 49 378 q 68 460 49 442 q 115 478 88 478 q 164 462 143 478 q 185 417 185 446 q 165 365 185 385 q 113 344 144 344 z "},"<":{"ha":274,"x_min":35,"x_max":239,"o":"m 175 489 q 207 503 189 503 q 230 492 221 503 q 239 467 239 482 q 232 442 239 456 q 207 408 225 429 l 178 376 q 139 335 168 364 q 135 325 135 331 q 140 315 135 321 q 183 276 153 303 q 226 234 214 250 q 239 204 239 218 q 226 174 239 186 q 197 163 214 163 q 158 181 178 163 q 56 283 86 249 q 35 324 35 307 q 58 368 35 339 q 175 489 96 413 z "},"=":{"ha":471,"x_min":35,"x_max":436,"o":"m 76 279 q 397 274 342 279 q 423 260 411 272 q 435 226 435 249 q 369 176 435 176 q 253 177 353 176 q 89 178 153 178 q 35 228 35 178 q 47 265 35 251 q 76 279 60 279 m 76 454 q 397 449 342 454 q 424 435 411 447 q 435 399 436 422 q 379 353 432 357 l 89 353 q 35 403 35 353 q 47 440 35 426 q 76 454 60 454 z "},">":{"ha":274,"x_min":35,"x_max":239,"o":"m 99 176 q 67 163 85 163 q 44 173 53 163 q 35 199 35 183 q 42 223 35 210 q 67 257 49 236 l 94 289 q 135 331 106 301 q 139 340 139 335 q 133 350 139 344 q 90 389 121 363 q 47 431 60 415 q 35 461 35 447 q 47 491 35 479 q 76 503 60 503 q 115 485 96 503 q 218 382 188 417 q 239 342 239 358 q 215 297 239 326 q 99 176 178 253 z "},"?":{"ha":397,"x_min":0,"x_max":397,"o":"m 211 686 q 301 667 263 686 q 360 617 340 647 q 388 557 379 586 q 397 500 397 528 q 349 382 397 439 q 218 300 300 325 q 223 279 219 294 q 226 257 226 264 q 181 221 226 221 q 124 240 149 221 q 100 293 100 260 q 120 351 100 329 q 169 383 140 374 l 226 403 q 276 434 256 413 q 296 492 296 456 q 267 551 296 531 q 197 571 238 571 q 118 543 142 571 q 121 518 121 524 q 107 472 121 490 q 68 453 93 453 q 25 464 42 453 q 4 486 8 475 q 0 508 0 497 q 55 627 0 568 q 211 686 110 686 m 183 140 q 242 122 217 140 q 268 71 268 104 q 242 19 268 39 q 181 0 215 0 q 116 17 143 0 q 89 67 89 35 q 118 123 89 106 q 183 140 147 140 z "},"@":{"ha":792,"x_min":36,"x_max":742,"o":"m 418 672 q 649 581 556 672 q 742 364 742 489 q 693 194 742 257 q 582 132 644 132 q 457 208 486 132 q 340 139 408 139 q 244 180 283 139 q 206 285 206 221 q 263 433 206 368 q 403 500 319 499 q 454 488 442 500 q 492 503 469 503 q 525 491 511 503 q 539 461 539 479 q 532 403 539 450 q 521 303 521 314 q 578 226 521 226 q 628 263 608 226 q 649 354 649 299 q 586 522 649 453 q 425 590 524 590 q 211 508 299 590 q 124 310 124 425 q 190 143 124 208 q 354 78 257 78 q 375 79 361 78 q 397 81 389 81 q 433 40 433 81 q 367 -14 433 -14 q 267 4 321 -14 q 160 57 214 22 q 72 156 107 92 q 36 301 36 221 q 149 565 36 458 q 418 672 263 672 m 426 308 q 435 396 425 322 q 346 376 385 404 q 307 288 307 347 q 317 258 307 269 q 347 247 328 247 q 395 263 372 247 q 426 308 418 279 z "},"A":{"ha":576,"x_min":14,"x_max":601,"o":"m 586 263 q 601 235 601 253 q 582 188 601 211 q 542 165 563 165 q 518 166 531 165 q 501 167 506 167 q 492 8 501 32 q 451 -14 482 -14 q 388 42 388 -14 q 390 167 388 97 q 153 150 231 164 l 149 115 q 142 74 146 92 q 133 38 139 57 q 117 10 128 19 q 90 0 106 0 q 34 17 47 0 q 21 68 21 35 q 33 144 21 94 q 14 197 14 161 q 56 242 14 225 q 282 625 138 542 q 353 646 319 646 q 465 569 429 646 q 501 276 499 501 q 586 263 560 276 m 175 257 q 392 274 217 261 q 379 467 389 407 q 340 528 369 528 q 315 521 329 528 q 175 257 225 475 z "},"B":{"ha":556,"x_min":-28,"x_max":514,"o":"m 399 292 q 510 153 510 257 q 431 21 510 69 q 236 -28 351 -28 q 62 -12 110 -28 q 14 42 14 4 q 56 97 14 97 q 90 94 68 97 q 114 90 111 90 q 101 340 101 231 q 114 443 101 415 q 168 471 126 471 q 207 459 192 471 q 222 428 222 447 q 216 390 222 425 q 208 328 210 356 q 339 355 279 322 q 399 449 399 388 q 356 522 399 499 q 253 544 314 544 q 68 468 158 544 q 24 447 43 447 q -11 465 6 447 q -28 510 -28 482 q 31 583 -28 549 q 258 646 135 646 q 443 592 372 646 q 514 446 514 538 q 399 292 514 343 m 210 79 q 327 88 265 68 q 389 164 389 108 q 330 230 389 213 q 206 242 271 247 q 210 79 203 153 z "},"C":{"ha":653,"x_min":42,"x_max":611,"o":"m 507 188 q 567 215 535 215 q 599 203 586 215 q 611 174 611 190 q 603 144 611 165 q 575 94 596 124 q 524 37 554 64 q 442 -9 493 10 q 328 -28 390 -28 q 116 55 190 -28 q 42 271 42 138 q 139 532 42 418 q 397 646 236 646 q 582 456 582 646 q 563 404 582 425 q 508 383 544 383 q 447 431 447 383 q 452 461 447 442 q 457 488 457 481 q 439 521 457 507 q 386 535 421 535 q 208 424 274 535 q 172 214 150 322 q 289 82 193 104 q 333 76 310 76 q 401 90 371 76 q 447 117 432 103 q 481 156 461 132 q 507 188 500 181 z "},"D":{"ha":674,"x_min":-28,"x_max":618,"o":"m 21 486 q -14 506 0 486 q -28 551 -28 525 q 48 618 -28 590 q 229 646 124 646 q 506 569 394 646 q 618 340 618 493 q 582 171 618 244 q 488 56 546 97 q 364 -7 429 14 q 232 -28 299 -28 q 69 69 69 -28 q 71 130 69 82 q 72 208 72 178 q 71 310 72 238 q 69 403 69 383 q 81 460 69 440 q 128 479 93 479 q 177 463 156 479 q 199 417 199 447 q 195 378 199 411 q 188 288 192 346 q 183 167 183 231 q 197 102 183 121 q 243 83 210 83 q 422 150 333 83 q 510 335 510 217 q 438 482 510 422 q 250 542 367 542 q 144 528 190 542 q 68 500 97 514 q 21 486 39 486 z "},"E":{"ha":479,"x_min":35,"x_max":514,"o":"m 178 447 q 210 385 178 406 q 285 364 243 364 q 326 322 326 364 q 312 277 326 300 q 271 254 297 254 q 224 263 249 254 q 173 229 190 257 q 156 167 156 201 q 276 72 156 72 q 355 84 322 72 q 442 132 388 96 q 468 142 456 142 q 501 126 489 142 q 514 93 514 111 q 490 44 514 65 q 268 -28 417 -28 q 99 19 163 -28 q 35 160 35 65 q 60 256 35 213 q 133 318 86 299 q 64 460 64 361 q 124 590 64 535 q 282 646 185 646 q 414 609 363 646 q 465 503 465 572 q 444 432 465 460 q 385 404 422 404 q 343 417 361 404 q 325 451 325 431 q 340 487 325 469 q 354 507 354 504 q 333 531 354 521 q 279 542 311 542 q 207 517 236 542 q 178 447 178 493 z "},"F":{"ha":514,"x_min":-42,"x_max":542,"o":"m 465 257 q 410 249 451 253 q 338 40 394 107 q 175 -28 282 -28 q 58 4 101 -28 q 14 83 14 36 q 31 128 14 111 q 72 146 49 146 q 117 117 97 146 q 181 83 139 83 q 301 243 285 83 q 139 256 196 246 q 66 281 82 267 q 50 318 50 294 q 60 351 50 338 q 92 365 71 365 q 118 361 94 365 q 192 353 142 357 q 310 347 243 349 q 314 492 317 421 q 153 524 232 524 q 73 503 107 524 q 17 482 39 482 q -25 499 -8 482 q -42 542 -42 515 q 3 615 -42 585 q 118 646 47 646 q 340 611 233 646 q 433 663 374 663 q 516 635 490 663 q 542 574 542 608 q 511 503 542 532 q 432 475 481 474 q 417 349 421 435 q 465 356 439 351 q 500 361 492 361 q 540 317 540 361 q 465 257 540 272 z "},"G":{"ha":667,"x_min":42,"x_max":688,"o":"m 618 319 q 669 311 651 319 q 688 272 688 303 q 600 221 688 221 q 526 42 604 113 q 326 -28 447 -28 q 126 53 210 -28 q 42 289 42 133 q 60 409 42 349 q 113 524 78 469 q 210 612 149 578 q 350 646 272 646 q 500 599 431 646 q 569 500 569 551 q 553 463 569 479 q 514 447 536 447 q 470 461 489 447 q 442 492 451 475 q 411 524 432 510 q 361 538 390 538 q 225 468 283 538 q 167 285 167 399 q 343 78 167 78 q 449 110 411 78 q 486 178 486 143 q 457 219 486 219 q 300 289 300 219 q 361 343 300 343 q 414 335 383 343 q 544 317 481 317 q 580 318 553 317 q 618 319 607 319 z "},"H":{"ha":643,"x_min":0,"x_max":643,"o":"m 607 357 q 633 344 624 357 q 643 314 643 332 q 503 229 643 256 q 506 126 503 196 q 510 33 510 56 q 456 -24 510 -24 q 397 19 397 -24 q 396 215 397 146 q 293 211 346 211 q 211 214 258 211 q 213 116 211 189 q 214 33 214 43 q 203 -12 214 3 q 164 -28 193 -28 q 96 47 96 -28 q 97 118 96 58 q 99 225 99 178 q 20 251 40 236 q 0 290 0 267 q 12 326 0 310 q 53 342 24 342 q 99 336 78 342 q 93 513 99 422 q 88 613 88 603 q 140 667 88 667 q 200 638 188 667 q 213 519 213 610 q 212 406 213 471 q 211 325 211 340 q 289 322 228 322 q 393 326 343 322 q 390 526 390 438 q 447 618 390 618 q 515 549 515 618 q 510 467 515 543 q 504 338 504 390 q 557 348 521 339 q 607 357 593 357 z "},"I":{"ha":368,"x_min":7,"x_max":310,"o":"m 79 244 q 26 289 46 244 q 7 394 7 333 q 50 568 7 490 q 171 646 93 646 q 276 560 243 646 q 310 342 310 475 q 271 38 310 181 q 260 6 265 18 q 244 -17 256 -6 q 214 -28 232 -28 q 166 -10 186 -28 q 146 28 146 7 q 151 58 146 42 q 197 361 197 196 q 156 524 197 524 q 129 489 140 524 q 118 411 118 454 q 136 311 118 347 q 140 294 140 303 q 121 260 140 275 q 79 244 101 244 z "},"J":{"ha":503,"x_min":17,"x_max":579,"o":"m 535 136 q 567 124 556 136 q 579 94 579 111 q 563 52 579 75 q 521 14 546 29 q 430 -23 488 -6 q 367 -42 372 -40 q 275 -219 333 -146 q 139 -292 217 -292 q 66 -262 94 -292 q 38 -187 38 -233 q 278 35 38 -46 q 321 308 321 175 q 298 474 321 410 q 233 539 275 539 q 163 492 189 539 q 136 381 136 446 q 222 197 136 253 q 251 150 251 176 q 232 113 251 128 q 192 97 213 97 q 79 169 142 97 q 17 365 17 242 q 82 564 17 481 q 228 647 147 647 q 376 566 319 647 q 433 343 433 485 q 399 71 433 225 q 466 97 440 81 q 505 125 492 114 q 535 136 518 136 m 157 -178 q 236 -86 200 -178 q 169 -128 192 -106 q 147 -168 147 -151 q 157 -178 147 -178 z "},"K":{"ha":569,"x_min":-62,"x_max":611,"o":"m 104 382 q 76 528 104 528 q 42 508 69 528 q -10 489 15 489 q -49 508 -36 489 q -62 553 -62 528 q -31 594 -62 578 q -3 608 -22 599 l 33 624 q 106 642 69 642 q 197 563 183 642 q 204 494 203 526 q 203 413 206 461 q 200 361 200 365 q 371 540 267 446 q 507 635 475 635 q 547 620 532 635 q 563 583 563 606 q 535 528 563 556 q 435 454 533 526 q 281 319 338 382 q 357 336 314 336 q 451 268 429 336 q 472 201 460 243 q 491 141 485 158 q 509 99 497 124 q 535 63 521 75 q 569 42 549 50 q 607 19 603 28 q 611 0 611 13 q 594 -35 611 -21 q 549 -49 576 -49 q 446 -6 485 -49 q 382 139 407 36 q 349 224 365 204 q 292 243 333 243 q 208 208 243 243 q 199 153 199 199 q 200 90 199 133 q 201 42 201 46 q 132 -14 201 -14 q 83 28 83 -14 q 94 171 83 38 q 104 382 104 304 z "},"L":{"ha":472,"x_min":-49,"x_max":563,"o":"m 514 111 q 548 98 533 111 q 563 63 563 85 q 519 -7 563 21 q 410 -35 476 -35 q 329 -28 367 -35 q 271 -16 292 -22 q 204 7 250 -10 q 72 -76 165 -76 q -18 -48 13 -76 q -49 21 -49 -19 q -11 107 -49 71 q 88 143 26 143 q 115 142 107 143 q 92 265 115 179 q 69 403 69 351 q 135 590 69 521 q 297 660 200 660 q 412 617 365 660 q 458 501 458 574 q 413 376 458 429 q 299 322 368 322 q 267 336 281 322 q 253 382 253 350 q 282 418 253 408 q 347 496 347 440 q 285 546 347 546 q 213 509 242 546 q 183 406 183 472 q 201 257 183 349 q 219 124 218 165 l 219 111 q 403 65 324 65 q 464 88 436 65 q 514 111 492 111 m 72 13 q 114 53 106 13 q 71 56 93 63 q 49 32 49 49 q 72 13 49 13 z "},"M":{"ha":965,"x_min":-62,"x_max":965,"o":"m 97 465 q 90 518 94 506 q 76 531 86 531 q 57 518 67 531 q 39 490 47 506 q 16 463 31 475 q -17 450 1 450 q -62 500 -62 450 q -17 596 -62 546 q 107 646 29 646 q 163 628 142 646 q 193 574 185 611 q 203 511 201 538 q 206 436 206 485 q 201 329 206 425 l 222 399 q 252 476 231 426 q 294 556 274 526 q 349 608 315 585 q 421 632 383 632 q 459 627 442 632 q 489 611 476 622 q 510 590 501 600 q 524 560 518 579 q 533 527 529 540 q 537 489 536 514 q 538 452 538 464 q 538 413 539 440 q 538 376 538 385 q 628 572 578 497 q 753 646 678 646 q 868 444 868 646 q 861 292 868 396 q 854 149 854 188 q 872 74 854 99 q 910 47 889 49 q 948 36 931 44 q 965 7 965 28 q 889 -49 965 -49 q 739 111 739 -49 q 744 273 739 179 q 750 396 750 367 q 718 497 750 497 q 619 340 683 497 q 556 111 556 183 q 557 86 556 106 q 558 56 558 67 q 496 -14 558 -14 q 444 16 457 -14 q 431 106 431 46 q 433 222 431 108 q 435 432 435 336 q 414 500 435 500 q 307 351 365 500 q 215 28 249 203 q 149 -14 207 -14 q 101 22 103 -14 q 101 250 100 74 q 97 465 101 426 z "},"N":{"ha":667,"x_min":-62,"x_max":667,"o":"m 553 149 q 571 74 553 99 q 610 47 589 49 q 649 36 631 44 q 667 7 667 28 q 590 -49 667 -49 q 440 111 440 -49 q 456 317 440 192 q 472 465 472 443 q 462 501 472 489 q 438 514 451 514 q 356 456 396 514 q 287 315 315 397 q 241 164 258 233 q 218 56 224 94 q 211 17 215 29 q 191 -4 207 6 q 144 -14 175 -14 q 97 35 97 -14 q 101 184 97 58 q 104 371 104 310 q 76 528 104 528 q 38 490 61 528 q -7 451 14 451 q -62 499 -62 451 q -16 590 -62 540 q 106 639 31 639 q 197 563 185 639 q 203 488 203 526 q 201 406 203 449 q 199 347 199 364 q 301 560 235 474 q 451 646 368 646 q 553 609 515 646 q 590 500 590 572 q 572 342 590 458 q 553 149 553 226 z "},"O":{"ha":676,"x_min":42,"x_max":635,"o":"m 482 554 q 635 300 635 497 q 547 54 635 136 q 339 -28 458 -28 q 233 -14 282 -28 q 140 31 185 0 q 68 124 94 63 q 42 271 42 185 q 76 434 42 351 q 185 579 110 517 q 360 642 261 642 q 446 622 410 642 q 482 564 482 603 l 482 554 m 400 525 q 286 497 335 524 q 213 428 238 469 q 176 345 188 386 q 165 264 165 304 q 212 124 165 172 q 325 75 258 75 q 458 131 399 75 q 518 281 518 188 q 435 442 518 376 q 397 504 397 468 q 400 525 397 511 z "},"P":{"ha":563,"x_min":28,"x_max":556,"o":"m 343 660 q 495 607 435 660 q 556 458 556 554 q 452 241 556 328 q 188 153 349 154 q 186 97 186 139 q 189 38 186 72 q 192 0 192 4 q 174 -36 192 -24 q 135 -49 156 -49 q 89 -17 100 -49 q 78 94 78 15 q 79 163 78 125 q 28 211 28 178 q 76 254 28 254 l 81 254 q 74 422 82 347 q 57 538 65 496 q 49 593 49 581 q 65 628 49 611 q 114 646 81 646 q 156 625 146 646 q 165 565 165 604 q 343 660 238 660 m 188 250 q 269 260 229 251 q 352 290 308 269 q 423 354 396 311 q 450 457 450 397 q 446 496 450 476 q 417 539 442 515 q 351 563 393 563 q 188 250 178 563 z "},"Q":{"ha":667,"x_min":28,"x_max":667,"o":"m 611 -56 q 440 11 546 -56 q 278 -35 367 -35 q 188 -6 219 -35 q 156 63 156 22 q 190 135 156 104 q 292 167 224 167 q 435 118 346 167 q 507 313 507 200 q 451 484 507 425 q 324 543 396 543 q 202 491 251 543 q 153 344 153 439 q 172 253 153 297 q 190 204 190 210 q 169 169 190 186 q 118 153 149 153 q 28 333 28 153 q 122 563 28 479 q 340 646 217 646 q 541 570 457 646 q 625 350 625 494 q 519 76 625 193 q 625 49 569 54 q 657 38 647 46 q 667 7 667 29 q 651 -35 667 -15 q 611 -56 636 -56 m 292 51 q 356 63 325 51 q 292 83 318 83 q 268 75 275 83 q 268 59 261 67 q 292 51 275 51 z "},"R":{"ha":590,"x_min":49,"x_max":576,"o":"m 340 535 q 257 510 290 535 q 208 438 224 485 q 186 343 192 392 q 181 229 181 294 q 185 99 181 156 q 193 15 189 42 q 197 -14 197 -12 q 132 -56 197 -56 q 76 7 76 -56 l 76 206 q 69 383 76 303 q 56 508 63 463 q 49 565 49 553 q 66 601 49 585 q 121 618 83 618 q 157 598 149 618 q 165 538 165 578 q 350 632 239 632 q 504 581 446 632 q 563 431 563 531 q 517 295 563 354 q 385 208 471 236 q 449 129 414 164 q 556 38 483 94 q 576 7 576 21 q 560 -32 576 -15 q 521 -49 544 -49 q 431 -1 496 -49 q 308 113 367 46 q 250 225 250 181 q 267 265 250 246 q 304 285 285 285 q 322 282 314 285 q 417 331 383 289 q 451 424 451 374 q 340 535 451 535 z "},"S":{"ha":576,"x_min":38,"x_max":535,"o":"m 142 443 q 182 385 142 403 q 280 360 222 367 q 396 342 338 354 q 494 287 454 329 q 535 169 535 244 q 465 19 535 72 q 288 -35 394 -35 q 94 15 150 -35 q 38 121 38 64 q 54 166 38 147 q 107 185 71 185 q 117 183 113 185 q 124 181 121 182 q 130 176 126 181 q 135 171 133 172 q 140 163 136 169 q 144 154 143 157 q 148 143 144 151 q 153 131 151 135 q 285 61 181 61 q 385 85 343 61 q 426 156 426 108 q 386 214 426 194 q 289 240 346 233 q 175 260 232 247 q 78 315 118 274 q 38 431 38 357 q 123 599 38 539 q 319 660 208 660 q 454 620 400 660 q 508 506 508 581 q 480 433 508 463 q 415 403 451 403 q 378 417 393 403 q 364 450 364 431 q 375 490 364 474 q 398 516 386 507 q 410 528 410 525 q 381 553 410 543 q 315 563 351 563 q 195 528 249 563 q 142 443 142 494 z "},"T":{"ha":493,"x_min":-21,"x_max":549,"o":"m 188 79 q 328 443 328 79 l 328 492 q 167 538 210 538 q 87 510 121 538 q 31 482 53 482 q -7 501 7 482 q -21 549 -21 521 q 21 626 -21 593 q 132 660 63 660 q 354 611 206 660 q 449 660 385 660 q 526 633 503 660 q 549 569 549 606 q 520 502 549 529 q 440 475 492 475 q 432 383 439 463 q 419 250 425 304 q 344 38 401 104 q 179 -28 288 -28 q 60 13 106 -28 q 14 125 14 54 q 59 246 14 190 q 172 301 104 301 q 204 286 190 301 q 218 243 218 271 q 185 208 218 221 q 124 135 124 189 q 188 79 124 79 z "},"U":{"ha":660,"x_min":-62,"x_max":611,"o":"m 97 479 q 76 528 97 528 q 51 508 63 528 q 26 469 40 489 q -10 450 13 450 q -50 463 -37 450 q -62 493 -62 476 q -15 591 -62 536 q 113 646 33 646 q 211 510 211 646 q 204 399 211 489 q 197 228 197 308 q 222 122 197 150 q 293 94 247 94 q 415 165 358 94 q 472 339 472 235 q 476 565 472 489 q 538 625 481 625 q 579 609 568 625 q 590 554 590 593 q 585 397 590 539 q 579 208 579 256 q 606 50 579 124 q 611 26 611 35 q 590 -14 611 0 q 547 -28 569 -28 q 478 114 478 -28 q 395 19 440 53 q 271 -14 350 -14 q 83 188 83 -14 q 90 347 83 244 q 97 479 97 449 z "},"V":{"ha":597,"x_min":28,"x_max":674,"o":"m 621 636 q 657 619 640 636 q 674 579 674 601 q 574 501 674 528 q 546 279 581 399 q 443 72 511 160 q 299 -15 375 -15 q 165 37 222 -15 q 81 171 108 89 q 40 332 53 253 q 28 486 28 411 q 41 615 28 583 q 92 646 54 646 q 153 590 153 646 q 149 544 153 588 q 146 472 146 501 q 261 107 146 190 q 299 93 279 93 q 378 162 335 93 q 447 326 421 231 q 468 490 474 421 q 376 579 376 499 q 402 639 376 618 q 463 660 428 660 q 546 603 519 660 q 582 621 553 606 q 621 636 611 636 z "},"W":{"ha":885,"x_min":-21,"x_max":850,"o":"m 822 604 q 850 410 850 521 q 791 110 850 233 q 619 -14 732 -14 q 438 125 483 -14 q 361 38 414 76 q 243 0 308 0 q 114 68 158 0 q 69 222 69 136 q 74 347 69 267 q 79 458 79 428 q 69 517 79 513 q 35 507 54 507 q -4 520 13 507 q -21 563 -21 533 q 6 613 -21 594 q 76 632 32 632 q 196 490 196 632 q 192 378 196 449 q 188 269 188 308 q 208 147 188 182 q 271 111 228 111 q 358 167 317 111 q 400 313 400 222 q 396 434 400 365 q 392 528 392 503 q 457 600 392 600 q 514 521 514 600 q 511 412 514 488 q 508 313 508 336 q 512 256 508 286 q 525 187 515 225 q 557 124 535 149 q 611 100 579 100 q 701 177 668 100 q 735 369 735 254 q 718 522 735 456 q 701 593 701 588 q 722 633 701 619 q 771 646 743 646 q 822 604 808 646 z "},"X":{"ha":576,"x_min":-49,"x_max":613,"o":"m 436 25 q 297 229 383 78 l 233 133 q 174 43 192 68 q 144 10 157 19 q 113 0 132 0 q 69 13 86 0 q 53 47 53 26 q 67 85 53 67 l 239 324 q 212 378 229 342 q 183 436 194 414 q 155 484 171 458 q 124 522 139 510 q 93 535 108 535 q 51 497 75 535 q 3 458 26 458 q -49 506 -49 458 q -5 595 -49 544 q 115 646 39 646 q 203 603 167 646 q 310 424 239 561 l 449 624 q 514 667 479 667 q 552 651 535 667 q 569 618 569 636 q 565 597 569 606 q 468 458 546 558 q 368 322 390 357 q 511 119 444 186 q 553 87 532 99 q 585 72 574 75 q 605 60 597 68 q 613 35 613 51 q 592 -4 613 13 q 535 -21 571 -21 q 436 25 482 -21 z "},"Y":{"ha":618,"x_min":-62,"x_max":694,"o":"m 594 112 q 609 124 594 112 q 647 136 625 136 q 682 124 669 136 q 694 92 694 111 q 639 14 694 47 q 525 -37 585 -18 q 476 -219 531 -146 q 319 -292 421 -292 q 188 -181 188 -292 q 421 36 188 -46 q 422 85 421 54 q 423 144 422 117 q 425 196 424 171 q 345 78 400 129 q 219 28 290 28 q 56 194 56 28 q 75 336 56 228 q 94 489 94 444 q 76 529 94 529 q 57 517 67 529 q 39 489 47 504 q 16 461 31 474 q -17 449 1 449 q -51 464 -40 449 q -62 500 -62 479 q -15 590 -62 535 q 107 646 32 646 q 201 514 201 646 q 183 358 201 461 q 164 208 164 256 q 177 151 164 169 q 225 132 190 132 q 331 211 283 132 q 403 390 379 290 q 419 569 419 460 q 437 607 419 592 q 488 622 454 622 q 544 572 544 622 q 535 491 544 558 q 524 389 526 424 q 522 72 514 253 q 594 112 563 88 m 333 -183 q 363 -176 346 -183 q 400 -142 381 -169 q 422 -69 419 -114 q 338 -108 369 -79 q 306 -160 306 -136 q 333 -183 306 -183 z "},"Z":{"ha":465,"x_min":-7,"x_max":465,"o":"m 424 69 q 458 21 458 61 q 446 -18 458 -1 q 410 -35 433 -35 q 364 -31 404 -35 q 292 -28 324 -28 q 76 -39 154 -28 q 49 -42 57 -42 q 12 -23 31 -42 q -7 35 -7 -4 q 33 108 -7 68 q 217 322 115 190 q 343 515 318 454 q 297 521 326 521 q 190 510 263 521 q 93 500 117 500 q 21 522 47 500 q -6 578 -6 543 q 10 617 -6 603 q 46 632 25 632 q 85 623 56 632 q 142 614 114 614 q 259 623 175 614 q 367 632 343 632 q 435 601 406 632 q 465 528 465 569 q 457 489 465 510 q 329 297 440 447 q 146 69 218 147 q 306 81 201 81 q 424 69 379 81 z "},"[":{"ha":319,"x_min":67,"x_max":286,"o":"m 242 29 q 271 15 260 29 q 282 -19 282 1 q 193 -79 282 -79 q 103 -47 139 -79 q 67 44 67 -15 q 68 135 67 82 q 69 204 69 188 q 68 290 69 244 q 67 350 67 336 q 71 499 67 394 q 78 703 75 603 q 109 749 79 738 q 200 760 139 760 q 249 758 233 760 q 275 747 264 756 q 286 719 286 739 q 272 679 286 697 q 236 661 257 661 q 223 662 232 661 q 208 663 214 663 q 168 636 168 663 q 174 529 174 579 q 170 425 174 488 q 167 338 167 363 q 168 240 167 310 q 169 110 169 169 l 169 50 q 217 28 176 28 q 242 29 232 28 z "},"]":{"ha":319,"x_min":33,"x_max":253,"o":"m 78 29 q 103 28 89 28 q 150 50 143 28 l 150 110 q 151 240 150 169 q 153 338 153 310 q 150 425 153 363 q 147 529 147 488 q 151 636 147 572 q 111 663 151 663 q 97 662 106 663 q 83 661 88 661 q 48 679 63 661 q 33 719 33 697 q 52 753 33 746 q 119 760 71 760 q 183 756 160 760 q 224 740 207 753 q 242 703 242 728 q 253 350 253 367 q 251 290 253 336 q 250 204 250 244 q 251 135 250 188 q 253 44 253 82 q 217 -47 253 -15 q 126 -79 181 -79 q 39 -19 39 -79 q 78 29 39 29 z "},"_":{"ha":625,"x_min":-14,"x_max":639,"o":"m 624 -75 q 638 -114 639 -89 q 585 -164 633 -164 q 38 -168 493 -168 q -14 -121 -14 -164 q 33 -72 -14 -75 q 149 -69 38 -72 q 385 -65 260 -67 q 550 -62 510 -62 q 624 -75 610 -62 z "},"`":{"ha":139,"x_min":-4,"x_max":144,"o":"m 139 432 q 144 417 144 425 q 138 399 144 406 q 122 393 131 393 q 65 417 103 393 q 4 469 26 440 q -4 493 -4 481 q 6 519 -4 507 q 35 531 15 531 q 88 497 56 531 q 139 432 119 463 z "},"a":{"ha":447,"x_min":0,"x_max":524,"o":"m 479 136 q 511 124 499 136 q 524 97 524 111 q 497 40 524 67 q 354 -24 433 -24 q 286 -8 315 -24 q 247 28 257 7 q 197 -4 231 10 q 132 -18 164 -18 q 39 17 78 -18 q 0 115 0 53 q 67 278 0 201 q 222 356 133 356 q 299 326 264 356 q 358 300 358 326 q 345 193 358 264 q 332 117 332 122 q 361 79 332 79 q 424 108 386 79 q 479 136 461 136 m 149 93 q 233 139 192 93 q 253 225 253 161 q 246 242 253 235 q 229 249 239 249 q 144 214 181 249 q 107 140 107 179 q 149 93 107 94 z "},"b":{"ha":433,"x_min":7,"x_max":551,"o":"m 517 299 q 540 288 528 299 q 551 261 551 278 q 520 208 551 228 q 438 188 489 188 q 347 204 381 188 q 361 138 361 175 q 308 24 361 71 q 183 -22 256 -22 q 111 -7 142 -22 q 62 40 81 8 q 31 105 43 72 q 15 190 19 138 q 8 280 10 242 q 7 375 7 318 q 19 646 7 521 q 89 725 28 725 q 139 701 124 725 q 154 621 154 676 q 135 381 154 567 q 115 189 115 196 q 133 122 115 156 q 190 88 151 88 q 242 110 224 88 q 260 165 260 133 q 243 225 260 200 q 182 282 182 235 q 197 329 182 311 q 236 347 211 347 q 316 316 256 347 q 431 285 376 285 q 485 292 457 285 q 517 299 513 299 z "},"c":{"ha":346,"x_min":0,"x_max":422,"o":"m 346 122 q 385 136 369 136 q 410 125 399 136 q 422 99 422 114 q 386 40 422 74 q 307 -6 357 14 q 201 -26 257 -26 q 57 24 114 -26 q 0 164 0 75 q 53 304 0 243 q 174 365 106 365 q 223 356 201 365 q 255 335 244 347 q 272 308 265 324 q 281 285 279 293 q 282 272 282 276 q 266 240 282 254 q 231 225 250 225 q 200 243 217 225 q 171 261 183 261 q 129 238 147 261 q 111 183 111 214 q 142 101 111 138 q 225 65 174 65 q 265 72 244 65 q 297 87 285 79 q 325 107 308 94 q 346 122 342 119 z "},"d":{"ha":460,"x_min":0,"x_max":536,"o":"m 440 108 q 457 122 440 108 q 492 136 474 136 q 523 124 510 136 q 536 93 536 113 q 510 40 536 67 q 382 -24 446 -24 q 278 38 306 -24 q 153 -22 222 -22 q 42 28 83 -22 q 0 144 0 79 q 63 303 0 244 q 186 363 125 363 q 244 347 219 363 q 242 410 242 389 q 267 603 242 524 q 331 683 292 683 q 386 594 386 683 q 366 366 386 514 q 329 146 346 218 q 333 112 331 122 q 347 90 335 101 q 382 79 360 79 q 440 108 406 79 m 232 143 q 251 203 251 174 q 236 246 251 228 q 199 264 221 264 q 141 231 169 264 q 113 150 113 199 q 126 103 113 122 q 161 85 139 85 q 232 143 197 85 z "},"e":{"ha":364,"x_min":0,"x_max":440,"o":"m 396 136 q 428 124 415 136 q 440 97 440 111 q 377 13 440 53 q 208 -28 314 -28 q 56 31 113 -28 q 0 174 0 90 q 7 224 0 197 q 30 283 14 251 q 80 335 46 314 q 161 356 114 356 q 253 321 219 356 q 288 233 288 286 q 186 76 288 135 q 358 121 260 43 q 396 136 378 136 m 186 221 q 178 243 186 233 q 158 253 171 253 q 119 227 136 253 q 103 168 103 201 q 114 124 103 138 q 166 167 146 139 q 186 221 186 196 z "},"f":{"ha":342,"x_min":0,"x_max":435,"o":"m 389 136 q 422 124 408 136 q 435 90 435 111 q 401 31 435 57 q 319 0 367 6 q 336 -97 336 -36 q 290 -246 336 -176 q 158 -315 243 -315 q 82 -292 114 -315 q 35 -230 50 -268 q 12 -160 19 -192 q 3 -100 4 -129 q 0 25 0 -67 q 31 660 0 526 q 89 701 40 701 q 156 576 156 701 q 121 165 156 365 q 150 171 138 171 q 268 106 214 171 q 347 117 317 99 q 389 136 376 136 m 168 -199 q 215 -165 197 -199 q 233 -90 233 -132 q 210 3 233 -24 q 121 28 147 7 q 118 -65 118 -36 q 119 -116 118 -96 q 126 -157 121 -136 q 141 -188 131 -178 q 168 -199 151 -199 z "},"g":{"ha":496,"x_min":0,"x_max":572,"o":"m 396 211 q 397 56 396 108 q 458 96 440 81 q 528 136 507 136 q 558 124 544 136 q 572 94 572 113 q 550 44 572 68 q 397 -43 514 6 q 393 -137 396 -118 q 351 -260 388 -215 q 253 -306 314 -306 q 165 -270 201 -306 q 128 -186 128 -235 q 171 -85 128 -128 q 289 0 214 -42 q 286 38 286 22 q 164 -11 242 -11 q 49 32 97 -11 q 0 161 0 75 q 59 318 0 263 q 193 374 118 374 q 299 319 278 374 q 367 379 308 379 q 410 326 410 379 q 396 211 410 322 m 176 96 q 259 144 224 96 q 294 272 294 193 q 253 251 279 251 q 218 263 238 251 q 186 274 199 274 q 132 244 154 274 q 110 174 110 215 q 128 117 110 138 q 176 96 147 96 m 268 -193 q 292 -96 292 -192 q 249 -171 249 -128 q 268 -193 249 -193 z "},"h":{"ha":482,"x_min":0,"x_max":558,"o":"m 518 136 q 547 124 536 136 q 558 97 558 113 q 504 16 558 56 q 389 -24 450 -24 q 297 9 326 -24 q 268 93 268 42 q 274 163 268 118 q 281 222 281 207 q 250 267 281 267 q 171 220 210 267 q 121 121 132 174 q 124 74 124 88 q 69 -10 124 -10 q 13 57 25 -10 q 0 342 0 124 q 8 554 0 486 q 53 674 18 636 q 125 713 88 713 q 189 572 189 713 q 107 325 189 493 q 110 264 107 282 q 278 388 183 388 q 389 278 389 388 q 381 195 389 247 q 374 128 374 143 q 406 85 374 85 q 465 110 432 85 q 518 136 497 136 z "},"i":{"ha":243,"x_min":0,"x_max":319,"o":"m 147 481 q 127 427 147 450 q 74 404 107 404 q 28 422 46 404 q 11 463 11 439 q 35 515 11 493 q 90 536 60 536 q 133 519 119 536 q 147 481 147 501 m 276 136 q 306 124 293 136 q 319 97 319 113 q 311 65 319 82 q 255 10 299 40 q 156 -21 211 -21 q 40 46 79 -21 q 0 211 0 113 q 18 332 0 304 q 78 360 35 360 q 116 343 103 360 q 129 308 129 326 q 120 244 129 300 q 111 157 111 189 q 163 81 111 81 q 224 108 190 81 q 276 136 258 136 z "},"j":{"ha":319,"x_min":-76,"x_max":396,"o":"m 374 44 q 221 -46 336 3 q 219 -90 221 -69 l 217 -122 q 217 -137 217 -133 q 172 -261 211 -217 q 63 -306 133 -306 q -42 -272 -7 -306 q -76 -186 -76 -237 q -28 -78 -76 -122 q 101 4 19 -33 q 81 264 81 208 q 98 301 81 282 q 147 319 115 319 q 176 315 164 319 q 193 303 188 311 q 201 290 199 294 q 206 275 203 285 q 221 58 219 203 q 282 96 260 75 q 351 136 331 136 q 382 124 368 136 q 396 94 396 113 q 374 44 396 68 m 150 379 q 79 446 79 379 q 99 504 79 486 q 149 522 119 522 q 208 504 183 522 q 232 454 232 486 q 211 399 232 419 q 150 379 190 379 m 111 -147 q 110 -97 111 -114 q 44 -171 44 -132 q 78 -200 44 -200 q 111 -147 111 -200 z "},"k":{"ha":449,"x_min":14,"x_max":524,"o":"m 479 136 q 509 125 494 136 q 524 99 524 114 q 492 35 524 64 q 335 -26 428 -26 q 206 28 257 -26 q 156 131 156 83 q 169 167 156 151 q 197 185 183 182 q 253 210 228 190 q 278 249 278 229 q 261 264 278 264 q 201 235 239 264 q 128 150 164 207 q 129 100 128 133 q 131 56 131 67 q 72 -11 131 -11 q 15 54 15 -11 q 17 94 15 60 q 19 178 18 128 q 21 278 21 229 q 17 500 21 406 l 14 593 q 51 695 14 657 q 126 733 88 733 q 190 700 165 733 q 225 596 225 650 q 135 286 225 449 q 230 364 197 344 q 299 383 263 383 q 358 356 336 383 q 381 289 381 329 q 357 207 381 242 q 258 122 306 131 q 333 71 281 71 q 421 103 375 71 q 479 136 467 136 m 107 403 q 135 560 135 489 q 121 599 135 599 q 111 575 114 599 q 108 492 108 551 q 107 403 108 433 z "},"l":{"ha":294,"x_min":-57,"x_max":371,"o":"m 200 -24 q 74 43 126 -24 q -10 -17 17 -17 q -42 2 -26 -17 q -57 39 -57 21 q -48 62 -57 51 q -16 91 -39 72 q 25 131 7 110 q -14 361 -14 236 q 35 619 -14 510 q 163 729 83 729 q 219 709 196 729 q 254 658 243 689 q 269 601 265 628 q 274 549 274 574 q 233 334 274 456 q 129 121 192 213 q 194 76 154 76 q 268 106 226 76 q 329 136 310 136 q 359 123 347 136 q 371 94 371 110 q 316 15 371 54 q 200 -24 261 -24 m 88 390 q 97 233 88 296 q 175 524 175 369 q 149 599 175 599 q 105 538 122 599 q 88 390 88 476 z "},"m":{"ha":683,"x_min":14,"x_max":760,"o":"m 718 136 q 746 124 732 136 q 760 94 760 113 q 753 67 760 81 q 683 4 735 32 q 586 -24 632 -24 q 505 2 535 -24 q 475 76 475 28 q 478 118 475 86 q 481 167 481 150 q 438 242 481 242 q 383 210 404 242 q 358 140 363 179 q 356 115 357 133 q 354 87 356 97 q 350 60 353 76 q 343 33 347 43 q 333 14 339 24 q 318 -1 328 4 q 297 -6 308 -6 q 244 65 244 -6 q 247 99 244 67 q 249 156 249 131 q 215 231 249 231 q 167 201 192 231 q 125 129 143 172 q 126 72 124 110 q 129 18 129 35 q 114 -12 129 -1 q 75 -22 99 -22 q 28 11 32 -22 q 14 283 14 111 q 71 353 14 353 q 125 274 125 353 q 235 356 181 356 q 299 333 271 356 q 338 272 328 311 q 471 351 392 351 q 556 311 531 351 q 582 222 582 271 q 577 160 582 194 q 572 118 572 126 q 597 79 572 79 q 617 82 607 79 q 638 90 628 85 l 654 101 q 671 115 661 107 q 682 124 681 122 q 718 136 699 136 z "},"n":{"ha":496,"x_min":15,"x_max":572,"o":"m 413 79 q 438 85 424 79 q 458 97 451 92 l 481 113 l 494 124 q 531 136 511 136 q 558 124 544 136 q 572 94 572 113 q 565 67 572 81 q 497 3 546 31 q 401 -24 447 -24 q 318 4 351 -24 q 285 89 285 32 q 290 161 285 117 q 296 219 296 206 q 268 265 296 265 q 196 213 238 265 q 131 100 154 160 q 118 13 132 38 q 69 -12 104 -12 q 17 68 25 -12 q 15 297 15 97 q 33 345 15 324 q 75 367 50 367 q 97 365 89 367 q 111 359 106 364 q 120 350 117 354 q 125 334 124 346 q 126 314 126 322 q 127 285 126 306 q 128 249 128 264 q 202 335 158 300 q 288 369 246 369 q 370 338 343 369 q 397 264 397 307 q 391 179 397 229 q 385 111 385 129 q 413 79 385 79 z "},"o":{"ha":404,"x_min":0,"x_max":481,"o":"m 472 297 q 481 271 481 288 q 438 188 481 215 q 349 161 394 161 l 338 161 q 343 128 343 149 q 294 22 343 72 q 161 -28 246 -28 q 47 23 94 -28 q 0 146 0 74 q 15 233 0 185 q 74 325 31 281 q 182 369 118 369 q 240 356 221 369 q 260 324 260 343 q 254 296 260 306 q 302 274 276 293 q 347 254 328 254 q 383 272 365 254 q 449 308 417 308 q 472 297 461 308 m 194 264 q 123 221 146 253 q 100 153 100 189 q 119 98 100 119 q 167 76 138 76 q 227 101 206 76 q 249 156 249 125 q 243 181 249 164 q 190 243 190 200 q 194 264 190 253 z "},"p":{"ha":468,"x_min":0,"x_max":419,"o":"m 0 265 l 0 271 q 19 323 0 301 q 68 344 38 344 q 128 285 107 344 q 279 360 206 360 q 378 302 336 360 q 419 167 419 244 q 365 28 419 82 q 246 -25 311 -25 q 176 -7 199 -25 q 154 38 154 11 q 164 75 154 57 q 201 99 175 94 q 248 102 226 104 q 287 116 269 100 q 304 171 304 132 q 292 226 304 200 q 260 253 281 253 q 174 191 225 253 q 124 86 124 129 q 124 -4 124 67 q 125 -93 125 -75 l 125 -121 l 125 -153 q 124 -184 125 -164 q 122 -215 124 -204 l 119 -244 q 112 -271 117 -261 q 101 -290 107 -281 q 88 -304 96 -300 q 68 -308 79 -308 q 8 -229 8 -308 q 10 -151 8 -203 q 13 -75 13 -99 q 0 265 13 86 z "},"q":{"ha":489,"x_min":0,"x_max":593,"o":"m 549 136 q 581 123 568 136 q 593 88 593 110 q 590 72 593 79 l 586 60 q 576 50 583 56 q 567 42 569 44 q 556 34 565 40 q 546 28 547 28 q 443 -57 467 -25 q 493 -174 493 -107 q 464 -272 493 -229 q 385 -314 435 -314 q 291 -276 331 -314 q 251 -168 251 -237 q 267 14 251 -154 q 167 -22 233 -22 q 48 24 96 -22 q 0 158 0 69 q 65 310 0 250 q 201 371 129 371 q 269 350 249 371 q 313 368 282 368 q 359 352 338 368 q 381 304 381 336 q 367 -3 381 183 q 474 104 433 72 q 549 136 514 136 m 118 167 q 140 109 118 129 q 190 89 161 89 q 268 142 247 89 l 268 182 q 267 271 268 244 q 243 257 257 257 q 228 260 239 257 q 211 263 218 263 q 148 237 178 263 q 118 167 118 211 m 376 -196 q 400 -164 400 -196 q 378 -112 400 -131 q 357 -92 364 -103 q 350 -150 350 -136 q 376 -196 350 -194 z "},"r":{"ha":413,"x_min":-42,"x_max":489,"o":"m 301 -28 q 219 -3 247 -28 q 190 63 190 21 q 209 141 190 100 q 228 196 228 182 q 216 216 228 211 q 181 224 204 221 q 143 233 158 226 q 51 17 107 76 q 8 0 36 0 q -27 15 -12 0 q -42 53 -42 29 q -6 133 -42 69 q 44 267 31 196 q 10 339 10 289 q 28 400 10 374 q 79 426 46 426 q 130 401 108 426 q 151 335 151 376 q 201 314 151 314 q 239 317 214 314 q 272 319 264 319 q 316 296 296 319 q 336 239 336 272 q 328 197 336 215 q 293 93 293 117 q 317 74 293 74 q 388 105 350 74 q 444 136 425 136 q 476 124 464 136 q 489 97 489 111 q 463 40 489 67 q 301 -28 394 -28 z "},"s":{"ha":450,"x_min":-35,"x_max":547,"o":"m 503 231 q 534 219 521 231 q 547 188 547 207 q 522 142 547 161 q 381 92 465 92 q 347 1 383 36 q 251 -33 311 -33 q 149 -1 192 -33 q 106 76 106 32 q 108 100 106 92 q 18 24 54 24 q -20 39 -6 24 q -35 72 -35 54 q -11 117 -35 97 q 25 150 7 132 l 54 181 q 85 222 65 193 l 111 261 q 142 310 117 269 q 174 360 168 350 q 231 397 197 397 q 291 385 269 397 q 313 354 313 372 q 309 322 313 340 q 306 292 306 303 q 349 185 306 251 q 410 188 388 182 q 461 214 433 193 q 503 231 483 231 m 153 157 q 249 185 188 178 q 221 276 224 214 l 183 210 q 153 157 157 164 m 247 49 q 289 85 289 49 q 282 108 289 99 q 192 83 192 115 q 208 58 192 67 q 247 49 225 49 z "},"t":{"ha":276,"x_min":-47,"x_max":356,"o":"m 192 81 q 257 108 219 81 q 314 136 294 136 q 344 122 332 136 q 356 94 356 108 q 302 17 356 57 q 172 -24 249 -24 q 40 45 72 -24 q 21 260 8 114 q -44 329 -47 282 q 18 375 -40 375 l 32 375 q 161 614 76 614 q 201 581 189 614 q 208 500 213 547 q 176 358 200 432 q 226 360 201 360 q 262 353 249 360 q 274 328 275 346 q 136 249 267 254 q 122 219 126 225 q 192 81 119 81 z "},"u":{"ha":497,"x_min":0,"x_max":574,"o":"m 415 -21 q 350 1 381 -21 q 308 50 319 22 q 183 -17 257 -17 q 60 31 100 -17 q 0 207 0 93 q 15 303 0 258 q 63 349 31 349 q 103 334 88 349 q 119 294 119 319 q 113 243 119 281 q 107 175 107 206 q 181 83 107 83 q 240 104 225 83 q 257 161 254 125 l 260 226 q 265 284 263 267 q 272 324 267 301 q 290 353 278 346 q 321 361 301 361 q 360 347 346 361 q 375 307 375 332 q 372 230 375 290 q 368 158 368 169 q 411 79 368 79 q 474 108 436 79 q 529 136 511 136 q 560 125 546 136 q 574 97 574 114 q 547 40 574 67 q 415 -21 486 -21 z "},"v":{"ha":376,"x_min":0,"x_max":494,"o":"m 389 296 q 439 299 415 296 l 461 301 q 485 291 475 301 q 494 265 494 281 q 460 215 494 239 q 372 190 426 190 q 311 201 338 190 q 291 106 308 157 q 233 10 274 56 q 140 -36 193 -36 q 63 24 76 -36 q 47 90 58 39 l 25 189 q 4 265 14 235 q 0 290 0 275 q 15 333 0 315 q 63 351 31 351 q 97 337 83 351 q 113 311 110 322 q 121 278 117 300 q 156 89 146 161 q 194 142 181 104 q 208 203 208 179 q 194 231 208 211 q 181 265 181 250 q 199 306 181 288 q 238 324 217 324 q 304 310 257 324 q 389 296 351 296 z "},"w":{"ha":658,"x_min":0,"x_max":783,"o":"m 733 351 q 768 336 753 351 q 783 300 783 321 q 742 224 783 261 q 632 186 701 186 q 614 172 614 186 q 563 26 608 92 q 442 -40 518 -40 q 308 63 343 -40 q 143 -39 236 -39 q 34 22 68 -39 q 0 175 0 83 q 14 279 0 231 q 65 328 28 328 q 108 306 93 328 q 126 235 126 276 l 126 224 q 123 183 126 210 q 119 144 119 157 q 134 97 119 114 q 168 81 149 81 q 222 108 196 81 q 256 172 249 136 q 261 235 256 204 q 286 294 267 267 q 335 322 306 322 q 368 300 357 322 q 394 235 394 283 q 392 191 394 217 q 389 157 389 165 q 446 83 389 83 q 493 105 476 83 q 515 183 510 126 q 483 243 483 210 q 499 284 483 271 q 535 297 515 297 q 583 292 560 297 q 614 288 606 288 q 681 319 646 288 q 733 351 717 351 z "},"x":{"ha":453,"x_min":-17,"x_max":540,"o":"m 74 218 q 31 203 58 197 q -6 232 4 210 q 0 281 -17 254 q 36 323 24 310 q 74 351 49 336 q 129 365 100 365 q 194 344 174 365 q 247 257 215 322 q 298 313 279 293 q 348 353 317 332 q 404 374 379 374 q 434 359 421 374 q 447 324 447 344 q 410 267 447 288 q 296 172 365 242 q 337 101 318 122 q 381 81 356 81 q 438 108 400 81 q 499 136 476 136 q 528 124 515 136 q 540 93 540 111 q 518 44 540 67 q 368 -25 449 -25 q 284 -1 315 -25 q 219 90 253 24 l 197 65 q 176 40 182 47 q 158 19 169 32 q 139 1 146 7 q 122 -11 132 -4 q 103 -20 111 -18 q 85 -22 94 -22 q 46 -7 63 -22 q 29 31 29 8 q 74 90 29 68 q 178 179 107 106 l 156 219 q 140 240 150 231 q 118 250 131 250 q 74 218 97 250 z "},"y":{"ha":496,"x_min":15,"x_max":572,"o":"m 388 50 q 458 96 440 81 q 528 136 507 136 q 558 124 544 136 q 572 94 572 113 q 550 44 572 68 q 397 -43 514 6 q 393 -137 396 -115 q 349 -272 388 -222 q 244 -321 310 -321 q 151 -286 190 -321 q 113 -200 113 -251 q 160 -92 113 -139 q 286 -1 208 -44 q 285 56 285 19 q 168 -14 232 -14 q 82 14 126 -14 q 28 89 38 42 q 15 213 15 151 l 15 229 l 15 250 q 16 271 15 257 q 19 293 17 285 q 24 314 21 301 q 31 334 26 326 q 42 349 36 342 q 58 359 49 356 q 81 363 68 363 q 129 292 129 363 q 125 230 129 272 q 121 169 121 188 q 165 100 121 100 q 242 152 203 100 q 281 268 281 204 q 292 338 281 317 q 335 360 304 360 q 378 338 368 360 q 389 263 389 317 q 388 178 389 256 q 388 50 386 101 m 257 -212 q 292 -96 292 -211 q 228 -185 228 -135 q 257 -212 228 -212 z "},"z":{"ha":464,"x_min":-28,"x_max":540,"o":"m 197 -175 q 209 -206 196 -194 q 240 -217 222 -217 q 285 -195 265 -217 q 304 -132 304 -174 q 292 -76 304 -108 q 197 -175 197 -119 m 217 365 q 326 328 289 365 q 363 238 363 292 q 338 151 363 193 q 271 82 314 108 q 328 47 308 69 q 406 83 374 61 q 457 121 439 106 q 496 136 475 136 q 527 125 514 136 q 540 94 540 114 q 500 28 540 61 q 379 -29 460 -4 q 403 -125 403 -67 q 351 -265 403 -215 q 222 -315 300 -315 q 124 -279 163 -315 q 86 -194 86 -243 q 119 -90 86 -133 q 235 -3 151 -46 q 207 12 226 8 q 170 15 188 15 q 139 27 153 15 q 125 65 125 39 q 174 118 125 94 q 226 159 206 133 q 247 210 247 185 q 210 250 247 250 q 140 197 169 250 q 116 148 133 185 q 88 92 99 111 q 59 56 78 74 q 21 38 40 38 q -14 51 0 38 q -28 88 -28 64 q 0 138 -28 103 q 54 231 26 169 q 97 313 82 292 q 217 365 136 365 z "},"{":{"ha":335,"x_min":33,"x_max":301,"o":"m 249 28 q 301 -18 301 28 q 286 -59 301 -44 q 256 -76 271 -74 q 218 -78 242 -78 q 119 -47 161 -78 q 76 53 76 -15 q 84 116 76 74 q 92 186 92 158 q 77 262 92 229 q 48 315 63 294 q 33 347 33 335 q 42 371 33 361 q 80 413 69 400 q 102 453 90 425 q 114 511 114 481 q 111 558 114 524 q 108 610 108 592 q 124 689 108 656 q 164 737 140 722 q 207 757 188 751 q 243 763 226 763 q 281 743 268 763 q 293 703 293 724 q 276 669 293 679 q 234 647 246 654 q 210 617 222 639 q 199 561 199 596 l 199 514 q 135 339 199 383 q 192 188 192 278 q 187 131 192 169 q 182 82 182 93 q 236 28 182 28 l 249 28 z "},"|":{"ha":194,"x_min":57,"x_max":140,"o":"m 67 -169 q 57 750 57 39 q 59 817 57 796 q 71 853 61 838 q 101 868 81 868 q 133 839 128 868 q 139 689 139 810 q 137 370 139 593 q 135 136 135 147 q 138 -73 135 24 q 140 -182 140 -169 q 133 -228 140 -214 q 106 -242 126 -242 q 67 -169 71 -242 z "},"}":{"ha":335,"x_min":33,"x_max":301,"o":"m 86 658 q 33 696 33 658 q 117 763 33 763 q 216 731 174 763 q 258 633 258 700 q 251 569 258 611 q 243 500 243 528 q 258 424 243 457 q 287 370 272 390 q 301 338 301 350 q 293 314 301 324 q 281 301 292 311 q 269 288 271 290 q 258 275 267 285 q 248 260 250 265 q 240 247 246 256 q 232 231 233 238 q 227 215 231 225 q 223 196 224 206 q 222 175 222 186 q 224 128 222 161 q 226 76 226 94 q 210 -3 226 31 q 171 -51 194 -36 q 128 -72 147 -65 q 92 -78 108 -78 q 54 -58 67 -78 q 42 -17 42 -37 q 58 17 42 7 q 101 38 88 29 q 125 69 114 47 q 136 125 136 90 q 138 211 136 183 q 154 282 139 239 q 200 346 169 325 q 143 497 143 407 q 148 553 143 515 q 153 603 153 592 q 138 647 153 635 q 86 658 124 658 z "},"":{"ha":278,"x_min":0,"x_max":0,"o":""},"":{"ha":219,"x_min":35,"x_max":185,"o":"m 36 397 q 35 411 35 401 q 60 465 35 443 q 121 488 86 488 q 166 470 147 488 q 185 424 185 453 q 161 374 185 392 q 101 356 138 356 q 36 397 47 356 m 164 232 q 165 131 164 203 q 167 0 165 60 l 167 -61 l 167 -82 q 166 -131 167 -115 q 160 -168 165 -147 q 144 -197 156 -189 q 111 -206 132 -206 q 46 -133 46 -206 q 49 -47 46 -108 q 51 43 51 15 q 51 94 51 60 q 50 151 50 129 q 60 273 50 242 q 107 304 71 304 q 164 232 164 304 z "},"":{"ha":457,"x_min":0,"x_max":457,"o":"m 411 675 q 445 663 433 675 q 457 638 457 651 q 428 585 457 618 q 392 529 399 553 q 361 513 386 513 q 322 546 322 513 q 275 618 322 590 q 253 272 265 513 q 323 309 286 281 q 375 338 360 338 q 401 326 390 338 q 411 297 411 314 q 359 233 411 271 q 249 186 307 194 q 235 106 244 125 q 200 88 226 88 q 157 142 157 88 q 161 192 157 150 q 0 425 0 229 q 60 607 0 536 q 204 693 121 678 q 210 734 207 719 q 222 762 213 749 q 249 775 232 775 q 274 761 264 775 q 285 724 285 747 q 283 708 285 719 q 282 692 282 697 q 381 626 335 678 q 411 675 394 675 m 92 439 q 169 275 92 310 l 199 624 q 126 565 156 611 q 92 439 96 518 z "},"":{"ha":458,"x_min":6,"x_max":432,"o":"m 386 300 q 417 286 401 300 q 432 256 432 272 q 422 228 432 244 l 414 210 q 401 185 407 196 q 384 166 396 175 q 357 157 372 157 q 344 158 349 157 q 228 181 275 181 q 143 167 181 181 q 101 153 106 153 q 62 169 86 153 q 38 211 38 186 q 58 264 38 224 q 88 363 79 304 q 63 359 78 363 q 38 356 47 356 q 6 394 6 356 q 9 417 6 408 q 22 429 13 425 q 39 434 32 433 q 64 436 46 435 q 89 438 82 438 q 83 549 83 540 q 123 649 83 604 q 242 694 163 694 q 353 661 319 694 q 388 576 388 628 q 365 508 388 535 q 307 481 343 481 q 274 492 288 481 q 261 521 261 504 q 281 556 261 542 q 301 588 301 569 q 288 613 301 601 q 247 625 275 625 q 179 532 179 625 q 180 492 179 522 q 181 438 181 463 q 262 431 246 438 q 278 397 278 424 q 271 375 278 386 q 250 364 264 364 l 222 365 q 175 367 194 367 q 149 271 169 319 q 146 261 146 263 q 161 244 146 244 q 174 248 164 244 q 205 255 183 251 q 257 258 226 258 q 290 256 267 258 q 328 253 314 253 q 343 265 336 253 q 386 300 361 300 z "},"":{"ha":467,"x_min":36,"x_max":432,"o":"m 385 814 q 397 817 393 817 q 422 804 411 817 q 432 778 432 792 q 430 769 432 774 q 424 758 428 764 l 415 747 q 406 737 413 743 q 394 727 399 731 q 381 717 389 724 q 369 707 372 710 q 385 636 385 674 q 356 550 385 588 q 399 479 399 501 q 390 456 399 465 q 365 446 381 446 q 297 503 329 446 q 222 485 263 485 q 150 500 181 485 q 71 444 94 444 q 47 456 57 444 q 36 485 36 468 q 40 502 36 493 q 52 521 44 511 q 65 536 60 531 q 79 551 69 542 q 90 561 89 560 q 81 611 81 586 q 106 703 81 664 q 53 779 53 760 q 65 809 53 796 q 90 822 76 822 q 161 754 113 822 q 242 776 200 776 q 318 763 289 776 q 385 814 365 804 m 163 621 q 181 573 163 590 q 228 556 200 556 q 286 582 263 556 q 310 640 310 608 q 246 701 310 701 q 190 680 217 701 q 163 621 164 658 z "},"":{"ha":458,"x_min":28,"x_max":431,"o":"m 406 607 q 386 583 403 604 l 353 542 q 310 495 335 521 q 265 453 285 469 q 264 419 265 435 q 341 415 324 419 q 358 392 358 411 q 263 354 358 360 l 263 324 q 332 318 313 324 q 351 292 351 313 q 322 260 351 264 q 300 258 315 258 q 282 260 294 260 q 264 261 269 261 q 265 238 264 254 q 267 215 267 221 q 254 186 267 197 q 225 175 242 175 q 178 246 178 175 l 178 265 q 153 263 171 265 q 126 260 135 260 q 99 289 99 260 q 136 325 99 325 q 154 324 139 325 q 181 324 169 324 q 182 351 181 343 l 176 351 q 92 389 92 351 q 102 415 92 408 q 138 421 113 421 l 183 421 l 183 449 q 28 646 28 600 q 40 679 28 667 q 71 692 53 692 q 118 658 94 692 q 231 524 176 572 q 351 671 279 576 q 393 694 368 694 q 418 684 406 694 q 431 660 431 674 q 406 607 431 640 z "},"":{"ha":315,"x_min":35,"x_max":281,"o":"m 222 232 q 264 144 264 190 q 228 47 264 94 q 113 -1 192 -1 q 59 9 83 -1 q 35 42 35 19 q 85 81 35 81 q 146 92 128 81 q 169 139 169 107 q 157 169 169 156 q 111 203 144 182 q 53 304 53 238 q 72 369 53 336 q 125 415 90 401 q 84 449 99 435 q 54 491 69 463 q 39 553 39 519 q 81 653 39 617 q 190 690 124 690 q 250 649 250 690 q 218 613 250 613 q 206 614 214 613 q 193 615 197 615 q 146 599 165 615 q 126 553 126 583 q 165 493 126 525 q 242 424 203 461 q 281 347 281 386 q 222 232 281 283 m 176 368 q 147 324 147 353 q 164 283 147 301 q 192 332 192 310 q 176 368 192 349 z "},"":{"ha":139,"x_min":-46,"x_max":185,"o":"m 6 522 l 13 522 q 42 510 29 522 q 54 476 54 499 q 35 440 54 454 q 0 426 17 426 q -46 469 -46 426 q -30 506 -46 492 q 6 522 -14 521 m 139 525 q 169 510 154 525 q 185 476 185 494 q 169 442 185 458 q 128 426 154 426 q 96 440 108 426 q 83 471 83 453 q 101 510 83 496 q 139 525 118 525 z "},"":{"ha":697,"x_min":35,"x_max":663,"o":"m 471 611 q 608 510 554 583 q 663 339 663 436 q 576 117 663 215 q 356 18 490 18 q 128 115 222 18 q 35 339 35 213 q 126 562 35 472 q 351 651 218 651 q 428 614 422 651 q 443 615 433 615 q 471 611 458 615 m 589 333 q 547 471 589 414 q 415 549 504 528 q 397 574 401 551 q 308 565 354 576 q 217 529 263 554 q 141 453 171 504 q 111 332 111 401 q 175 167 111 240 q 350 94 239 94 q 463 118 414 94 q 538 180 511 142 q 576 257 564 218 q 589 333 589 296 m 388 344 q 374 375 374 354 q 389 417 374 397 q 358 426 379 426 q 296 397 325 425 q 267 326 267 369 q 346 236 267 236 q 406 251 381 236 q 447 281 431 267 q 474 296 463 296 q 490 290 482 296 q 497 274 497 283 q 475 232 497 254 q 351 174 425 174 q 234 217 279 174 q 189 335 189 260 q 242 451 189 403 q 358 499 294 499 q 435 467 408 499 q 467 481 458 481 q 488 471 479 481 q 497 450 497 461 q 468 404 497 433 q 451 378 463 397 q 430 349 440 360 q 404 339 419 339 q 388 344 394 339 z "},"":{"ha":300,"x_min":0,"x_max":351,"o":"m 284 447 q 296 457 284 447 q 321 467 308 467 q 342 458 333 467 q 351 440 351 450 q 333 401 351 419 q 238 360 288 360 q 165 393 182 360 q 89 363 138 363 q 26 386 53 363 q 0 453 0 410 q 44 563 0 511 q 149 614 89 614 q 200 593 176 614 q 240 576 240 593 q 231 505 240 553 q 222 453 222 457 q 242 428 222 428 q 284 447 260 428 m 100 438 q 157 468 129 438 q 169 526 169 483 q 154 542 169 542 q 97 519 121 542 q 72 469 72 496 q 100 438 72 439 z "},"":{"ha":376,"x_min":35,"x_max":342,"o":"m 165 461 q 188 472 176 472 q 210 447 210 472 q 139 338 210 413 q 133 326 133 332 q 140 315 133 322 q 210 206 210 243 q 189 181 210 181 q 158 199 179 181 q 109 242 151 206 q 54 292 67 279 q 35 325 35 311 q 57 363 35 340 q 165 461 58 364 m 297 454 q 319 465 308 465 q 342 440 342 465 q 278 338 342 406 q 272 326 272 332 q 279 315 272 322 q 342 213 342 250 q 321 188 342 188 q 290 206 311 188 q 244 246 283 213 q 193 292 206 279 q 174 325 174 311 q 196 363 174 340 q 224 389 206 372 l 264 425 l 297 454 z "},"":{"ha":347,"x_min":21,"x_max":326,"o":"m 313 214 q 326 181 326 200 q 310 138 326 151 q 272 125 294 125 q 217 124 258 125 q 156 124 176 124 q 122 123 143 124 q 92 122 101 122 q 67 123 82 122 q 47 127 53 124 q 33 135 40 131 q 24 149 26 140 q 21 171 21 158 q 68 219 21 217 q 140 223 72 219 q 238 226 208 226 q 313 214 299 226 z "},"":{"ha":381,"x_min":35,"x_max":346,"o":"m 254 689 q 319 638 293 675 q 346 554 346 601 q 303 444 346 493 q 193 396 260 396 q 81 444 128 396 q 35 554 35 492 q 81 664 35 619 q 192 708 126 708 q 229 692 222 708 q 254 689 247 692 m 303 551 q 283 616 303 589 q 229 651 264 643 q 213 665 217 653 q 119 640 160 668 q 78 551 78 611 q 108 474 78 508 q 192 439 139 439 q 275 475 247 439 q 303 551 303 511 m 228 540 q 247 517 239 532 q 254 494 254 503 q 236 483 254 483 q 226 492 231 483 q 215 513 221 500 q 200 533 208 526 q 168 535 179 533 q 171 496 171 504 q 156 478 171 478 q 135 561 135 478 l 135 571 q 125 569 128 569 q 113 582 113 569 q 140 613 113 596 q 193 629 167 629 q 240 616 218 629 q 263 582 263 603 q 228 540 263 554 m 167 558 q 186 556 175 556 q 216 563 204 556 q 228 579 228 569 q 201 599 228 599 q 165 586 181 599 q 167 558 165 567 z "},"":{"ha":139,"x_min":-54,"x_max":196,"o":"m -18 489 q 67 490 0 490 q 163 489 133 490 q 195 449 194 485 q 163 410 196 413 q -26 407 22 401 q -53 447 -54 411 q -18 489 -51 483 z "},"":{"ha":290,"x_min":21,"x_max":269,"o":"m 93 581 q 107 544 93 557 q 142 532 121 532 q 185 549 168 532 q 201 590 201 567 q 188 628 201 615 q 156 642 174 642 q 114 626 133 642 q 93 581 94 610 m 21 571 q 62 671 21 635 q 153 707 103 707 q 235 683 200 707 q 269 606 269 660 q 235 505 269 546 q 132 464 201 464 q 53 492 85 464 q 21 571 21 521 z "},"":{"ha":471,"x_min":35,"x_max":436,"o":"m 397 426 q 424 413 411 425 q 435 375 436 400 q 415 340 433 351 q 379 328 397 328 l 285 328 q 289 254 289 278 q 270 211 289 224 q 231 200 251 199 q 179 263 179 203 q 180 286 179 268 q 181 328 181 304 q 89 329 96 328 q 35 379 35 329 q 51 417 35 403 q 83 431 67 431 l 100 431 q 138 431 115 431 q 181 432 160 432 q 180 461 181 439 q 179 489 179 483 q 233 543 179 543 q 271 528 256 543 q 288 486 286 514 q 286 432 288 456 q 397 426 371 429 m 76 181 q 397 175 342 181 q 424 161 411 174 q 435 125 436 149 q 379 79 432 83 l 89 79 q 35 129 35 79 q 47 167 35 153 q 76 181 60 181 z "},"":{"ha":279,"x_min":21,"x_max":258,"o":"m 222 388 q 256 347 256 385 q 244 325 256 333 q 221 317 233 317 q 200 319 214 317 q 176 321 186 321 q 71 314 140 321 q 25 367 25 314 q 117 490 25 425 q 181 572 181 536 q 172 601 181 589 q 149 614 163 614 q 103 581 121 614 q 98 572 101 579 q 93 564 94 565 l 89 556 q 82 549 85 551 q 74 546 79 547 q 63 544 68 544 q 33 556 46 544 q 21 585 21 567 q 56 648 21 613 q 149 683 92 683 q 228 651 197 683 q 258 574 258 619 q 256 553 258 563 q 251 535 254 543 q 242 519 249 528 q 233 506 236 510 q 219 492 229 501 q 206 480 210 483 q 190 467 203 476 q 175 456 178 458 q 111 389 121 414 q 222 388 169 393 z "},"":{"ha":274,"x_min":21,"x_max":253,"o":"m 247 626 q 194 529 247 582 q 253 439 253 504 q 220 347 253 383 q 136 311 188 311 q 53 339 85 311 q 21 401 21 367 q 33 428 21 419 q 57 438 44 438 q 90 414 82 438 q 133 383 103 383 q 178 432 178 383 q 140 483 178 478 q 99 467 113 467 q 75 476 86 467 q 64 503 64 486 q 94 539 64 524 q 168 611 149 561 l 94 611 q 61 579 89 579 q 24 618 24 579 q 75 682 24 682 q 156 683 122 682 q 201 683 190 683 q 247 626 247 683 z "},"":{"ha":139,"x_min":-3,"x_max":146,"o":"m 3 432 q 54 497 22 463 q 107 531 86 531 q 136 519 126 531 q 146 493 146 507 q 138 469 146 481 q 77 417 115 440 q 19 393 39 393 q 4 399 11 393 q -3 417 -3 406 q 3 432 -3 425 z "},"":{"ha":499,"x_min":0,"x_max":499,"o":"m 486 664 q 499 639 499 658 q 490 611 499 624 q 465 599 481 599 q 438 606 458 599 q 435 293 435 489 q 436 175 435 253 q 438 64 438 97 q 429 17 438 31 q 400 3 421 3 q 366 24 372 3 q 360 106 360 46 q 357 310 360 144 q 354 549 354 475 q 356 624 354 604 q 303 631 319 629 q 301 539 301 600 q 314 97 301 428 l 314 76 q 306 24 314 39 q 278 8 297 8 q 236 42 243 8 q 228 233 229 75 q 226 342 226 301 q 127 353 174 342 q 40 401 81 364 q 0 500 0 439 q 84 651 0 600 q 279 701 168 701 q 401 688 336 701 q 486 664 465 674 m 89 522 q 225 413 89 413 q 226 628 225 579 q 89 522 89 613 z "},"":{"ha":206,"x_min":35,"x_max":171,"o":"m 107 381 q 153 364 135 381 q 171 317 171 347 q 151 265 171 283 q 104 247 132 247 q 56 263 76 247 q 35 308 35 279 q 55 360 35 340 q 107 381 75 381 z "},"":{"ha":139,"x_min":-36,"x_max":171,"o":"m 38 -2 q 45 6 38 -2 q 76 14 53 14 q 100 3 100 14 q 97 -11 100 -1 q 93 -28 93 -21 q 105 -44 93 -36 q 132 -61 117 -53 q 159 -89 147 -69 q 171 -136 171 -108 q 145 -191 171 -167 q 76 -215 119 -215 q -32 -160 4 -215 q -36 -147 -36 -153 q -15 -128 -36 -128 q 14 -138 -6 -128 q 46 -149 33 -149 q 79 -125 79 -149 q 56 -90 79 -111 q 24 -42 24 -62 q 38 -2 24 -18 z "},"":{"ha":172,"x_min":21,"x_max":138,"o":"m 104 685 q 138 633 138 685 q 131 426 131 543 q 131 397 131 419 q 132 363 132 375 q 90 321 132 321 q 51 379 51 321 q 56 597 51 540 q 21 632 21 600 q 38 661 21 650 q 104 685 75 685 z "},"":{"ha":271,"x_min":0,"x_max":322,"o":"m 317 574 q 322 557 322 565 q 293 501 322 519 q 233 483 264 483 l 226 483 q 229 461 229 476 q 197 390 229 424 q 108 357 165 357 q 32 391 64 357 q 0 472 0 425 q 31 571 0 519 q 122 622 61 622 q 174 592 174 622 q 171 574 174 578 q 202 558 185 571 q 232 546 219 546 q 257 557 246 546 q 300 582 279 582 q 317 574 308 582 m 131 551 q 82 523 97 544 q 67 478 67 501 q 79 441 67 456 q 111 426 92 426 q 152 442 138 426 q 167 479 167 458 q 163 496 167 488 q 128 538 128 508 q 131 551 128 547 z "},"":{"ha":376,"x_min":35,"x_max":342,"o":"m 211 192 q 189 181 200 181 q 167 206 167 181 q 238 315 167 240 q 243 326 243 321 q 236 338 243 331 q 167 447 167 410 q 188 472 167 472 q 218 454 197 472 q 267 410 225 447 q 322 361 310 374 q 342 328 342 342 q 319 290 342 313 q 211 192 318 289 m 79 199 q 57 188 68 188 q 35 213 35 188 q 99 315 35 247 q 104 326 104 321 q 97 338 104 331 q 35 440 35 403 q 56 465 35 465 q 86 447 65 465 q 132 407 93 440 q 183 361 171 374 q 203 328 203 342 q 181 290 203 313 q 153 264 171 281 l 113 228 l 79 199 z "},"":{"ha":599,"x_min":21,"x_max":578,"o":"m 104 685 q 138 633 138 685 q 131 426 131 543 q 131 397 131 419 q 132 363 132 375 q 90 321 132 321 q 51 379 51 321 q 56 597 51 540 q 21 632 21 600 q 38 661 21 650 q 104 685 75 685 m 442 713 q 469 703 457 713 q 482 679 482 694 q 475 653 482 664 q 132 26 433 589 l 128 17 q 122 8 124 10 l 117 0 q 112 -8 114 -6 q 106 -12 110 -10 q 99 -16 103 -15 q 90 -17 94 -17 q 57 -3 68 -17 q 46 21 46 10 q 51 39 46 25 q 111 153 57 53 l 225 364 l 340 574 q 394 674 394 672 q 442 713 415 713 m 544 174 l 549 174 q 578 139 578 174 q 544 104 578 104 l 544 68 q 545 56 544 64 q 546 43 546 47 q 535 10 546 22 q 507 -3 524 -3 q 479 8 490 -3 q 469 36 468 18 l 472 106 l 436 106 q 406 105 428 106 q 364 104 383 104 q 319 144 319 104 q 335 183 319 161 q 396 272 350 208 q 453 347 442 336 q 489 361 465 361 q 529 348 510 361 q 549 314 549 335 q 548 289 549 310 q 546 235 547 268 q 544 174 544 203 m 454 221 l 442 204 l 428 186 l 417 171 l 474 171 l 476 251 l 454 221 z "},"":{"ha":626,"x_min":21,"x_max":606,"o":"m 104 685 q 138 633 138 685 q 131 426 131 543 q 131 397 131 419 q 132 363 132 375 q 90 321 132 321 q 51 379 51 321 q 56 597 51 540 q 21 632 21 600 q 38 661 21 650 q 104 685 75 685 m 449 713 q 476 703 464 713 q 489 679 489 694 q 482 653 489 664 q 139 26 440 589 l 135 17 q 129 8 131 10 l 125 0 q 119 -8 121 -6 q 113 -12 117 -10 q 106 -16 110 -15 q 97 -17 101 -17 q 64 -3 75 -17 q 53 21 53 10 q 58 39 53 25 q 118 153 64 53 l 233 364 l 347 574 q 401 674 401 672 q 449 713 422 713 m 569 82 q 603 42 603 79 q 592 19 603 28 q 568 11 581 11 q 547 13 561 11 q 524 15 533 15 q 418 8 488 15 q 372 61 372 8 q 464 185 372 119 q 528 267 528 231 q 519 296 528 283 q 496 308 510 308 q 450 275 468 308 q 445 267 449 274 q 440 257 442 260 l 436 250 q 429 244 432 246 q 421 240 426 242 q 410 239 415 239 q 381 250 393 239 q 368 279 368 261 q 403 342 368 307 q 496 378 439 378 q 575 346 544 378 q 606 268 606 314 q 603 247 606 257 q 599 230 601 238 q 590 213 596 222 q 580 200 583 204 q 567 187 576 196 q 553 174 557 178 q 538 162 550 171 q 522 150 525 153 q 458 83 468 108 q 569 82 517 88 z "},"":{"ha":685,"x_min":21,"x_max":664,"o":"m 247 626 q 194 529 247 582 q 253 439 253 504 q 220 347 253 383 q 136 311 188 311 q 53 339 85 311 q 21 401 21 367 q 33 428 21 419 q 57 438 44 438 q 90 414 82 438 q 133 383 103 383 q 178 432 178 383 q 140 483 178 478 q 99 467 113 467 q 75 476 86 467 q 64 503 64 486 q 94 539 64 524 q 168 611 149 561 l 94 611 q 61 579 89 579 q 24 618 24 579 q 75 682 24 682 q 156 683 122 682 q 201 683 190 683 q 247 626 247 683 m 539 713 q 567 703 554 713 q 579 679 579 694 q 572 653 579 664 q 229 26 531 589 l 225 17 q 219 7 221 10 l 215 0 q 209 -8 211 -6 q 203 -12 207 -10 q 196 -16 200 -15 q 188 -17 192 -17 q 154 -3 165 -17 q 143 21 143 10 q 149 39 143 25 q 208 153 154 53 l 324 363 l 438 572 q 492 674 492 672 q 539 713 513 713 m 631 174 l 635 174 q 664 139 664 174 q 631 104 664 104 l 631 68 q 631 56 631 64 q 632 43 632 47 q 621 10 632 22 q 593 -3 610 -3 q 565 8 576 -3 q 556 36 554 18 l 558 106 l 522 106 q 492 105 514 106 q 450 104 469 104 q 406 144 406 104 q 421 183 406 161 q 482 272 436 208 q 539 347 528 336 q 575 361 551 361 q 615 348 596 361 q 635 314 635 335 q 634 289 635 310 q 632 235 633 268 q 631 174 631 203 m 540 221 l 529 204 l 515 186 l 503 171 l 560 171 l 563 251 l 540 221 z "},"":{"ha":714,"x_min":317,"x_max":714,"o":"m 503 -35 q 413 -15 451 -35 q 354 35 374 4 q 326 94 335 65 q 317 151 317 124 q 365 269 317 213 q 496 351 414 326 q 491 372 494 357 q 488 394 488 388 q 533 431 488 431 q 590 411 565 431 q 614 358 614 392 q 594 300 614 322 q 544 268 574 278 l 488 249 q 438 217 458 239 q 418 160 418 196 q 447 101 418 121 q 517 81 476 81 q 596 108 572 81 q 593 133 593 128 q 607 180 593 161 q 646 199 621 199 q 689 188 672 199 q 710 165 706 176 q 714 143 714 154 q 659 24 714 83 q 503 -35 604 -35 m 531 511 q 472 529 497 511 q 446 581 446 547 q 472 632 446 613 q 533 651 499 651 q 598 634 571 651 q 625 585 625 617 q 596 528 625 546 q 531 511 567 511 z "},"":{"ha":576,"x_min":14,"x_max":601,"o":"m 586 263 q 601 235 601 253 q 582 188 601 211 q 542 165 563 165 q 518 166 531 165 q 501 167 506 167 q 492 8 501 32 q 451 -14 482 -14 q 388 42 388 -14 q 390 167 388 97 q 153 150 231 164 l 149 115 q 142 74 146 92 q 133 38 139 57 q 117 10 128 19 q 90 0 106 0 q 34 17 47 0 q 21 68 21 35 q 33 144 21 94 q 14 197 14 161 q 56 242 14 225 q 282 625 138 542 q 353 646 319 646 q 465 569 429 646 q 501 276 499 501 q 586 263 560 276 m 175 257 q 392 274 217 261 q 379 467 389 407 q 340 528 369 528 q 315 521 329 528 q 175 257 225 475 m 415 740 q 421 725 421 733 q 414 708 421 714 q 399 701 407 701 q 341 725 379 701 q 281 778 303 749 q 272 801 272 789 q 282 827 272 815 q 311 839 292 839 q 364 805 332 839 q 415 740 396 771 z "},"":{"ha":576,"x_min":14,"x_max":601,"o":"m 586 263 q 601 235 601 253 q 582 188 601 211 q 542 165 563 165 q 518 166 531 165 q 501 167 506 167 q 492 8 501 32 q 451 -14 482 -14 q 388 42 388 -14 q 390 167 388 97 q 153 150 231 164 l 149 115 q 142 74 146 92 q 133 38 139 57 q 117 10 128 19 q 90 0 106 0 q 34 17 47 0 q 21 68 21 35 q 33 144 21 94 q 14 197 14 161 q 56 242 14 225 q 282 625 138 542 q 353 646 319 646 q 465 569 429 646 q 501 276 499 501 q 586 263 560 276 m 175 257 q 392 274 217 261 q 379 467 389 407 q 340 528 369 528 q 315 521 329 528 q 175 257 225 475 m 340 728 q 392 792 360 758 q 444 826 424 826 q 474 815 464 826 q 483 789 483 803 q 475 765 483 776 q 415 713 453 736 q 357 689 376 689 q 342 695 349 689 q 335 713 335 701 q 340 728 335 721 z "},"":{"ha":576,"x_min":14,"x_max":601,"o":"m 586 263 q 601 235 601 253 q 582 188 601 211 q 542 165 563 165 q 518 166 531 165 q 501 167 506 167 q 492 8 501 32 q 451 -14 482 -14 q 388 42 388 -14 q 390 167 388 97 q 153 150 231 164 l 149 115 q 142 74 146 92 q 133 38 139 57 q 117 10 128 19 q 90 0 106 0 q 34 17 47 0 q 21 68 21 35 q 33 144 21 94 q 14 197 14 161 q 56 242 14 225 q 282 625 138 542 q 353 646 319 646 q 465 569 429 646 q 501 276 499 501 q 586 263 560 276 m 175 257 q 392 274 217 261 q 379 467 389 407 q 340 528 369 528 q 315 521 329 528 q 175 257 225 475 m 461 735 q 463 728 463 732 q 451 703 463 715 q 426 692 439 692 q 369 739 406 692 q 361 728 367 736 l 351 717 q 342 705 349 711 q 331 694 336 699 q 319 688 326 690 q 306 685 313 685 q 273 696 289 685 q 257 719 257 707 q 300 777 257 738 q 367 817 343 817 q 417 788 386 817 q 461 735 447 760 z "},"":{"ha":576,"x_min":14,"x_max":601,"o":"m 586 263 q 601 235 601 253 q 582 188 601 211 q 542 165 563 165 q 518 166 531 165 q 501 167 506 167 q 492 8 501 32 q 451 -14 482 -14 q 388 42 388 -14 q 390 167 388 97 q 153 150 231 164 l 149 115 q 142 74 146 92 q 133 38 139 57 q 117 10 128 19 q 90 0 106 0 q 34 17 47 0 q 21 68 21 35 q 33 144 21 94 q 14 197 14 161 q 56 242 14 225 q 282 625 138 542 q 353 646 319 646 q 465 569 429 646 q 501 276 499 501 q 586 263 560 276 m 175 257 q 392 274 217 261 q 379 467 389 407 q 340 528 369 528 q 315 521 329 528 q 175 257 225 475 m 407 700 q 360 710 390 700 q 311 719 329 719 q 278 710 296 719 q 256 700 260 700 q 237 710 244 700 q 229 732 229 719 q 255 781 229 757 q 306 806 281 806 q 353 794 325 806 q 399 782 381 782 q 430 792 411 782 q 456 801 449 801 q 470 790 461 801 q 479 763 479 779 q 456 721 479 742 q 407 700 433 700 z "},"":{"ha":576,"x_min":14,"x_max":601,"o":"m 586 263 q 601 235 601 253 q 582 188 601 211 q 542 165 563 165 q 518 166 531 165 q 501 167 506 167 q 492 8 501 32 q 451 -14 482 -14 q 388 42 388 -14 q 390 167 388 97 q 153 150 231 164 l 149 115 q 142 74 146 92 q 133 38 139 57 q 117 10 128 19 q 90 0 106 0 q 34 17 47 0 q 21 68 21 35 q 33 144 21 94 q 14 197 14 161 q 56 242 14 225 q 282 625 138 542 q 353 646 319 646 q 465 569 429 646 q 501 276 499 501 q 586 263 560 276 m 175 257 q 392 274 217 261 q 379 467 389 407 q 340 528 369 528 q 315 521 329 528 q 175 257 225 475 m 292 786 l 299 786 q 328 774 315 786 q 340 740 340 763 q 322 704 340 718 q 286 690 303 690 q 240 733 240 690 q 256 770 240 756 q 292 786 272 785 m 425 789 q 456 774 440 789 q 471 740 471 758 q 456 706 471 722 q 414 690 440 690 q 382 703 394 690 q 369 735 369 717 q 387 774 369 760 q 425 789 404 789 z "},"":{"ha":576,"x_min":14,"x_max":601,"o":"m 586 263 q 601 235 601 253 q 582 188 601 211 q 542 165 563 165 q 518 166 531 165 q 501 167 506 167 q 492 8 501 32 q 451 -14 482 -14 q 388 42 388 -14 q 390 167 388 97 q 153 150 231 164 l 149 115 q 142 74 146 92 q 133 38 139 57 q 117 10 128 19 q 90 0 106 0 q 34 17 47 0 q 21 68 21 35 q 33 144 21 94 q 14 197 14 161 q 56 242 14 225 q 282 625 138 542 q 353 646 319 646 q 465 569 429 646 q 501 276 499 501 q 586 263 560 276 m 175 257 q 392 274 217 261 q 379 467 389 407 q 340 528 369 528 q 315 521 329 528 q 175 257 225 475 m 332 779 q 342 758 332 767 q 364 750 351 750 q 388 760 378 750 q 397 783 397 769 q 388 801 397 793 q 381 817 379 810 q 332 779 336 814 m 274 769 q 303 844 274 818 q 369 871 333 871 q 414 846 401 871 q 444 828 431 846 q 457 786 457 810 q 431 718 457 744 q 356 692 406 692 q 297 713 319 692 q 274 769 274 733 z "},"":{"ha":826,"x_min":14,"x_max":861,"o":"m 525 447 q 558 385 525 406 q 632 364 590 364 q 674 322 674 364 q 659 277 674 300 q 618 254 644 254 q 571 263 596 254 q 520 229 538 257 q 503 167 503 201 q 624 72 503 72 q 702 84 669 72 q 789 132 735 96 q 815 142 803 142 q 849 126 836 142 q 861 93 861 111 q 838 44 861 65 q 615 -28 764 -28 q 446 19 510 -28 q 382 160 382 65 l 382 167 q 171 150 267 167 q 163 106 168 139 q 154 54 158 74 q 136 17 150 35 q 100 0 122 0 q 45 17 57 0 q 35 68 33 35 q 49 136 35 93 q 24 153 35 136 q 14 194 14 171 q 34 226 14 213 q 78 242 54 240 q 325 625 178 543 q 403 646 363 646 q 490 606 467 646 q 629 646 549 646 q 761 609 710 646 q 813 503 813 572 q 791 432 813 460 q 732 404 769 404 q 690 417 708 404 q 672 451 672 431 q 687 487 672 469 q 701 507 701 504 q 680 531 701 521 q 626 542 658 542 q 554 517 583 542 q 525 447 525 493 m 378 528 q 272 435 328 528 q 199 257 217 343 q 419 272 318 268 q 481 318 442 301 q 411 460 411 361 q 414 489 411 475 q 378 528 408 528 z "},"":{"ha":653,"x_min":42,"x_max":611,"o":"m 507 188 q 567 215 535 215 q 599 203 586 215 q 611 174 611 190 q 604 147 611 165 q 579 101 597 129 q 535 47 561 72 q 463 1 508 21 q 364 -25 418 -19 q 379 -52 360 -40 q 420 -85 399 -64 q 442 -143 442 -106 q 416 -198 442 -174 q 347 -222 390 -222 q 239 -167 275 -222 q 235 -154 235 -161 q 256 -135 235 -135 q 285 -145 265 -135 q 317 -156 304 -156 q 350 -132 350 -156 q 326 -97 350 -118 q 294 -49 294 -69 q 297 -26 294 -37 q 108 64 174 -17 q 42 271 42 144 q 139 532 42 418 q 397 646 236 646 q 582 456 582 646 q 563 404 582 425 q 508 383 544 383 q 447 431 447 383 q 452 461 447 442 q 457 488 457 481 q 439 521 457 507 q 386 535 421 535 q 208 424 274 535 q 172 214 150 322 q 289 82 193 104 q 333 76 310 76 q 401 90 371 76 q 447 117 432 103 q 481 156 461 132 q 507 188 500 181 z "},"":{"ha":479,"x_min":35,"x_max":514,"o":"m 178 447 q 210 385 178 406 q 285 364 243 364 q 326 322 326 364 q 312 277 326 300 q 271 254 297 254 q 224 263 249 254 q 173 229 190 257 q 156 167 156 201 q 276 72 156 72 q 355 84 322 72 q 442 132 388 96 q 468 142 456 142 q 501 126 489 142 q 514 93 514 111 q 490 44 514 65 q 268 -28 417 -28 q 99 19 163 -28 q 35 160 35 65 q 60 256 35 213 q 133 318 86 299 q 64 460 64 361 q 124 590 64 535 q 282 646 185 646 q 414 609 363 646 q 465 503 465 572 q 444 432 465 460 q 385 404 422 404 q 343 417 361 404 q 325 451 325 431 q 340 487 325 469 q 354 507 354 504 q 333 531 354 521 q 279 542 311 542 q 207 517 236 542 q 178 447 178 493 m 335 735 q 340 719 340 728 q 333 702 340 708 q 318 696 326 696 q 260 719 299 696 q 200 772 222 743 q 192 796 192 783 q 201 822 192 810 q 231 833 211 833 q 283 799 251 833 q 335 735 315 765 z "},"":{"ha":479,"x_min":35,"x_max":514,"o":"m 178 447 q 210 385 178 406 q 285 364 243 364 q 326 322 326 364 q 312 277 326 300 q 271 254 297 254 q 224 263 249 254 q 173 229 190 257 q 156 167 156 201 q 276 72 156 72 q 355 84 322 72 q 442 132 388 96 q 468 142 456 142 q 501 126 489 142 q 514 93 514 111 q 490 44 514 65 q 268 -28 417 -28 q 99 19 163 -28 q 35 160 35 65 q 60 256 35 213 q 133 318 86 299 q 64 460 64 361 q 124 590 64 535 q 282 646 185 646 q 414 609 363 646 q 465 503 465 572 q 444 432 465 460 q 385 404 422 404 q 343 417 361 404 q 325 451 325 431 q 340 487 325 469 q 354 507 354 504 q 333 531 354 521 q 279 542 311 542 q 207 517 236 542 q 178 447 178 493 m 240 724 q 292 788 260 754 q 344 822 324 822 q 374 810 364 822 q 383 785 383 799 q 375 761 383 772 q 315 708 353 732 q 257 685 276 685 q 242 691 249 685 q 235 708 235 697 q 240 724 235 717 z "},"":{"ha":479,"x_min":35,"x_max":514,"o":"m 178 447 q 210 385 178 406 q 285 364 243 364 q 326 322 326 364 q 312 277 326 300 q 271 254 297 254 q 224 263 249 254 q 173 229 190 257 q 156 167 156 201 q 276 72 156 72 q 355 84 322 72 q 442 132 388 96 q 468 142 456 142 q 501 126 489 142 q 514 93 514 111 q 490 44 514 65 q 268 -28 417 -28 q 99 19 163 -28 q 35 160 35 65 q 60 256 35 213 q 133 318 86 299 q 64 460 64 361 q 124 590 64 535 q 282 646 185 646 q 414 609 363 646 q 465 503 465 572 q 444 432 465 460 q 385 404 422 404 q 343 417 361 404 q 325 451 325 431 q 340 487 325 469 q 354 507 354 504 q 333 531 354 521 q 279 542 311 542 q 207 517 236 542 q 178 447 178 493 m 378 739 q 379 732 379 736 q 367 708 379 719 q 343 696 356 696 q 286 743 322 696 q 278 733 283 740 l 268 721 q 259 709 265 715 q 248 699 253 703 q 236 692 243 694 q 222 689 229 689 q 190 700 206 689 q 174 724 174 711 q 217 781 174 742 q 283 821 260 821 q 333 792 303 821 q 378 739 364 764 z "},"":{"ha":479,"x_min":35,"x_max":514,"o":"m 178 447 q 210 385 178 406 q 285 364 243 364 q 326 322 326 364 q 312 277 326 300 q 271 254 297 254 q 224 263 249 254 q 173 229 190 257 q 156 167 156 201 q 276 72 156 72 q 355 84 322 72 q 442 132 388 96 q 468 142 456 142 q 501 126 489 142 q 514 93 514 111 q 490 44 514 65 q 268 -28 417 -28 q 99 19 163 -28 q 35 160 35 65 q 60 256 35 213 q 133 318 86 299 q 64 460 64 361 q 124 590 64 535 q 282 646 185 646 q 414 609 363 646 q 465 503 465 572 q 444 432 465 460 q 385 404 422 404 q 343 417 361 404 q 325 451 325 431 q 340 487 325 469 q 354 507 354 504 q 333 531 354 521 q 279 542 311 542 q 207 517 236 542 q 178 447 178 493 m 207 790 l 214 790 q 243 778 231 790 q 256 744 256 767 q 237 708 256 722 q 201 694 218 694 q 156 738 156 694 q 172 774 156 760 q 207 790 188 789 m 360 793 q 390 778 375 793 q 406 744 406 763 q 390 710 406 726 q 349 694 375 694 q 317 708 329 694 q 304 739 304 721 q 322 778 304 764 q 360 793 339 793 z "},"":{"ha":368,"x_min":7,"x_max":310,"o":"m 79 244 q 26 289 46 244 q 7 394 7 333 q 50 568 7 490 q 171 646 93 646 q 276 560 243 646 q 310 342 310 475 q 271 38 310 181 q 260 6 265 18 q 244 -17 256 -6 q 214 -28 232 -28 q 166 -10 186 -28 q 146 28 146 7 q 151 58 146 42 q 197 361 197 196 q 156 524 197 524 q 129 489 140 524 q 118 411 118 454 q 136 311 118 347 q 140 294 140 303 q 121 260 140 275 q 79 244 101 244 m 210 749 q 215 733 215 742 q 208 716 215 722 q 193 710 201 710 q 135 733 174 710 q 75 786 97 757 q 67 810 67 797 q 76 835 67 824 q 106 847 86 847 q 158 813 126 847 q 210 749 190 779 z "},"":{"ha":368,"x_min":7,"x_max":310,"o":"m 79 244 q 26 289 46 244 q 7 394 7 333 q 50 568 7 490 q 171 646 93 646 q 276 560 243 646 q 310 342 310 475 q 271 38 310 181 q 260 6 265 18 q 244 -17 256 -6 q 214 -28 232 -28 q 166 -10 186 -28 q 146 28 146 7 q 151 58 146 42 q 197 361 197 196 q 156 524 197 524 q 129 489 140 524 q 118 411 118 454 q 136 311 118 347 q 140 294 140 303 q 121 260 140 275 q 79 244 101 244 m 143 746 q 194 810 163 776 q 247 844 226 844 q 276 833 267 844 q 286 807 286 821 q 278 783 286 794 q 217 731 256 754 q 160 707 179 707 q 144 713 151 707 q 138 731 138 719 q 143 746 138 739 z "},"":{"ha":368,"x_min":7,"x_max":310,"o":"m 79 244 q 26 289 46 244 q 7 394 7 333 q 50 568 7 490 q 171 646 93 646 q 276 560 243 646 q 310 342 310 475 q 271 38 310 181 q 260 6 265 18 q 244 -17 256 -6 q 214 -28 232 -28 q 166 -10 186 -28 q 146 28 146 7 q 151 58 146 42 q 197 361 197 196 q 156 524 197 524 q 129 489 140 524 q 118 411 118 454 q 136 311 118 347 q 140 294 140 303 q 121 260 140 275 q 79 244 101 244 m 271 760 q 272 753 272 757 q 260 728 272 740 q 236 717 249 717 q 179 764 215 717 q 171 754 176 761 l 161 742 q 152 730 158 736 q 141 719 146 724 q 129 713 136 715 q 115 710 122 710 q 83 721 99 710 q 67 744 67 732 q 110 802 67 763 q 176 842 153 842 q 226 813 196 842 q 271 760 257 785 z "},"":{"ha":368,"x_min":7,"x_max":310,"o":"m 79 244 q 26 289 46 244 q 7 394 7 333 q 50 568 7 490 q 171 646 93 646 q 276 560 243 646 q 310 342 310 475 q 271 38 310 181 q 260 6 265 18 q 244 -17 256 -6 q 214 -28 232 -28 q 166 -10 186 -28 q 146 28 146 7 q 151 58 146 42 q 197 361 197 196 q 156 524 197 524 q 129 489 140 524 q 118 411 118 454 q 136 311 118 347 q 140 294 140 303 q 121 260 140 275 q 79 244 101 244 m 115 800 l 122 800 q 151 788 139 800 q 164 754 164 776 q 145 718 164 732 q 110 704 126 704 q 64 747 64 704 q 80 784 64 769 q 115 800 96 799 m 249 803 q 279 788 264 803 q 294 754 294 772 q 279 720 294 736 q 238 704 264 704 q 206 717 218 704 q 193 749 193 731 q 210 788 193 774 q 249 803 228 803 z "},"":{"ha":674,"x_min":-28,"x_max":618,"o":"m 264 246 l 185 246 q 183 167 183 218 q 197 102 183 121 q 243 83 210 83 q 422 150 333 83 q 510 335 510 217 q 438 482 510 422 q 250 542 367 542 q 144 528 190 542 q 68 500 97 514 q 21 486 39 486 q -14 506 0 486 q -28 551 -28 525 q 48 618 -28 590 q 229 646 124 646 q 506 569 394 646 q 618 340 618 493 q 582 171 618 244 q 488 56 546 97 q 364 -7 429 14 q 232 -28 299 -28 q 69 69 69 -28 q 71 130 69 82 q 72 208 72 178 l 72 247 l 44 249 q 0 292 0 253 q 8 320 0 310 q 24 333 17 331 q 44 336 32 335 l 69 338 l 69 403 q 81 460 69 440 q 128 479 93 479 q 177 463 156 479 q 199 417 199 447 q 197 401 199 413 q 194 373 196 390 q 192 342 193 356 l 253 344 q 313 337 294 346 q 331 299 331 328 q 264 246 331 246 z "},"":{"ha":667,"x_min":-62,"x_max":667,"o":"m 553 149 q 571 74 553 99 q 610 47 589 49 q 649 36 631 44 q 667 7 667 28 q 590 -49 667 -49 q 440 111 440 -49 q 456 317 440 192 q 472 465 472 443 q 462 501 472 489 q 438 514 451 514 q 356 456 396 514 q 287 315 315 397 q 241 164 258 233 q 218 56 224 94 q 211 17 215 29 q 191 -4 207 6 q 144 -14 175 -14 q 97 35 97 -14 q 101 184 97 58 q 104 371 104 310 q 76 528 104 528 q 38 490 61 528 q -7 451 14 451 q -62 499 -62 451 q -16 590 -62 540 q 106 639 31 639 q 197 563 185 639 q 203 488 203 526 q 201 406 203 449 q 199 347 199 364 q 301 560 235 474 q 451 646 368 646 q 553 609 515 646 q 590 500 590 572 q 572 342 590 458 q 553 149 553 226 m 407 706 q 360 715 390 706 q 311 725 329 725 q 278 715 296 725 q 256 706 260 706 q 237 715 244 706 q 229 738 229 725 q 255 787 229 763 q 306 811 281 811 q 353 799 325 811 q 399 788 381 788 q 430 797 411 788 q 456 807 449 807 q 470 796 461 807 q 479 768 479 785 q 456 726 479 747 q 407 706 433 706 z "},"":{"ha":676,"x_min":42,"x_max":635,"o":"m 482 554 q 635 300 635 497 q 547 54 635 136 q 339 -28 458 -28 q 233 -14 282 -28 q 140 31 185 0 q 68 124 94 63 q 42 271 42 185 q 76 434 42 351 q 185 579 110 517 q 360 642 261 642 q 446 622 410 642 q 482 564 482 603 l 482 554 m 400 525 q 286 497 335 524 q 213 428 238 469 q 176 345 188 386 q 165 264 165 304 q 212 124 165 172 q 325 75 258 75 q 458 131 399 75 q 518 281 518 188 q 435 442 518 376 q 397 504 397 468 q 400 525 397 511 m 424 739 q 429 724 429 732 q 422 706 429 713 q 407 700 415 700 q 349 724 388 700 q 289 776 311 747 q 281 800 281 788 q 290 826 281 814 q 319 838 300 838 q 372 803 340 838 q 424 739 404 769 z "},"":{"ha":676,"x_min":42,"x_max":635,"o":"m 482 554 q 635 300 635 497 q 547 54 635 136 q 339 -28 458 -28 q 233 -14 282 -28 q 140 31 185 0 q 68 124 94 63 q 42 271 42 185 q 76 434 42 351 q 185 579 110 517 q 360 642 261 642 q 446 622 410 642 q 482 564 482 603 l 482 554 m 400 525 q 286 497 335 524 q 213 428 238 469 q 176 345 188 386 q 165 264 165 304 q 212 124 165 172 q 325 75 258 75 q 458 131 399 75 q 518 281 518 188 q 435 442 518 376 q 397 504 397 468 q 400 525 397 511 m 315 725 q 367 790 335 756 q 419 824 399 824 q 449 812 439 824 q 458 786 458 800 q 450 763 458 774 q 390 710 428 733 q 332 686 351 686 q 317 692 324 686 q 310 710 310 699 q 315 725 310 718 z "},"":{"ha":676,"x_min":42,"x_max":635,"o":"m 482 554 q 635 300 635 497 q 547 54 635 136 q 339 -28 458 -28 q 233 -14 282 -28 q 140 31 185 0 q 68 124 94 63 q 42 271 42 185 q 76 434 42 351 q 185 579 110 517 q 360 642 261 642 q 446 622 410 642 q 482 564 482 603 l 482 554 m 400 525 q 286 497 335 524 q 213 428 238 469 q 176 345 188 386 q 165 264 165 304 q 212 124 165 172 q 325 75 258 75 q 458 131 399 75 q 518 281 518 188 q 435 442 518 376 q 397 504 397 468 q 400 525 397 511 m 469 744 q 471 738 471 742 q 459 713 471 725 q 435 701 447 701 q 378 749 414 701 q 369 739 375 746 l 360 725 q 351 715 357 721 q 340 704 344 708 q 328 697 335 700 q 314 694 321 694 q 281 706 297 694 q 265 729 265 717 q 308 787 265 747 q 375 826 351 826 q 425 798 394 826 q 469 744 456 769 z "},"":{"ha":676,"x_min":42,"x_max":635,"o":"m 482 554 q 635 300 635 497 q 547 54 635 136 q 339 -28 458 -28 q 233 -14 282 -28 q 140 31 185 0 q 68 124 94 63 q 42 271 42 185 q 76 434 42 351 q 185 579 110 517 q 360 642 261 642 q 446 622 410 642 q 482 564 482 603 l 482 554 m 400 525 q 286 497 335 524 q 213 428 238 469 q 176 345 188 386 q 165 264 165 304 q 212 124 165 172 q 325 75 258 75 q 458 131 399 75 q 518 281 518 188 q 435 442 518 376 q 397 504 397 468 q 400 525 397 511 m 407 694 q 360 704 390 694 q 311 714 329 714 q 278 704 296 714 q 256 694 260 694 q 237 704 244 694 q 229 726 229 714 q 255 776 229 751 q 306 800 281 800 q 353 788 325 800 q 399 776 381 776 q 430 786 411 776 q 456 796 449 796 q 470 785 461 796 q 479 757 479 774 q 456 715 479 736 q 407 694 433 694 z "},"":{"ha":676,"x_min":42,"x_max":635,"o":"m 482 554 q 635 300 635 497 q 547 54 635 136 q 339 -28 458 -28 q 233 -14 282 -28 q 140 31 185 0 q 68 124 94 63 q 42 271 42 185 q 76 434 42 351 q 185 579 110 517 q 360 642 261 642 q 446 622 410 642 q 482 564 482 603 l 482 554 m 400 525 q 286 497 335 524 q 213 428 238 469 q 176 345 188 386 q 165 264 165 304 q 212 124 165 172 q 325 75 258 75 q 458 131 399 75 q 518 281 518 188 q 435 442 518 376 q 397 504 397 468 q 400 525 397 511 m 283 804 l 290 804 q 319 792 307 804 q 332 758 332 781 q 313 722 332 736 q 278 708 294 708 q 232 751 232 708 q 248 788 232 774 q 283 804 264 803 m 436 807 q 467 792 451 807 q 482 758 482 776 q 467 724 482 740 q 425 708 451 708 q 393 722 406 708 q 381 753 381 735 q 398 792 381 778 q 436 807 415 807 z "},"":{"ha":471,"x_min":47,"x_max":415,"o":"m 283 435 q 303 456 283 435 q 335 485 324 476 q 361 493 346 493 q 393 480 376 493 q 410 444 410 467 q 396 409 410 426 q 347 360 382 392 l 297 311 l 363 253 l 372 243 l 388 228 q 401 213 393 222 q 412 194 408 203 q 415 176 415 185 q 399 140 415 156 q 361 125 382 125 q 334 135 349 125 q 307 157 319 144 q 269 196 294 169 l 226 242 l 183 197 l 153 165 l 132 144 q 113 132 121 135 q 96 129 106 129 q 63 146 79 129 q 47 182 47 163 q 51 199 47 190 q 65 220 54 208 q 85 242 75 232 l 117 272 l 157 311 q 128 338 150 318 q 97 367 107 357 l 74 390 q 54 415 60 406 q 49 432 49 425 q 65 468 49 450 q 101 486 82 486 q 228 382 139 486 q 283 435 242 394 z "},"":{"ha":669,"x_min":42,"x_max":628,"o":"m 360 642 q 449 619 414 642 l 464 647 q 503 679 481 679 q 545 665 529 679 q 561 632 561 650 q 542 589 561 622 l 514 540 q 628 300 628 478 q 542 53 628 135 q 339 -28 457 -28 q 224 -11 281 -28 l 217 -26 q 194 -67 203 -57 q 172 -76 186 -76 q 128 -64 144 -76 q 111 -35 111 -51 q 124 0 111 -21 l 140 29 q 42 271 42 106 q 76 434 42 351 q 185 579 110 517 q 360 642 261 642 m 511 281 q 454 432 511 388 l 271 82 q 331 74 288 74 q 460 132 410 74 q 511 281 511 190 m 165 264 q 194 138 165 178 l 397 522 q 267 487 322 528 q 189 387 213 446 q 165 264 165 328 z "},"":{"ha":660,"x_min":-62,"x_max":611,"o":"m 97 479 q 76 528 97 528 q 51 508 63 528 q 26 469 40 489 q -10 450 13 450 q -50 463 -37 450 q -62 493 -62 476 q -15 591 -62 536 q 113 646 33 646 q 211 510 211 646 q 204 399 211 489 q 197 228 197 308 q 222 122 197 150 q 293 94 247 94 q 415 165 358 94 q 472 339 472 235 q 476 565 472 489 q 538 625 481 625 q 579 609 568 625 q 590 554 590 593 q 585 397 590 539 q 579 208 579 256 q 606 50 579 124 q 611 26 611 35 q 590 -14 611 0 q 547 -28 569 -28 q 478 114 478 -28 q 395 19 440 53 q 271 -14 350 -14 q 83 188 83 -14 q 90 347 83 244 q 97 479 97 449 m 403 717 q 408 701 408 710 q 401 684 408 690 q 386 678 394 678 q 328 701 367 678 q 268 754 290 725 q 260 778 260 765 q 269 803 260 792 q 299 815 279 815 q 351 781 319 815 q 403 717 383 747 z "},"":{"ha":660,"x_min":-62,"x_max":611,"o":"m 97 479 q 76 528 97 528 q 51 508 63 528 q 26 469 40 489 q -10 450 13 450 q -50 463 -37 450 q -62 493 -62 476 q -15 591 -62 536 q 113 646 33 646 q 211 510 211 646 q 204 399 211 489 q 197 228 197 308 q 222 122 197 150 q 293 94 247 94 q 415 165 358 94 q 472 339 472 235 q 476 565 472 489 q 538 625 481 625 q 579 609 568 625 q 590 554 590 593 q 585 397 590 539 q 579 208 579 256 q 606 50 579 124 q 611 26 611 35 q 590 -14 611 0 q 547 -28 569 -28 q 478 114 478 -28 q 395 19 440 53 q 271 -14 350 -14 q 83 188 83 -14 q 90 347 83 244 q 97 479 97 449 m 294 711 q 346 776 314 742 q 399 810 378 810 q 428 798 418 810 q 438 772 438 786 q 429 749 438 760 q 369 696 407 719 q 311 672 331 672 q 296 678 303 672 q 289 696 289 685 q 294 711 289 704 z "},"":{"ha":660,"x_min":-62,"x_max":611,"o":"m 97 479 q 76 528 97 528 q 51 508 63 528 q 26 469 40 489 q -10 450 13 450 q -50 463 -37 450 q -62 493 -62 476 q -15 591 -62 536 q 113 646 33 646 q 211 510 211 646 q 204 399 211 489 q 197 228 197 308 q 222 122 197 150 q 293 94 247 94 q 415 165 358 94 q 472 339 472 235 q 476 565 472 489 q 538 625 481 625 q 579 609 568 625 q 590 554 590 593 q 585 397 590 539 q 579 208 579 256 q 606 50 579 124 q 611 26 611 35 q 590 -14 611 0 q 547 -28 569 -28 q 478 114 478 -28 q 395 19 440 53 q 271 -14 350 -14 q 83 188 83 -14 q 90 347 83 244 q 97 479 97 449 m 450 725 q 451 718 451 722 q 440 694 451 706 q 415 682 428 682 q 358 729 394 682 q 350 719 356 726 l 340 706 q 331 695 338 701 q 320 685 325 689 q 308 678 315 681 q 294 675 301 675 q 262 686 278 675 q 246 710 246 697 q 289 767 246 728 q 356 807 332 807 q 406 778 375 807 q 450 725 436 750 z "},"":{"ha":660,"x_min":-62,"x_max":611,"o":"m 97 479 q 76 528 97 528 q 51 508 63 528 q 26 469 40 489 q -10 450 13 450 q -50 463 -37 450 q -62 493 -62 476 q -15 591 -62 536 q 113 646 33 646 q 211 510 211 646 q 204 399 211 489 q 197 228 197 308 q 222 122 197 150 q 293 94 247 94 q 415 165 358 94 q 472 339 472 235 q 476 565 472 489 q 538 625 481 625 q 579 609 568 625 q 590 554 590 593 q 585 397 590 539 q 579 208 579 256 q 606 50 579 124 q 611 26 611 35 q 590 -14 611 0 q 547 -28 569 -28 q 478 114 478 -28 q 395 19 440 53 q 271 -14 350 -14 q 83 188 83 -14 q 90 347 83 244 q 97 479 97 449 m 274 803 l 281 803 q 310 791 297 803 q 322 757 322 779 q 303 721 322 735 q 268 707 285 707 q 222 750 222 707 q 238 787 222 772 q 274 803 254 801 m 426 806 q 457 790 442 806 q 472 757 472 775 q 457 723 472 739 q 415 707 442 707 q 383 720 396 707 q 371 751 371 733 q 388 791 371 776 q 426 806 406 806 z "},"":{"ha":618,"x_min":-62,"x_max":694,"o":"m 594 112 q 609 124 594 112 q 647 136 625 136 q 682 124 669 136 q 694 92 694 111 q 639 14 694 47 q 525 -37 585 -18 q 476 -219 531 -146 q 319 -292 421 -292 q 188 -181 188 -292 q 421 36 188 -46 q 422 85 421 54 q 423 144 422 117 q 425 196 424 171 q 345 78 400 129 q 219 28 290 28 q 56 194 56 28 q 75 336 56 228 q 94 489 94 444 q 76 529 94 529 q 57 517 67 529 q 39 489 47 504 q 16 461 31 474 q -17 449 1 449 q -51 464 -40 449 q -62 500 -62 479 q -15 590 -62 535 q 107 646 32 646 q 201 514 201 646 q 183 358 201 461 q 164 208 164 256 q 177 151 164 169 q 225 132 190 132 q 331 211 283 132 q 403 390 379 290 q 419 569 419 460 q 437 607 419 592 q 488 622 454 622 q 544 572 544 622 q 535 491 544 558 q 524 389 526 424 q 522 72 514 253 q 594 112 563 88 m 333 -183 q 363 -176 346 -183 q 400 -142 381 -169 q 422 -69 419 -114 q 338 -108 369 -79 q 306 -160 306 -136 q 333 -183 306 -183 m 264 713 q 315 777 283 743 q 368 811 347 811 q 397 799 388 811 q 407 774 407 788 q 399 750 407 761 q 338 697 376 721 q 281 674 300 674 q 265 680 272 674 q 258 697 258 686 q 264 713 258 706 z "},"":{"ha":572,"x_min":-14,"x_max":572,"o":"m 572 363 q 522 212 572 276 q 400 117 471 147 q 253 88 329 88 q 193 97 226 88 q 195 63 193 89 q 199 15 197 36 q 200 -14 200 -7 q 147 -69 200 -69 q 81 7 81 -69 l 81 153 q 78 254 81 186 q 75 329 75 322 q 67 322 74 328 q 51 313 60 317 q 32 310 43 310 q 0 329 14 310 q -14 367 -14 349 q -1 401 -14 386 q 75 465 18 425 q 88 649 75 603 q 149 696 100 696 q 187 683 174 696 q 200 653 200 669 q 197 599 200 643 q 192 531 193 556 q 347 560 261 560 q 502 509 432 560 q 572 363 572 458 m 214 186 q 228 185 219 186 q 249 185 236 185 q 316 193 282 185 q 383 219 350 201 q 438 272 417 236 q 458 354 458 307 q 428 434 458 403 q 340 465 399 465 q 189 424 256 465 q 189 183 182 304 q 214 186 203 186 z "},"":{"ha":535,"x_min":0,"x_max":500,"o":"m 39 -62 q 11 -52 22 -62 q 0 -25 0 -42 q 23 66 0 0 q 46 218 46 132 q 36 332 46 269 q 26 436 26 394 q 85 623 26 550 q 238 696 144 696 q 365 660 314 696 q 417 549 417 624 q 394 471 417 507 q 348 405 371 435 q 325 350 325 375 q 352 310 325 331 q 413 274 379 290 q 473 223 446 257 q 500 144 500 189 q 438 8 500 60 q 285 -43 376 -43 q 188 -23 221 -43 q 156 29 156 -3 q 169 72 156 53 q 201 90 183 90 q 252 74 219 90 q 313 58 285 58 q 385 131 385 58 q 358 194 385 165 q 299 238 332 222 q 240 283 267 254 q 214 349 214 313 q 256 446 214 378 q 299 549 299 514 q 281 586 299 572 q 238 600 264 600 q 166 563 196 600 q 136 440 136 525 q 145 335 136 410 q 154 208 154 261 q 90 -42 154 22 q 39 -62 69 -62 z "},"":{"ha":447,"x_min":0,"x_max":524,"o":"m 479 136 q 511 124 499 136 q 524 97 524 111 q 497 40 524 67 q 354 -24 433 -24 q 286 -8 315 -24 q 247 28 257 7 q 197 -4 231 10 q 132 -18 164 -18 q 39 17 78 -18 q 0 115 0 53 q 67 278 0 201 q 222 356 133 356 q 299 326 264 356 q 358 300 358 326 q 345 193 358 264 q 332 117 332 122 q 361 79 332 79 q 424 108 386 79 q 479 136 461 136 m 149 93 q 233 139 192 93 q 253 225 253 161 q 246 242 253 235 q 229 249 239 249 q 144 214 181 249 q 107 140 107 179 q 149 93 107 94 m 299 439 q 304 424 304 432 q 297 406 304 413 q 282 400 290 400 q 224 424 263 400 q 164 476 186 447 q 156 500 156 488 q 165 526 156 514 q 194 538 175 538 q 247 503 215 538 q 299 439 279 469 z "},"":{"ha":447,"x_min":0,"x_max":524,"o":"m 479 136 q 511 124 499 136 q 524 97 524 111 q 497 40 524 67 q 354 -24 433 -24 q 286 -8 315 -24 q 247 28 257 7 q 197 -4 231 10 q 132 -18 164 -18 q 39 17 78 -18 q 0 115 0 53 q 67 278 0 201 q 222 356 133 356 q 299 326 264 356 q 358 300 358 326 q 345 193 358 264 q 332 117 332 122 q 361 79 332 79 q 424 108 386 79 q 479 136 461 136 m 149 93 q 233 139 192 93 q 253 225 253 161 q 246 242 253 235 q 229 249 239 249 q 144 214 181 249 q 107 140 107 179 q 149 93 107 94 m 169 432 q 221 497 189 463 q 274 531 253 531 q 303 519 293 531 q 313 493 313 507 q 304 469 313 481 q 244 417 282 440 q 186 393 206 393 q 171 399 178 393 q 164 417 164 406 q 169 432 164 425 z "},"":{"ha":447,"x_min":0,"x_max":524,"o":"m 479 136 q 511 124 499 136 q 524 97 524 111 q 497 40 524 67 q 354 -24 433 -24 q 286 -8 315 -24 q 247 28 257 7 q 197 -4 231 10 q 132 -18 164 -18 q 39 17 78 -18 q 0 115 0 53 q 67 278 0 201 q 222 356 133 356 q 299 326 264 356 q 358 300 358 326 q 345 193 358 264 q 332 117 332 122 q 361 79 332 79 q 424 108 386 79 q 479 136 461 136 m 149 93 q 233 139 192 93 q 253 225 253 161 q 246 242 253 235 q 229 249 239 249 q 144 214 181 249 q 107 140 107 179 q 149 93 107 94 m 340 450 q 342 443 342 447 q 330 419 342 431 q 306 407 318 407 q 249 454 285 407 q 240 444 246 451 l 231 432 q 222 420 228 426 q 210 410 215 414 q 199 403 206 406 q 185 400 192 400 q 152 411 168 400 q 136 435 136 422 q 179 492 136 453 q 246 532 222 532 q 296 503 265 532 q 340 450 326 475 z "},"":{"ha":447,"x_min":0,"x_max":524,"o":"m 479 136 q 511 124 499 136 q 524 97 524 111 q 497 40 524 67 q 354 -24 433 -24 q 286 -8 315 -24 q 247 28 257 7 q 197 -4 231 10 q 132 -18 164 -18 q 39 17 78 -18 q 0 115 0 53 q 67 278 0 201 q 222 356 133 356 q 299 326 264 356 q 358 300 358 326 q 345 193 358 264 q 332 117 332 122 q 361 79 332 79 q 424 108 386 79 q 479 136 461 136 m 149 93 q 233 139 192 93 q 253 225 253 161 q 246 242 253 235 q 229 249 239 249 q 144 214 181 249 q 107 140 107 179 q 149 93 107 94 m 282 411 q 235 421 265 411 q 186 431 204 431 q 153 421 171 431 q 131 411 135 411 q 112 421 119 411 q 104 443 104 431 q 130 492 104 468 q 181 517 156 517 q 228 505 200 517 q 274 493 256 493 q 305 503 286 493 q 331 513 324 513 q 345 501 336 513 q 354 474 354 490 q 331 432 354 453 q 282 411 308 411 z "},"":{"ha":447,"x_min":0,"x_max":524,"o":"m 479 136 q 511 124 499 136 q 524 97 524 111 q 497 40 524 67 q 354 -24 433 -24 q 286 -8 315 -24 q 247 28 257 7 q 197 -4 231 10 q 132 -18 164 -18 q 39 17 78 -18 q 0 115 0 53 q 67 278 0 201 q 222 356 133 356 q 299 326 264 356 q 358 300 358 326 q 345 193 358 264 q 332 117 332 122 q 361 79 332 79 q 424 108 386 79 q 479 136 461 136 m 149 93 q 233 139 192 93 q 253 225 253 161 q 246 242 253 235 q 229 249 239 249 q 144 214 181 249 q 107 140 107 179 q 149 93 107 94 m 182 508 l 189 508 q 218 497 206 508 q 231 463 231 485 q 212 426 231 440 q 176 413 193 413 q 131 456 131 413 q 147 492 131 478 q 182 508 163 507 m 315 511 q 346 496 331 511 q 361 463 361 481 q 346 428 361 444 q 304 413 331 413 q 272 426 285 413 q 260 457 260 439 q 277 497 260 482 q 315 511 294 511 z "},"":{"ha":447,"x_min":0,"x_max":524,"o":"m 479 136 q 511 124 499 136 q 524 97 524 111 q 497 40 524 67 q 354 -24 433 -24 q 286 -8 315 -24 q 247 28 257 7 q 197 -4 231 10 q 132 -18 164 -18 q 39 17 78 -18 q 0 115 0 53 q 67 278 0 201 q 222 356 133 356 q 299 326 264 356 q 358 300 358 326 q 345 193 358 264 q 332 117 332 122 q 361 79 332 79 q 424 108 386 79 q 479 136 461 136 m 149 93 q 233 139 192 93 q 253 225 253 161 q 246 242 253 235 q 229 249 239 249 q 144 214 181 249 q 107 140 107 179 q 149 93 107 94 m 215 467 q 224 448 215 456 q 243 440 232 440 q 265 449 257 440 q 274 471 274 458 q 265 488 274 479 q 258 501 257 496 q 215 467 218 499 m 161 458 q 188 526 161 501 q 249 550 215 550 q 289 528 279 550 q 316 512 304 528 q 328 474 328 496 q 304 411 328 435 q 236 388 281 388 q 183 406 204 388 q 161 458 161 425 z "},"":{"ha":607,"x_min":0,"x_max":683,"o":"m 639 136 q 671 124 658 136 q 683 97 683 111 q 620 13 683 53 q 451 -28 557 -28 q 278 56 336 -28 q 132 -18 210 -18 q 39 17 78 -18 q 0 115 0 53 q 67 278 0 201 q 222 356 133 356 q 306 322 281 356 q 404 356 346 356 q 497 321 463 356 q 531 233 531 286 q 429 76 531 135 q 601 121 503 43 q 639 136 621 136 m 429 221 q 422 243 429 233 q 401 253 414 253 q 363 227 379 253 q 346 168 346 201 q 357 124 346 138 q 409 167 389 139 q 429 221 429 196 m 153 90 q 233 139 197 90 q 250 189 246 156 q 257 226 254 222 q 250 235 254 228 q 238 246 246 242 q 215 250 231 250 q 140 215 172 250 q 107 140 107 179 q 153 90 107 90 z "},"":{"ha":346,"x_min":0,"x_max":422,"o":"m 346 122 q 385 136 369 136 q 410 125 399 136 q 422 99 422 114 q 386 40 422 74 q 208 -26 318 -22 q 206 -40 206 -35 q 217 -56 206 -47 q 241 -71 228 -64 q 265 -96 254 -78 q 276 -139 276 -114 q 253 -189 276 -167 q 190 -211 229 -211 q 92 -160 126 -211 q 89 -149 89 -151 q 107 -131 89 -131 q 134 -140 117 -131 q 163 -150 151 -150 q 193 -128 193 -150 q 172 -97 193 -115 q 143 -53 143 -72 q 151 -21 143 -36 q 42 40 83 -8 q 0 164 0 89 q 53 304 0 243 q 174 365 106 365 q 223 356 201 365 q 255 335 244 347 q 272 308 265 324 q 281 285 279 293 q 282 272 282 276 q 266 240 282 254 q 231 225 250 225 q 200 243 217 225 q 171 261 183 261 q 129 238 147 261 q 111 183 111 214 q 142 101 111 138 q 225 65 174 65 q 265 72 244 65 q 297 87 285 79 q 325 107 308 94 q 346 122 342 119 z "},"":{"ha":364,"x_min":0,"x_max":440,"o":"m 396 136 q 428 124 415 136 q 440 97 440 111 q 377 13 440 53 q 208 -28 314 -28 q 56 31 113 -28 q 0 174 0 90 q 7 224 0 197 q 30 283 14 251 q 80 335 46 314 q 161 356 114 356 q 253 321 219 356 q 288 233 288 286 q 186 76 288 135 q 358 121 260 43 q 396 136 378 136 m 186 221 q 178 243 186 233 q 158 253 171 253 q 119 227 136 253 q 103 168 103 201 q 114 124 103 138 q 166 167 146 139 q 186 221 186 196 m 239 432 q 244 417 244 425 q 238 399 244 406 q 222 393 231 393 q 165 417 203 393 q 104 469 126 440 q 96 493 96 481 q 106 519 96 507 q 135 531 115 531 q 188 497 156 531 q 239 432 219 463 z "},"":{"ha":364,"x_min":0,"x_max":440,"o":"m 396 136 q 428 124 415 136 q 440 97 440 111 q 377 13 440 53 q 208 -28 314 -28 q 56 31 113 -28 q 0 174 0 90 q 7 224 0 197 q 30 283 14 251 q 80 335 46 314 q 161 356 114 356 q 253 321 219 356 q 288 233 288 286 q 186 76 288 135 q 358 121 260 43 q 396 136 378 136 m 186 221 q 178 243 186 233 q 158 253 171 253 q 119 227 136 253 q 103 168 103 201 q 114 124 103 138 q 166 167 146 139 q 186 221 186 196 m 114 432 q 165 497 133 463 q 218 531 197 531 q 247 519 238 531 q 257 493 257 507 q 249 469 257 481 q 188 417 226 440 q 131 393 150 393 q 115 399 122 393 q 108 417 108 406 q 114 432 108 425 z "},"":{"ha":364,"x_min":0,"x_max":440,"o":"m 396 136 q 428 124 415 136 q 440 97 440 111 q 377 13 440 53 q 208 -28 314 -28 q 56 31 113 -28 q 0 174 0 90 q 7 224 0 197 q 30 283 14 251 q 80 335 46 314 q 161 356 114 356 q 253 321 219 356 q 288 233 288 286 q 186 76 288 135 q 358 121 260 43 q 396 136 378 136 m 186 221 q 178 243 186 233 q 158 253 171 253 q 119 227 136 253 q 103 168 103 201 q 114 124 103 138 q 166 167 146 139 q 186 221 186 196 m 250 436 q 251 429 251 433 q 240 405 251 417 q 215 393 228 393 q 158 440 194 393 q 150 431 156 438 l 140 417 q 131 406 138 413 q 120 396 125 400 q 108 389 115 392 q 94 386 101 386 q 62 397 78 386 q 46 421 46 408 q 89 478 46 439 q 156 518 132 518 q 206 490 175 518 q 250 436 236 461 z "},"":{"ha":364,"x_min":0,"x_max":440,"o":"m 396 136 q 428 124 415 136 q 440 97 440 111 q 377 13 440 53 q 208 -28 314 -28 q 56 31 113 -28 q 0 174 0 90 q 7 224 0 197 q 30 283 14 251 q 80 335 46 314 q 161 356 114 356 q 253 321 219 356 q 288 233 288 286 q 186 76 288 135 q 358 121 260 43 q 396 136 378 136 m 186 221 q 178 243 186 233 q 158 253 171 253 q 119 227 136 253 q 103 168 103 201 q 114 124 103 138 q 166 167 146 139 q 186 221 186 196 m 110 494 l 117 494 q 146 483 133 494 q 158 449 158 471 q 140 413 158 426 q 104 399 121 399 q 58 442 58 399 q 74 478 58 464 q 110 494 90 493 m 243 497 q 274 482 258 497 q 289 449 289 467 q 274 415 289 431 q 232 399 258 399 q 200 412 213 399 q 188 443 188 425 q 205 483 188 468 q 243 497 222 497 z "},"":{"ha":208,"x_min":-7,"x_max":319,"o":"m 276 136 q 306 124 292 136 q 319 97 319 113 q 311 65 319 82 q 255 10 299 40 q 156 -21 211 -21 q 40 46 79 -21 q 0 211 0 113 q 18 332 0 304 q 78 360 35 360 q 116 343 103 360 q 129 308 129 326 q 120 244 129 300 q 111 157 111 189 q 163 81 111 81 q 220 108 186 81 q 276 136 254 136 m 136 453 q 142 438 142 446 q 135 420 142 426 q 119 414 128 414 q 62 438 100 414 q 1 490 24 461 q -7 514 -7 501 q 3 540 -7 528 q 32 551 13 551 q 85 517 53 551 q 136 453 117 483 z "},"":{"ha":208,"x_min":0,"x_max":319,"o":"m 276 136 q 306 124 292 136 q 319 97 319 113 q 311 65 319 82 q 255 10 299 40 q 156 -21 211 -21 q 40 46 79 -21 q 0 211 0 113 q 18 332 0 304 q 78 360 35 360 q 116 343 103 360 q 129 308 129 326 q 120 244 129 300 q 111 157 111 189 q 163 81 111 81 q 220 108 186 81 q 276 136 254 136 m 33 446 q 85 510 53 476 q 138 544 117 544 q 167 533 157 544 q 176 507 176 521 q 168 483 176 494 q 108 431 146 454 q 50 407 69 407 q 35 413 42 407 q 28 431 28 419 q 33 446 28 439 z "},"":{"ha":208,"x_min":-18,"x_max":319,"o":"m 276 136 q 306 124 292 136 q 319 97 319 113 q 311 65 319 82 q 255 10 299 40 q 156 -21 211 -21 q 40 46 79 -21 q 0 211 0 113 q 18 332 0 304 q 78 360 35 360 q 116 343 103 360 q 129 308 129 326 q 120 244 129 300 q 111 157 111 189 q 163 81 111 81 q 220 108 186 81 q 276 136 254 136 m 186 458 q 188 451 188 456 q 176 427 188 439 q 151 415 164 415 q 94 463 131 415 q 86 453 92 460 l 76 439 q 67 428 74 435 q 56 418 61 422 q 44 411 51 414 q 31 408 38 408 q -2 419 14 408 q -18 443 -18 431 q 25 501 -18 461 q 92 540 68 540 q 142 512 111 540 q 186 458 172 483 z "},"":{"ha":208,"x_min":-32,"x_max":319,"o":"m 276 136 q 306 124 292 136 q 319 97 319 113 q 311 65 319 82 q 255 10 299 40 q 156 -21 211 -21 q 40 46 79 -21 q 0 211 0 113 q 18 332 0 304 q 78 360 35 360 q 116 343 103 360 q 129 308 129 326 q 120 244 129 300 q 111 157 111 189 q 163 81 111 81 q 220 108 186 81 q 276 136 254 136 m 19 522 l 26 522 q 56 510 43 522 q 68 476 68 499 q 49 440 68 454 q 14 426 31 426 q -32 469 -32 426 q -16 506 -32 492 q 19 522 0 521 m 153 525 q 183 510 168 525 q 199 476 199 494 q 183 442 199 458 q 142 426 168 426 q 110 440 122 426 q 97 471 97 453 q 115 510 97 496 q 153 525 132 525 z "},"":{"ha":496,"x_min":0,"x_max":454,"o":"m 217 -32 q 63 16 126 -32 q 0 151 0 64 q 59 299 0 238 q 190 361 118 361 q 240 352 218 361 q 272 331 261 343 q 289 304 282 319 q 297 281 296 289 q 299 268 299 272 q 283 235 299 250 q 247 221 267 221 q 217 239 233 221 q 188 257 200 257 q 136 233 161 257 q 111 171 111 208 q 142 99 111 125 q 215 72 172 72 q 303 108 267 72 q 340 215 340 143 q 243 457 340 363 q 117 410 165 410 q 83 422 96 410 q 69 453 69 433 q 94 497 69 479 l 142 526 q 125 536 136 529 q 108 546 114 543 q 94 554 103 549 q 81 564 85 560 l 69 572 q 59 581 63 576 q 52 590 56 585 q 47 599 49 594 q 46 608 46 603 q 60 651 46 632 q 94 671 75 671 q 258 596 154 671 l 304 631 q 338 644 322 644 q 360 631 350 644 q 369 599 369 617 q 336 525 369 563 q 454 219 454 392 q 385 35 454 103 q 217 -32 315 -32 z "},"":{"ha":496,"x_min":15,"x_max":572,"o":"m 413 79 q 438 85 424 79 q 458 97 451 92 l 481 113 l 494 124 q 531 136 511 136 q 558 124 544 136 q 572 94 572 113 q 565 67 572 81 q 497 3 546 31 q 401 -24 447 -24 q 318 4 351 -24 q 285 89 285 32 q 290 161 285 117 q 296 219 296 206 q 268 265 296 265 q 196 213 238 265 q 131 100 154 160 q 118 13 132 38 q 69 -12 104 -12 q 17 68 25 -12 q 15 297 15 97 q 33 345 15 324 q 75 367 50 367 q 97 365 89 367 q 111 359 106 364 q 120 350 117 354 q 125 334 124 346 q 126 314 126 322 q 127 285 126 306 q 128 249 128 264 q 202 335 158 300 q 288 369 246 369 q 370 338 343 369 q 397 264 397 307 q 391 179 397 229 q 385 111 385 129 q 413 79 385 79 m 296 418 q 249 428 279 418 q 200 438 218 438 q 167 428 185 438 q 144 418 149 418 q 126 428 133 418 q 118 450 118 438 q 144 499 118 475 q 194 524 169 524 q 242 512 214 524 q 288 500 269 500 q 319 510 300 500 q 344 519 338 519 q 359 508 350 519 q 368 481 368 497 q 345 439 368 460 q 296 418 322 418 z "},"":{"ha":404,"x_min":0,"x_max":481,"o":"m 472 297 q 481 271 481 288 q 438 188 481 215 q 349 161 394 161 l 338 161 q 343 128 343 149 q 294 22 343 72 q 161 -28 246 -28 q 47 23 94 -28 q 0 146 0 74 q 15 233 0 185 q 74 325 31 281 q 182 369 118 369 q 240 356 221 369 q 260 324 260 343 q 254 296 260 306 q 302 274 276 293 q 347 254 328 254 q 383 272 365 254 q 449 308 417 308 q 472 297 461 308 m 194 264 q 123 221 146 253 q 100 153 100 189 q 119 98 100 119 q 167 76 138 76 q 227 101 206 76 q 249 156 249 125 q 243 181 249 164 q 190 243 190 200 q 194 264 190 253 m 243 432 q 249 417 249 425 q 242 399 249 406 q 226 393 235 393 q 169 417 207 393 q 108 469 131 440 q 100 493 100 481 q 110 519 100 507 q 139 531 119 531 q 192 497 160 531 q 243 432 224 463 z "},"":{"ha":404,"x_min":0,"x_max":481,"o":"m 472 297 q 481 271 481 288 q 438 188 481 215 q 349 161 394 161 l 338 161 q 343 128 343 149 q 294 22 343 72 q 161 -28 246 -28 q 47 23 94 -28 q 0 146 0 74 q 15 233 0 185 q 74 325 31 281 q 182 369 118 369 q 240 356 221 369 q 260 324 260 343 q 254 296 260 306 q 302 274 276 293 q 347 254 328 254 q 383 272 365 254 q 449 308 417 308 q 472 297 461 308 m 194 264 q 123 221 146 253 q 100 153 100 189 q 119 98 100 119 q 167 76 138 76 q 227 101 206 76 q 249 156 249 125 q 243 181 249 164 q 190 243 190 200 q 194 264 190 253 m 146 443 q 197 508 165 474 q 250 542 229 542 q 279 530 269 542 q 289 504 289 518 q 281 481 289 492 q 220 428 258 451 q 163 404 182 404 q 147 410 154 404 q 140 428 140 417 q 146 443 140 436 z "},"":{"ha":404,"x_min":0,"x_max":481,"o":"m 472 297 q 481 271 481 288 q 438 188 481 215 q 349 161 394 161 l 338 161 q 343 128 343 149 q 294 22 343 72 q 161 -28 246 -28 q 47 23 94 -28 q 0 146 0 74 q 15 233 0 185 q 74 325 31 281 q 182 369 118 369 q 240 356 221 369 q 260 324 260 343 q 254 296 260 306 q 302 274 276 293 q 347 254 328 254 q 383 272 365 254 q 449 308 417 308 q 472 297 461 308 m 194 264 q 123 221 146 253 q 100 153 100 189 q 119 98 100 119 q 167 76 138 76 q 227 101 206 76 q 249 156 249 125 q 243 181 249 164 q 190 243 190 200 q 194 264 190 253 m 271 454 q 272 447 272 451 q 260 423 272 435 q 236 411 249 411 q 179 458 215 411 q 171 447 176 456 l 161 435 q 152 424 158 431 q 141 414 146 418 q 129 407 136 410 q 115 404 122 404 q 83 415 99 404 q 67 439 67 426 q 110 497 67 457 q 176 536 153 536 q 226 508 196 536 q 271 454 257 479 z "},"":{"ha":404,"x_min":0,"x_max":481,"o":"m 472 297 q 481 271 481 288 q 438 188 481 215 q 349 161 394 161 l 338 161 q 343 128 343 149 q 294 22 343 72 q 161 -28 246 -28 q 47 23 94 -28 q 0 146 0 74 q 15 233 0 185 q 74 325 31 281 q 182 369 118 369 q 240 356 221 369 q 260 324 260 343 q 254 296 260 306 q 302 274 276 293 q 347 254 328 254 q 383 272 365 254 q 449 308 417 308 q 472 297 461 308 m 194 264 q 123 221 146 253 q 100 153 100 189 q 119 98 100 119 q 167 76 138 76 q 227 101 206 76 q 249 156 249 125 q 243 181 249 164 q 190 243 190 200 q 194 264 190 253 m 240 425 q 193 435 224 425 q 144 444 163 444 q 111 435 129 444 q 89 425 93 425 q 70 435 78 425 q 63 457 63 444 q 88 506 63 482 q 139 531 114 531 q 186 519 158 531 q 232 507 214 507 q 263 517 244 507 q 289 526 282 526 q 303 515 294 526 q 313 488 313 504 q 290 446 313 467 q 240 425 267 425 z "},"":{"ha":404,"x_min":0,"x_max":481,"o":"m 472 297 q 481 271 481 288 q 438 188 481 215 q 349 161 394 161 l 338 161 q 343 128 343 149 q 294 22 343 72 q 161 -28 246 -28 q 47 23 94 -28 q 0 146 0 74 q 15 233 0 185 q 74 325 31 281 q 182 369 118 369 q 240 356 221 369 q 260 324 260 343 q 254 296 260 306 q 302 274 276 293 q 347 254 328 254 q 383 272 365 254 q 449 308 417 308 q 472 297 461 308 m 194 264 q 123 221 146 253 q 100 153 100 189 q 119 98 100 119 q 167 76 138 76 q 227 101 206 76 q 249 156 249 125 q 243 181 249 164 q 190 243 190 200 q 194 264 190 253 m 131 508 l 138 508 q 167 497 154 508 q 179 463 179 485 q 160 426 179 440 q 125 413 142 413 q 79 456 79 413 q 95 492 79 478 q 131 508 111 507 m 264 511 q 294 496 279 511 q 310 463 310 481 q 294 428 310 444 q 253 413 279 413 q 221 426 233 413 q 208 457 208 439 q 226 497 208 482 q 264 511 243 511 z "},"":{"ha":469,"x_min":35,"x_max":435,"o":"m 419 353 q 433 314 435 339 q 381 264 429 264 q 86 263 350 263 q 35 310 35 267 q 82 358 35 356 q 134 360 86 358 q 244 363 182 361 q 346 365 306 365 q 419 353 406 365 m 285 426 q 276 418 285 426 q 240 410 267 410 q 197 426 214 410 q 179 467 179 442 q 197 508 179 492 q 240 524 214 524 q 285 508 267 524 q 303 467 303 492 q 285 426 303 442 m 197 199 q 205 207 197 199 q 240 215 214 215 q 285 199 267 215 q 303 158 303 183 q 285 117 303 133 q 240 101 267 101 q 197 117 214 101 q 179 158 179 133 q 197 199 179 183 z "},"":{"ha":404,"x_min":0,"x_max":481,"o":"m 449 308 q 472 297 463 308 q 481 271 481 286 q 438 188 481 215 q 344 161 396 161 l 338 161 q 343 128 343 149 q 294 22 343 72 q 161 -28 246 -28 q 100 -14 124 -28 l 67 -68 q 44 -83 56 -83 q 26 -76 33 -83 q 18 -60 18 -68 q 22 -46 18 -53 l 58 13 q 0 153 0 64 q 46 295 0 224 q 183 367 92 367 q 256 324 250 367 l 293 385 q 322 414 314 413 q 341 406 333 414 q 349 389 349 399 l 349 383 q 347 379 349 382 q 344 373 346 376 q 339 364 343 369 l 332 353 q 323 338 329 347 q 311 319 317 329 l 296 296 l 278 267 q 347 254 335 254 q 383 272 365 254 q 449 308 417 308 m 115 101 l 222 271 q 100 153 100 265 q 115 101 100 121 m 232 194 l 158 76 l 167 76 q 227 101 206 76 q 249 156 249 125 q 232 194 249 183 z "},"":{"ha":497,"x_min":0,"x_max":574,"o":"m 415 -21 q 350 1 381 -21 q 308 50 319 22 q 183 -17 257 -17 q 60 31 100 -17 q 0 207 0 93 q 15 303 0 258 q 63 349 31 349 q 103 334 88 349 q 119 294 119 319 q 113 243 119 281 q 107 175 107 206 q 181 83 107 83 q 240 104 225 83 q 257 161 254 125 l 260 226 q 265 284 263 267 q 272 324 267 301 q 290 353 278 346 q 321 361 301 361 q 360 347 346 361 q 375 307 375 332 q 372 230 375 290 q 368 158 368 169 q 411 79 368 79 q 474 108 436 79 q 529 136 511 136 q 560 125 546 136 q 574 97 574 114 q 547 40 574 67 q 415 -21 486 -21 m 246 435 q 251 419 251 428 q 244 402 251 408 q 229 396 238 396 q 172 419 210 396 q 111 472 133 443 q 103 496 103 483 q 113 522 103 510 q 142 533 122 533 q 194 499 163 533 q 246 435 226 465 z "},"":{"ha":497,"x_min":0,"x_max":574,"o":"m 415 -21 q 350 1 381 -21 q 308 50 319 22 q 183 -17 257 -17 q 60 31 100 -17 q 0 207 0 93 q 15 303 0 258 q 63 349 31 349 q 103 334 88 349 q 119 294 119 319 q 113 243 119 281 q 107 175 107 206 q 181 83 107 83 q 240 104 225 83 q 257 161 254 125 l 260 226 q 265 284 263 267 q 272 324 267 301 q 290 353 278 346 q 321 361 301 361 q 360 347 346 361 q 375 307 375 332 q 372 230 375 290 q 368 158 368 169 q 411 79 368 79 q 474 108 436 79 q 529 136 511 136 q 560 125 546 136 q 574 97 574 114 q 547 40 574 67 q 415 -21 486 -21 m 149 432 q 200 497 168 463 q 253 531 232 531 q 282 519 272 531 q 292 493 292 507 q 283 469 292 481 q 223 417 261 440 q 165 393 185 393 q 150 399 157 393 q 143 417 143 406 q 149 432 143 425 z "},"":{"ha":497,"x_min":0,"x_max":574,"o":"m 415 -21 q 350 1 381 -21 q 308 50 319 22 q 183 -17 257 -17 q 60 31 100 -17 q 0 207 0 93 q 15 303 0 258 q 63 349 31 349 q 103 334 88 349 q 119 294 119 319 q 113 243 119 281 q 107 175 107 206 q 181 83 107 83 q 240 104 225 83 q 257 161 254 125 l 260 226 q 265 284 263 267 q 272 324 267 301 q 290 353 278 346 q 321 361 301 361 q 360 347 346 361 q 375 307 375 332 q 372 230 375 290 q 368 158 368 169 q 411 79 368 79 q 474 108 436 79 q 529 136 511 136 q 560 125 546 136 q 574 97 574 114 q 547 40 574 67 q 415 -21 486 -21 m 292 453 q 293 446 293 450 q 281 422 293 433 q 257 410 269 410 q 200 457 236 410 q 192 447 197 454 l 182 435 q 173 423 179 429 q 162 413 167 417 q 150 406 157 408 q 136 403 143 403 q 103 414 119 403 q 88 438 88 425 q 131 495 88 456 q 197 535 174 535 q 247 506 217 535 q 292 453 278 478 z "},"":{"ha":497,"x_min":0,"x_max":574,"o":"m 415 -21 q 350 1 381 -21 q 308 50 319 22 q 183 -17 257 -17 q 60 31 100 -17 q 0 207 0 93 q 15 303 0 258 q 63 349 31 349 q 103 334 88 349 q 119 294 119 319 q 113 243 119 281 q 107 175 107 206 q 181 83 107 83 q 240 104 225 83 q 257 161 254 125 l 260 226 q 265 284 263 267 q 272 324 267 301 q 290 353 278 346 q 321 361 301 361 q 360 347 346 361 q 375 307 375 332 q 372 230 375 290 q 368 158 368 169 q 411 79 368 79 q 474 108 436 79 q 529 136 511 136 q 560 125 546 136 q 574 97 574 114 q 547 40 574 67 q 415 -21 486 -21 m 124 522 l 131 522 q 160 510 147 522 q 172 476 172 499 q 153 440 172 454 q 118 426 135 426 q 72 469 72 426 q 88 506 72 492 q 124 522 104 521 m 257 525 q 288 510 272 525 q 303 476 303 494 q 288 442 303 458 q 246 426 272 426 q 214 440 226 426 q 201 471 201 453 q 219 510 201 496 q 257 525 236 525 z "},"":{"ha":496,"x_min":15,"x_max":572,"o":"m 388 50 q 458 96 440 81 q 528 136 507 136 q 558 124 544 136 q 572 94 572 113 q 550 44 572 68 q 397 -43 514 6 q 393 -137 396 -115 q 349 -272 388 -222 q 244 -321 310 -321 q 151 -286 190 -321 q 113 -200 113 -251 q 160 -92 113 -139 q 286 -1 208 -44 q 285 56 285 19 q 168 -14 232 -14 q 82 14 126 -14 q 28 89 38 42 q 15 213 15 151 l 15 229 l 15 250 q 16 271 15 257 q 19 293 17 285 q 24 314 21 301 q 31 334 26 326 q 42 349 36 342 q 58 359 49 356 q 81 363 68 363 q 129 292 129 363 q 125 230 129 272 q 121 169 121 188 q 165 100 121 100 q 242 152 203 100 q 281 268 281 204 q 292 338 281 317 q 335 360 304 360 q 378 338 368 360 q 389 263 389 317 q 388 178 389 256 q 388 50 386 101 m 257 -212 q 292 -96 292 -211 q 228 -185 228 -135 q 257 -212 228 -212 m 150 447 q 201 512 169 478 q 254 546 233 546 q 283 534 274 546 q 293 508 293 522 q 285 485 293 496 q 224 432 263 456 q 167 408 186 408 q 151 415 158 408 q 144 432 144 421 q 150 447 144 440 z "},"":{"ha":457,"x_min":8,"x_max":415,"o":"m 281 351 q 381 307 347 351 q 415 194 415 263 q 368 42 415 111 q 247 -28 321 -28 q 176 28 176 -28 q 188 73 176 60 q 226 91 200 86 q 260 100 251 96 q 292 138 278 110 q 307 189 307 165 q 260 236 307 236 q 175 201 222 236 q 128 94 128 165 q 122 -267 128 -228 q 103 -303 118 -290 q 71 -317 89 -317 q 20 -267 32 -317 q 8 -118 8 -218 q 9 -54 8 -99 q 10 15 10 -10 q 9 160 10 74 q 8 278 8 247 q 18 606 8 503 q 41 663 21 642 q 88 683 61 683 q 135 659 121 683 q 149 579 149 635 q 138 441 149 564 q 128 261 128 318 q 197 327 154 303 q 281 351 240 351 z "},"":{"ha":496,"x_min":15,"x_max":572,"o":"m 388 50 q 458 96 440 81 q 528 136 507 136 q 558 124 544 136 q 572 94 572 113 q 550 44 572 68 q 397 -43 514 6 q 393 -137 396 -115 q 349 -272 388 -222 q 244 -321 310 -321 q 151 -286 190 -321 q 113 -200 113 -251 q 160 -92 113 -139 q 286 -1 208 -44 q 285 56 285 19 q 168 -14 232 -14 q 82 14 126 -14 q 28 89 38 42 q 15 213 15 151 l 15 229 l 15 250 q 16 271 15 257 q 19 293 17 285 q 24 314 21 301 q 31 334 26 326 q 42 349 36 342 q 58 359 49 356 q 81 363 68 363 q 129 292 129 363 q 125 230 129 272 q 121 169 121 188 q 165 100 121 100 q 242 152 203 100 q 281 268 281 204 q 292 338 281 317 q 335 360 304 360 q 378 338 368 360 q 389 263 389 317 q 388 178 389 256 q 388 50 386 101 m 257 -212 q 292 -96 292 -211 q 228 -185 228 -135 q 257 -212 228 -212 m 144 508 l 151 508 q 181 497 168 508 q 193 463 193 485 q 174 426 193 440 q 139 413 156 413 q 93 456 93 413 q 109 492 93 478 q 144 508 125 507 m 278 511 q 308 496 293 511 q 324 463 324 481 q 308 428 324 444 q 267 413 293 413 q 235 426 247 413 q 222 457 222 439 q 240 497 222 482 q 278 511 257 511 z "},"":{"ha":576,"x_min":14,"x_max":601,"o":"m 586 263 q 601 235 601 253 q 582 188 601 211 q 542 165 563 165 q 518 166 531 165 q 501 167 506 167 q 492 8 501 32 q 451 -14 482 -14 q 388 42 388 -14 q 390 167 388 97 q 153 150 231 164 l 149 115 q 142 74 146 92 q 133 38 139 57 q 117 10 128 19 q 90 0 106 0 q 34 17 47 0 q 21 68 21 35 q 33 144 21 94 q 14 197 14 161 q 56 242 14 225 q 282 625 138 542 q 353 646 319 646 q 465 569 429 646 q 501 276 499 501 q 586 263 560 276 m 175 257 q 392 274 217 261 q 379 467 389 407 q 340 528 369 528 q 315 521 329 528 q 175 257 225 475 m 272 781 q 357 782 290 782 q 453 781 424 782 q 485 740 485 776 q 453 701 486 704 q 264 699 313 693 q 238 739 236 703 q 272 781 239 775 z "},"":{"ha":447,"x_min":0,"x_max":524,"o":"m 479 136 q 511 124 499 136 q 524 97 524 111 q 497 40 524 67 q 354 -24 433 -24 q 286 -8 315 -24 q 247 28 257 7 q 197 -4 231 10 q 132 -18 164 -18 q 39 17 78 -18 q 0 115 0 53 q 67 278 0 201 q 222 356 133 356 q 299 326 264 356 q 358 300 358 326 q 345 193 358 264 q 332 117 332 122 q 361 79 332 79 q 424 108 386 79 q 479 136 461 136 m 149 93 q 233 139 192 93 q 253 225 253 161 q 246 242 253 235 q 229 249 239 249 q 144 214 181 249 q 107 140 107 179 q 149 93 107 94 m 135 496 q 219 497 153 497 q 315 496 286 497 q 348 456 347 492 q 315 417 349 419 q 126 414 175 408 q 100 454 99 418 q 135 496 101 490 z "},"":{"ha":576,"x_min":14,"x_max":601,"o":"m 586 263 q 601 235 601 253 q 582 188 601 211 q 542 165 563 165 q 518 166 531 165 q 501 167 506 167 q 492 8 501 32 q 451 -14 482 -14 q 388 42 388 -14 q 390 167 388 97 q 153 150 231 164 l 149 115 q 142 74 146 92 q 133 38 139 57 q 117 10 128 19 q 90 0 106 0 q 34 17 47 0 q 21 68 21 35 q 33 144 21 94 q 14 197 14 161 q 56 242 14 225 q 282 625 138 542 q 353 646 319 646 q 465 569 429 646 q 501 276 499 501 q 586 263 560 276 m 175 257 q 392 274 217 261 q 379 467 389 407 q 340 528 369 528 q 315 521 329 528 q 175 257 225 475 m 443 800 q 464 790 454 800 q 474 767 474 781 q 440 719 474 744 q 361 693 406 693 q 246 751 285 693 q 240 769 240 760 q 251 799 240 786 q 275 811 263 811 q 312 788 283 811 q 364 765 340 765 q 421 788 392 765 q 443 800 439 800 z "},"":{"ha":447,"x_min":0,"x_max":524,"o":"m 479 136 q 511 124 499 136 q 524 97 524 111 q 497 40 524 67 q 354 -24 433 -24 q 286 -8 315 -24 q 247 28 257 7 q 197 -4 231 10 q 132 -18 164 -18 q 39 17 78 -18 q 0 115 0 53 q 67 278 0 201 q 222 356 133 356 q 299 326 264 356 q 358 300 358 326 q 345 193 358 264 q 332 117 332 122 q 361 79 332 79 q 424 108 386 79 q 479 136 461 136 m 149 93 q 233 139 192 93 q 253 225 253 161 q 246 242 253 235 q 229 249 239 249 q 144 214 181 249 q 107 140 107 179 q 149 93 107 94 m 329 517 q 350 507 340 517 q 360 483 360 497 q 326 435 360 461 q 247 410 292 410 q 132 468 171 410 q 126 486 126 476 q 138 515 126 503 q 161 528 149 528 q 197 505 169 528 q 250 482 225 482 q 307 504 278 482 q 329 517 325 517 z "},"":{"ha":576,"x_min":14,"x_max":601,"o":"m 586 263 q 601 235 601 253 q 582 188 601 211 q 542 165 563 165 q 518 166 531 165 q 501 167 506 167 q 496 26 501 57 q 463 -12 490 -4 q 408 -46 432 -21 q 385 -107 385 -71 q 442 -165 385 -165 q 508 -142 472 -165 q 540 -149 525 -131 q 549 -185 556 -167 q 509 -227 542 -203 q 428 -251 476 -251 q 325 -217 358 -251 q 292 -131 292 -182 q 318 -44 292 -83 q 392 15 344 -4 q 388 42 388 28 q 390 167 388 97 q 153 150 231 164 l 149 115 q 142 74 146 92 q 133 38 139 57 q 117 10 128 19 q 90 0 106 0 q 34 17 47 0 q 21 68 21 35 q 33 144 21 94 q 14 197 14 161 q 56 242 14 225 q 282 625 138 542 q 353 646 319 646 q 465 569 429 646 q 501 276 499 501 q 586 263 560 276 m 175 257 l 392 274 q 379 467 389 407 q 340 528 369 528 q 315 521 329 528 q 175 257 225 475 z "},"":{"ha":447,"x_min":0,"x_max":524,"o":"m 479 136 q 511 124 499 136 q 524 97 524 111 q 518 74 524 88 q 500 42 513 61 q 460 7 488 24 q 393 -19 432 -10 q 290 -125 290 -44 q 307 -160 290 -147 q 350 -174 324 -174 q 411 -156 381 -174 q 421 -153 417 -153 q 441 -165 432 -153 q 450 -192 450 -178 q 447 -203 450 -194 q 407 -239 439 -219 q 332 -258 375 -258 q 228 -223 263 -258 q 194 -140 194 -187 q 276 -3 194 -49 q 247 28 257 10 q 197 -4 231 10 q 132 -18 164 -18 q 39 17 78 -18 q 0 115 0 53 q 67 278 0 201 q 222 356 133 356 q 299 326 264 356 q 358 300 358 326 q 345 193 358 264 q 332 117 332 122 q 361 79 332 79 q 424 108 386 79 q 479 136 461 136 m 149 93 q 233 139 192 93 q 253 225 253 161 q 246 242 253 235 q 229 249 239 249 q 144 214 181 249 q 107 140 107 179 q 149 93 107 94 z "},"":{"ha":653,"x_min":42,"x_max":611,"o":"m 507 188 q 567 215 535 215 q 599 203 586 215 q 611 174 611 190 q 603 144 611 165 q 575 94 596 124 q 524 37 554 64 q 442 -9 493 10 q 328 -28 390 -28 q 116 55 190 -28 q 42 271 42 138 q 139 532 42 418 q 397 646 236 646 q 582 456 582 646 q 563 404 582 425 q 508 383 544 383 q 447 431 447 383 q 452 461 447 442 q 457 488 457 481 q 439 521 457 507 q 386 535 421 535 q 208 424 274 535 q 172 214 150 322 q 289 82 193 104 q 333 76 310 76 q 401 90 371 76 q 447 117 432 103 q 481 156 461 132 q 507 188 500 181 m 331 746 q 382 810 350 776 q 435 844 414 844 q 464 833 454 844 q 474 807 474 821 q 465 783 474 794 q 405 731 443 754 q 347 707 367 707 q 332 713 339 707 q 325 731 325 719 q 331 746 325 739 z "},"":{"ha":346,"x_min":0,"x_max":422,"o":"m 346 122 q 385 136 369 136 q 410 125 399 136 q 422 99 422 114 q 386 40 422 74 q 307 -6 357 14 q 201 -26 257 -26 q 57 24 114 -26 q 0 164 0 75 q 53 304 0 243 q 174 365 106 365 q 223 356 201 365 q 255 335 244 347 q 272 308 265 324 q 281 285 279 293 q 282 272 282 276 q 266 240 282 254 q 231 225 250 225 q 200 243 217 225 q 171 261 183 261 q 129 238 147 261 q 111 183 111 214 q 142 101 111 138 q 225 65 174 65 q 265 72 244 65 q 297 87 285 79 q 325 107 308 94 q 346 122 342 119 m 119 444 q 171 509 139 475 q 224 543 203 543 q 253 531 243 543 q 263 506 263 519 q 254 482 263 493 q 194 429 232 453 q 136 406 156 406 q 121 412 128 406 q 114 429 114 418 q 119 444 114 438 z "},"":{"ha":653,"x_min":42,"x_max":611,"o":"m 507 188 q 567 215 535 215 q 599 203 586 215 q 611 174 611 190 q 603 144 611 165 q 575 94 596 124 q 524 37 554 64 q 442 -9 493 10 q 328 -28 390 -28 q 116 55 190 -28 q 42 271 42 138 q 139 532 42 418 q 397 646 236 646 q 582 456 582 646 q 563 404 582 425 q 508 383 544 383 q 447 431 447 383 q 452 461 447 442 q 457 488 457 481 q 439 521 457 507 q 386 535 421 535 q 208 424 274 535 q 172 214 150 322 q 289 82 193 104 q 333 76 310 76 q 401 90 371 76 q 447 117 432 103 q 481 156 461 132 q 507 188 500 181 m 476 742 q 478 735 478 739 q 466 710 478 722 q 442 699 454 699 q 385 746 421 699 q 376 736 382 743 l 368 724 q 358 712 364 718 q 347 701 351 706 q 335 694 342 697 q 321 692 328 692 q 288 703 304 692 q 272 726 272 714 q 315 784 272 744 q 382 824 358 824 q 432 795 401 824 q 476 742 463 767 z "},"":{"ha":346,"x_min":0,"x_max":422,"o":"m 346 122 q 385 136 369 136 q 410 125 399 136 q 422 99 422 114 q 386 40 422 74 q 307 -6 357 14 q 201 -26 257 -26 q 57 24 114 -26 q 0 164 0 75 q 53 304 0 243 q 174 365 106 365 q 223 356 201 365 q 255 335 244 347 q 272 308 265 324 q 281 285 279 293 q 282 272 282 276 q 266 240 282 254 q 231 225 250 225 q 200 243 217 225 q 171 261 183 261 q 129 238 147 261 q 111 183 111 214 q 142 101 111 138 q 225 65 174 65 q 265 72 244 65 q 297 87 285 79 q 325 107 308 94 q 346 122 342 119 m 268 450 q 269 443 269 447 q 258 419 269 431 q 233 407 246 407 q 176 454 213 407 q 168 444 174 451 l 158 431 q 149 420 156 426 q 138 410 143 414 q 126 403 133 406 q 113 400 119 400 q 80 411 96 400 q 64 435 64 422 q 107 492 64 453 q 174 532 150 532 q 224 503 193 532 q 268 450 254 475 z "},"":{"ha":653,"x_min":42,"x_max":611,"o":"m 507 188 q 567 215 535 215 q 599 203 586 215 q 611 174 611 190 q 603 144 611 165 q 575 94 596 124 q 524 37 554 64 q 442 -9 493 10 q 328 -28 390 -28 q 116 55 190 -28 q 42 271 42 138 q 139 532 42 418 q 397 646 236 646 q 582 456 582 646 q 563 404 582 425 q 508 383 544 383 q 447 431 447 383 q 452 461 447 442 q 457 488 457 481 q 439 521 457 507 q 386 535 421 535 q 208 424 274 535 q 172 214 150 322 q 289 82 193 104 q 333 76 310 76 q 401 90 371 76 q 447 117 432 103 q 481 156 461 132 q 507 188 500 181 m 375 806 q 433 750 433 806 q 411 706 433 722 q 368 690 389 690 q 314 742 314 690 q 333 786 314 768 q 375 806 353 804 z "},"":{"ha":346,"x_min":0,"x_max":422,"o":"m 346 122 q 385 136 369 136 q 410 125 399 136 q 422 99 422 114 q 386 40 422 74 q 307 -6 357 14 q 201 -26 257 -26 q 57 24 114 -26 q 0 164 0 75 q 53 304 0 243 q 174 365 106 365 q 223 356 201 365 q 255 335 244 347 q 272 308 265 324 q 281 285 279 293 q 282 272 282 276 q 266 240 282 254 q 231 225 250 225 q 200 243 217 225 q 171 261 183 261 q 129 238 147 261 q 111 183 111 214 q 142 101 111 138 q 225 65 174 65 q 265 72 244 65 q 297 87 285 79 q 325 107 308 94 q 346 122 342 119 m 182 539 q 240 483 240 539 q 218 440 240 456 q 175 424 196 424 q 121 475 121 424 q 140 519 121 501 q 182 539 160 538 z "},"":{"ha":653,"x_min":42,"x_max":611,"o":"m 507 188 q 567 215 535 215 q 599 203 586 215 q 611 174 611 190 q 603 144 611 165 q 575 94 596 124 q 524 37 554 64 q 442 -9 493 10 q 328 -28 390 -28 q 116 55 190 -28 q 42 271 42 138 q 139 532 42 418 q 397 646 236 646 q 582 456 582 646 q 563 404 582 425 q 508 383 544 383 q 447 431 447 383 q 452 461 447 442 q 457 488 457 481 q 439 521 457 507 q 386 535 421 535 q 208 424 274 535 q 172 214 150 322 q 289 82 193 104 q 333 76 310 76 q 401 90 371 76 q 447 117 432 103 q 481 156 461 132 q 507 188 500 181 m 271 783 q 269 790 269 786 q 281 815 269 803 q 306 826 293 826 q 363 779 326 826 q 371 790 365 782 l 381 803 q 390 813 383 807 q 401 824 396 819 q 413 831 406 828 q 426 833 419 833 q 459 822 443 833 q 475 799 475 811 q 432 741 475 781 q 365 701 389 701 q 315 730 346 701 q 271 783 285 758 z "},"":{"ha":346,"x_min":0,"x_max":422,"o":"m 346 122 q 385 136 369 136 q 410 125 399 136 q 422 99 422 114 q 386 40 422 74 q 307 -6 357 14 q 201 -26 257 -26 q 57 24 114 -26 q 0 164 0 75 q 53 304 0 243 q 174 365 106 365 q 223 356 201 365 q 255 335 244 347 q 272 308 265 324 q 281 285 279 293 q 282 272 282 276 q 266 240 282 254 q 231 225 250 225 q 200 243 217 225 q 171 261 183 261 q 129 238 147 261 q 111 183 111 214 q 142 101 111 138 q 225 65 174 65 q 265 72 244 65 q 297 87 285 79 q 325 107 308 94 q 346 122 342 119 m 86 479 q 85 486 85 482 q 97 510 85 499 q 121 522 108 522 q 178 475 142 522 q 186 486 181 478 l 196 497 q 205 509 199 503 q 216 519 211 515 q 228 526 221 524 q 242 529 235 529 q 274 518 258 529 q 290 494 290 507 q 247 437 290 476 q 181 397 204 397 q 131 426 161 397 q 86 479 100 454 z "},"":{"ha":674,"x_min":-28,"x_max":618,"o":"m 21 486 q -14 506 0 486 q -28 551 -28 525 q 48 618 -28 590 q 229 646 124 646 q 506 569 394 646 q 618 340 618 493 q 582 171 618 244 q 488 56 546 97 q 364 -7 429 14 q 232 -28 299 -28 q 69 69 69 -28 q 71 130 69 82 q 72 208 72 178 q 71 310 72 238 q 69 403 69 383 q 81 460 69 440 q 128 479 93 479 q 177 463 156 479 q 199 417 199 447 q 195 378 199 411 q 188 288 192 346 q 183 167 183 231 q 197 102 183 121 q 243 83 210 83 q 422 150 333 83 q 510 335 510 217 q 438 482 510 422 q 250 542 367 542 q 144 528 190 542 q 68 500 97 514 q 21 486 39 486 m 190 772 q 189 779 189 775 q 201 803 189 792 q 225 815 213 815 q 282 768 246 815 q 290 779 285 771 l 300 792 q 309 802 303 796 q 320 813 315 808 q 332 819 325 817 q 346 822 339 822 q 378 811 363 822 q 394 788 394 800 q 351 730 394 769 q 285 690 308 690 q 235 719 265 690 q 190 772 204 747 z "},"":{"ha":474,"x_min":0,"x_max":568,"o":"m 440 108 q 457 122 440 108 q 492 136 474 136 q 523 124 510 136 q 536 93 536 113 q 510 40 536 67 q 382 -24 446 -24 q 278 38 306 -24 q 153 -22 222 -22 q 42 28 83 -22 q 0 144 0 79 q 63 303 0 244 q 186 363 125 363 q 244 347 219 363 q 242 410 242 389 q 267 603 242 524 q 331 683 292 683 q 386 594 386 683 q 366 366 386 514 q 329 146 346 218 q 333 112 331 122 q 347 90 335 101 q 382 79 360 79 q 440 108 406 79 m 232 143 q 251 203 251 174 q 236 246 251 228 q 199 264 221 264 q 141 231 169 264 q 113 150 113 199 q 126 103 113 122 q 161 85 139 85 q 232 143 197 85 m 501 643 q 549 623 531 643 q 568 574 568 603 q 540 493 568 532 q 488 454 511 454 q 458 478 458 454 q 470 501 458 486 q 485 525 482 517 q 431 575 431 536 q 453 626 431 608 q 501 643 476 643 z "},"":{"ha":674,"x_min":-28,"x_max":618,"o":"m 264 246 l 185 246 q 183 167 183 218 q 197 102 183 121 q 243 83 210 83 q 422 150 333 83 q 510 335 510 217 q 438 482 510 422 q 250 542 367 542 q 144 528 190 542 q 68 500 97 514 q 21 486 39 486 q -14 506 0 486 q -28 551 -28 525 q 48 618 -28 590 q 229 646 124 646 q 506 569 394 646 q 618 340 618 493 q 582 171 618 244 q 488 56 546 97 q 364 -7 429 14 q 232 -28 299 -28 q 69 69 69 -28 q 71 130 69 82 q 72 208 72 178 l 72 247 l 44 249 q 0 292 0 253 q 8 320 0 310 q 24 333 17 331 q 44 336 32 335 l 69 338 l 69 403 q 81 460 69 440 q 128 479 93 479 q 177 463 156 479 q 199 417 199 447 q 197 401 199 413 q 194 373 196 390 q 192 342 193 356 l 253 344 q 313 337 294 346 q 331 299 331 328 q 264 246 331 246 z "},"":{"ha":501,"x_min":0,"x_max":578,"o":"m 533 136 q 565 124 551 136 q 578 93 578 113 q 551 40 578 67 q 410 -24 488 -24 q 288 47 324 -24 q 153 -22 221 -22 q 42 28 83 -22 q 0 144 0 79 q 63 303 0 244 q 186 363 125 363 q 244 347 219 363 q 242 410 242 389 l 242 425 q 126 494 126 439 q 144 525 126 515 q 181 535 163 535 q 250 529 192 535 q 282 641 261 599 q 331 683 303 683 q 386 594 386 683 q 383 521 386 576 q 399 522 389 521 q 411 522 408 522 q 458 493 458 522 q 436 453 458 472 q 374 426 414 435 q 335 171 350 232 q 365 105 343 131 q 418 79 388 79 q 481 108 444 79 q 533 136 517 136 m 232 143 q 251 203 251 174 q 236 246 251 228 q 199 264 221 264 q 141 231 169 264 q 113 150 113 199 q 126 103 113 122 q 161 85 139 85 q 232 143 197 85 z "},"":{"ha":479,"x_min":35,"x_max":514,"o":"m 178 447 q 210 385 178 406 q 285 364 243 364 q 326 322 326 364 q 312 277 326 300 q 271 254 297 254 q 224 263 249 254 q 173 229 190 257 q 156 167 156 201 q 276 72 156 72 q 355 84 322 72 q 442 132 388 96 q 468 142 456 142 q 501 126 489 142 q 514 93 514 111 q 490 44 514 65 q 268 -28 417 -28 q 99 19 163 -28 q 35 160 35 65 q 60 256 35 213 q 133 318 86 299 q 64 460 64 361 q 124 590 64 535 q 282 646 185 646 q 414 609 363 646 q 465 503 465 572 q 444 432 465 460 q 385 404 422 404 q 343 417 361 404 q 325 451 325 431 q 340 487 325 469 q 354 507 354 504 q 333 531 354 521 q 279 542 311 542 q 207 517 236 542 q 178 447 178 493 m 186 788 q 271 789 204 789 q 367 788 338 789 q 399 747 399 783 q 367 708 400 711 q 178 706 226 700 q 151 746 150 710 q 186 788 153 782 z "},"":{"ha":364,"x_min":0,"x_max":440,"o":"m 396 136 q 428 124 415 136 q 440 97 440 111 q 377 13 440 53 q 208 -28 314 -28 q 56 31 113 -28 q 0 174 0 90 q 7 224 0 197 q 30 283 14 251 q 80 335 46 314 q 161 356 114 356 q 253 321 219 356 q 288 233 288 286 q 186 76 288 135 q 358 121 260 43 q 396 136 378 136 m 186 221 q 178 243 186 233 q 158 253 171 253 q 119 227 136 253 q 103 168 103 201 q 114 124 103 138 q 166 167 146 139 q 186 221 186 196 m 71 503 q 156 504 89 504 q 251 503 222 504 q 284 463 283 499 q 251 424 285 426 q 63 421 111 415 q 36 461 35 425 q 71 503 38 497 z "},"":{"ha":479,"x_min":35,"x_max":514,"o":"m 178 447 q 210 385 178 406 q 285 364 243 364 q 326 322 326 364 q 312 277 326 300 q 271 254 297 254 q 224 263 249 254 q 173 229 190 257 q 156 167 156 201 q 276 72 156 72 q 355 84 322 72 q 442 132 388 96 q 468 142 456 142 q 501 126 489 142 q 514 93 514 111 q 490 44 514 65 q 268 -28 417 -28 q 99 19 163 -28 q 35 160 35 65 q 60 256 35 213 q 133 318 86 299 q 64 460 64 361 q 124 590 64 535 q 282 646 185 646 q 414 609 363 646 q 465 503 465 572 q 444 432 465 460 q 385 404 422 404 q 343 417 361 404 q 325 451 325 431 q 340 487 325 469 q 354 507 354 504 q 333 531 354 521 q 279 542 311 542 q 207 517 236 542 q 178 447 178 493 m 364 800 q 385 790 375 800 q 394 767 394 781 q 360 719 394 744 q 282 693 326 693 q 167 751 206 693 q 161 769 161 760 q 172 799 161 786 q 196 811 183 811 q 233 788 204 811 q 285 765 261 765 q 342 788 313 765 q 364 800 360 800 z "},"":{"ha":364,"x_min":0,"x_max":440,"o":"m 396 136 q 428 124 415 136 q 440 97 440 111 q 377 13 440 53 q 208 -28 314 -28 q 56 31 113 -28 q 0 174 0 90 q 7 224 0 197 q 30 283 14 251 q 80 335 46 314 q 161 356 114 356 q 253 321 219 356 q 288 233 288 286 q 186 76 288 135 q 358 121 260 43 q 396 136 378 136 m 186 221 q 178 243 186 233 q 158 253 171 253 q 119 227 136 253 q 103 168 103 201 q 114 124 103 138 q 166 167 146 139 q 186 221 186 196 m 256 525 q 276 515 267 525 q 286 492 286 506 q 252 444 286 469 q 174 418 218 418 q 58 476 97 418 q 53 494 53 485 q 64 524 53 511 q 88 536 75 536 q 124 513 94 536 q 176 490 153 490 q 233 513 204 490 q 256 525 251 525 z "},"":{"ha":479,"x_min":35,"x_max":514,"o":"m 178 447 q 210 385 178 406 q 285 364 243 364 q 326 322 326 364 q 312 277 326 300 q 271 254 297 254 q 224 263 249 254 q 173 229 190 257 q 156 167 156 201 q 276 72 156 72 q 355 84 322 72 q 442 132 388 96 q 468 142 456 142 q 501 126 489 142 q 514 93 514 111 q 490 44 514 65 q 268 -28 417 -28 q 99 19 163 -28 q 35 160 35 65 q 60 256 35 213 q 133 318 86 299 q 64 460 64 361 q 124 590 64 535 q 282 646 185 646 q 414 609 363 646 q 465 503 465 572 q 444 432 465 460 q 385 404 422 404 q 343 417 361 404 q 325 451 325 431 q 340 487 325 469 q 354 507 354 504 q 333 531 354 521 q 279 542 311 542 q 207 517 236 542 q 178 447 178 493 m 278 829 q 336 774 336 829 q 314 730 336 746 q 271 714 292 714 q 217 765 217 714 q 236 810 217 792 q 278 829 256 828 z "},"":{"ha":364,"x_min":0,"x_max":440,"o":"m 396 136 q 428 124 415 136 q 440 97 440 111 q 377 13 440 53 q 208 -28 314 -28 q 56 31 113 -28 q 0 174 0 90 q 7 224 0 197 q 30 283 14 251 q 80 335 46 314 q 161 356 114 356 q 253 321 219 356 q 288 233 288 286 q 186 76 288 135 q 358 121 260 43 q 396 136 378 136 m 186 221 q 178 243 186 233 q 158 253 171 253 q 119 227 136 253 q 103 168 103 201 q 114 124 103 138 q 166 167 146 139 q 186 221 186 196 m 175 532 q 233 476 233 532 q 211 433 233 449 q 168 417 189 417 q 114 468 114 417 q 133 513 114 494 q 175 532 153 531 z "},"":{"ha":479,"x_min":35,"x_max":514,"o":"m 175 447 q 208 383 175 404 q 285 361 242 361 q 315 350 304 361 q 326 322 326 339 q 312 278 326 300 q 269 257 297 257 q 221 265 247 257 q 169 231 186 260 q 151 167 151 203 q 182 96 151 122 q 275 69 213 69 q 358 82 324 69 q 446 131 392 94 q 469 139 457 139 q 501 124 489 139 q 514 93 514 110 q 490 44 514 68 q 410 -4 460 14 q 325 -104 325 -35 q 382 -160 325 -160 q 449 -136 414 -160 q 481 -143 465 -125 q 489 -179 496 -161 q 449 -222 482 -197 q 368 -246 417 -246 q 265 -211 299 -246 q 232 -125 232 -176 q 274 -28 232 -64 q 99 19 164 -28 q 35 160 35 65 q 133 318 35 269 q 64 460 64 364 q 124 590 64 535 q 282 646 185 646 q 414 609 363 646 q 465 503 465 572 q 443 435 465 464 q 388 406 421 406 q 344 417 363 406 q 326 451 326 429 q 342 488 326 471 q 358 507 358 504 q 335 533 358 522 q 279 544 311 544 q 205 519 235 544 q 175 447 175 494 z "},"":{"ha":364,"x_min":0,"x_max":440,"o":"m 396 136 q 428 124 415 136 q 440 97 440 111 q 404 33 440 67 q 308 -15 368 0 q 243 -51 272 -25 q 214 -118 214 -76 q 271 -174 214 -174 q 338 -150 303 -174 q 369 -157 354 -139 q 378 -193 385 -175 q 338 -235 371 -211 q 257 -260 306 -260 q 154 -225 188 -260 q 121 -139 121 -190 q 171 -25 121 -71 q 46 43 92 -12 q 0 174 0 99 q 7 224 0 197 q 30 283 14 251 q 80 335 46 314 q 161 356 114 356 q 253 321 219 356 q 288 233 288 286 q 186 76 288 135 q 358 121 260 43 q 396 136 378 136 m 186 221 q 178 243 186 233 q 158 253 171 253 q 119 227 136 253 q 103 168 103 201 q 114 124 103 138 q 166 167 146 139 q 186 221 186 196 z "},"":{"ha":479,"x_min":35,"x_max":514,"o":"m 178 447 q 210 385 178 406 q 285 364 243 364 q 326 322 326 364 q 312 277 326 300 q 271 254 297 254 q 224 263 249 254 q 173 229 190 257 q 156 167 156 201 q 276 72 156 72 q 355 84 322 72 q 442 132 388 96 q 468 142 456 142 q 501 126 489 142 q 514 93 514 111 q 490 44 514 65 q 268 -28 417 -28 q 99 19 163 -28 q 35 160 35 65 q 60 256 35 213 q 133 318 86 299 q 64 460 64 361 q 124 590 64 535 q 282 646 185 646 q 414 609 363 646 q 465 503 465 572 q 444 432 465 460 q 385 404 422 404 q 343 417 361 404 q 325 451 325 431 q 340 487 325 469 q 354 507 354 504 q 333 531 354 521 q 279 542 311 542 q 207 517 236 542 q 178 447 178 493 m 178 764 q 176 771 176 767 q 188 795 176 783 q 213 807 200 807 q 269 760 233 807 q 278 771 272 763 l 288 783 q 297 794 290 788 q 308 804 303 800 q 319 811 313 808 q 333 814 326 814 q 366 803 350 814 q 382 779 382 792 q 339 722 382 761 q 272 682 296 682 q 222 710 253 682 q 178 764 192 739 z "},"":{"ha":364,"x_min":0,"x_max":440,"o":"m 396 136 q 428 124 415 136 q 440 97 440 111 q 377 13 440 53 q 208 -28 314 -28 q 56 31 113 -28 q 0 174 0 90 q 7 224 0 197 q 30 283 14 251 q 80 335 46 314 q 161 356 114 356 q 253 321 219 356 q 288 233 288 286 q 186 76 288 135 q 358 121 260 43 q 396 136 378 136 m 186 221 q 178 243 186 233 q 158 253 171 253 q 119 227 136 253 q 103 168 103 201 q 114 124 103 138 q 166 167 146 139 q 186 221 186 196 m 65 483 q 64 490 64 486 q 76 515 64 503 q 100 526 88 526 q 157 479 121 526 q 165 489 160 482 l 175 503 q 184 513 178 507 q 195 524 190 519 q 207 531 200 528 q 221 533 214 533 q 253 522 238 533 q 269 499 269 511 q 226 441 269 481 q 160 401 183 401 q 110 430 140 401 q 65 483 79 458 z "},"":{"ha":667,"x_min":42,"x_max":688,"o":"m 618 319 q 669 311 651 319 q 688 272 688 303 q 600 221 688 221 q 526 42 604 113 q 326 -28 447 -28 q 126 53 210 -28 q 42 289 42 133 q 60 409 42 349 q 113 524 78 469 q 210 612 149 578 q 350 646 272 646 q 500 599 431 646 q 569 500 569 551 q 553 463 569 479 q 514 447 536 447 q 470 461 489 447 q 442 492 451 475 q 411 524 432 510 q 361 538 390 538 q 225 468 283 538 q 167 285 167 399 q 343 78 167 78 q 449 110 411 78 q 486 178 486 143 q 457 219 486 219 q 300 289 300 219 q 361 343 300 343 q 414 335 383 343 q 544 317 481 317 q 580 318 553 317 q 618 319 607 319 m 439 746 q 440 739 440 743 q 428 715 440 726 q 404 703 417 703 q 347 750 383 703 q 339 739 344 747 l 329 726 q 320 716 326 722 q 309 706 314 710 q 297 699 304 701 q 283 696 290 696 q 251 707 267 696 q 235 731 235 718 q 278 788 235 749 q 344 828 321 828 q 394 799 364 828 q 439 746 425 771 z "},"":{"ha":496,"x_min":0,"x_max":572,"o":"m 396 211 q 397 56 396 108 q 458 96 440 81 q 528 136 507 136 q 558 124 544 136 q 572 94 572 113 q 550 44 572 68 q 397 -43 514 6 q 393 -137 396 -118 q 351 -260 388 -215 q 253 -306 314 -306 q 165 -270 201 -306 q 128 -186 128 -235 q 171 -85 128 -128 q 289 0 214 -42 q 286 38 286 22 q 164 -11 242 -11 q 49 32 97 -11 q 0 161 0 75 q 59 318 0 263 q 193 374 118 374 q 299 319 278 374 q 367 379 308 379 q 410 326 410 379 q 396 211 410 322 m 176 96 q 259 144 224 96 q 294 272 294 193 q 253 251 279 251 q 218 263 238 251 q 186 274 199 274 q 132 244 154 274 q 110 174 110 215 q 128 117 110 138 q 176 96 147 96 m 268 -193 q 292 -96 292 -192 q 249 -171 249 -128 q 268 -193 249 -193 m 313 463 q 314 456 314 460 q 302 431 314 443 q 278 419 290 419 q 221 467 257 419 q 213 456 218 464 l 203 443 q 194 433 200 439 q 183 422 188 426 q 171 415 178 418 q 157 413 164 413 q 124 424 140 413 q 108 447 108 435 q 151 505 108 465 q 218 544 194 544 q 268 516 238 544 q 313 463 299 488 z "},"":{"ha":667,"x_min":42,"x_max":688,"o":"m 618 319 q 669 311 651 319 q 688 272 688 303 q 600 221 688 221 q 526 42 604 113 q 326 -28 447 -28 q 126 53 210 -28 q 42 289 42 133 q 60 409 42 349 q 113 524 78 469 q 210 612 149 578 q 350 646 272 646 q 500 599 431 646 q 569 500 569 551 q 553 463 569 479 q 514 447 536 447 q 470 461 489 447 q 442 492 451 475 q 411 524 432 510 q 361 538 390 538 q 225 468 283 538 q 167 285 167 399 q 343 78 167 78 q 449 110 411 78 q 486 178 486 143 q 457 219 486 219 q 300 289 300 219 q 361 343 300 343 q 414 335 383 343 q 544 317 481 317 q 580 318 553 317 q 618 319 607 319 m 419 806 q 440 796 431 806 q 450 772 450 786 q 416 724 450 750 q 338 699 382 699 q 222 757 261 699 q 217 775 217 765 q 228 804 217 792 q 251 817 239 817 q 288 794 260 817 q 340 771 317 771 q 397 793 368 771 q 419 806 415 806 z "},"":{"ha":496,"x_min":0,"x_max":572,"o":"m 396 211 q 397 56 396 108 q 458 96 440 81 q 528 136 507 136 q 558 124 544 136 q 572 94 572 113 q 550 44 572 68 q 397 -43 514 6 q 393 -137 396 -118 q 351 -260 388 -215 q 253 -306 314 -306 q 165 -270 201 -306 q 128 -186 128 -235 q 171 -85 128 -128 q 289 0 214 -42 q 286 38 286 22 q 164 -11 242 -11 q 49 32 97 -11 q 0 161 0 75 q 59 318 0 263 q 193 374 118 374 q 299 319 278 374 q 367 379 308 379 q 410 326 410 379 q 396 211 410 322 m 176 96 q 259 144 224 96 q 294 272 294 193 q 253 251 279 251 q 218 263 238 251 q 186 274 199 274 q 132 244 154 274 q 110 174 110 215 q 128 117 110 138 q 176 96 147 96 m 268 -193 q 292 -96 292 -192 q 249 -171 249 -128 q 268 -193 249 -193 m 301 538 q 322 528 313 538 q 332 504 332 518 q 298 456 332 482 q 219 431 264 431 q 104 489 143 431 q 99 507 99 497 q 110 536 99 524 q 133 549 121 549 q 169 526 142 549 q 222 503 197 503 q 279 525 250 503 q 301 538 297 538 z "},"":{"ha":667,"x_min":42,"x_max":688,"o":"m 618 319 q 669 311 651 319 q 688 272 688 303 q 600 221 688 221 q 526 42 604 113 q 326 -28 447 -28 q 126 53 210 -28 q 42 289 42 133 q 60 409 42 349 q 113 524 78 469 q 210 612 149 578 q 350 646 272 646 q 500 599 431 646 q 569 500 569 551 q 553 463 569 479 q 514 447 536 447 q 470 461 489 447 q 442 492 451 475 q 411 524 432 510 q 361 538 390 538 q 225 468 283 538 q 167 285 167 399 q 343 78 167 78 q 449 110 411 78 q 486 178 486 143 q 457 219 486 219 q 300 289 300 219 q 361 343 300 343 q 414 335 383 343 q 544 317 481 317 q 580 318 553 317 q 618 319 607 319 m 343 811 q 401 756 401 811 q 379 712 401 728 q 336 696 357 696 q 282 747 282 696 q 301 792 282 774 q 343 811 321 810 z "},"":{"ha":496,"x_min":0,"x_max":572,"o":"m 396 211 q 397 56 396 108 q 458 96 440 81 q 528 136 507 136 q 558 124 544 136 q 572 94 572 113 q 550 44 572 68 q 397 -43 514 6 q 393 -137 396 -118 q 351 -260 388 -215 q 253 -306 314 -306 q 165 -270 201 -306 q 128 -186 128 -235 q 171 -85 128 -128 q 289 0 214 -42 q 286 38 286 22 q 164 -11 242 -11 q 49 32 97 -11 q 0 161 0 75 q 59 318 0 263 q 193 374 118 374 q 299 319 278 374 q 367 379 308 379 q 410 326 410 379 q 396 211 410 322 m 176 96 q 259 144 224 96 q 294 272 294 193 q 253 251 279 251 q 218 263 238 251 q 186 274 199 274 q 132 244 154 274 q 110 174 110 215 q 128 117 110 138 q 176 96 147 96 m 268 -193 q 292 -96 292 -192 q 249 -171 249 -128 q 268 -193 249 -193 m 231 546 q 289 490 289 546 q 267 447 289 463 q 224 431 244 431 q 169 482 169 431 q 189 526 169 508 q 231 546 208 544 z "},"":{"ha":667,"x_min":42,"x_max":688,"o":"m 618 319 q 669 311 651 319 q 688 272 688 303 q 600 221 688 221 q 526 42 604 113 q 326 -28 447 -28 q 126 53 210 -28 q 42 289 42 133 q 60 409 42 349 q 113 524 78 469 q 210 612 149 578 q 350 646 272 646 q 500 599 431 646 q 569 500 569 551 q 553 463 569 479 q 514 447 536 447 q 470 461 489 447 q 442 492 451 475 q 411 524 432 510 q 361 538 390 538 q 225 468 283 538 q 167 285 167 399 q 343 78 167 78 q 449 110 411 78 q 486 178 486 143 q 457 219 486 219 q 300 289 300 219 q 361 343 300 343 q 414 335 383 343 q 544 317 481 317 q 580 318 553 317 q 618 319 607 319 m 333 -69 q 381 -90 363 -69 q 400 -139 400 -110 q 372 -219 400 -181 q 319 -258 343 -258 q 290 -235 290 -258 q 302 -211 290 -226 q 317 -187 314 -196 q 263 -137 263 -176 q 285 -87 263 -104 q 333 -69 308 -69 z "},"":{"ha":496,"x_min":0,"x_max":572,"o":"m 396 211 q 397 56 396 108 q 458 96 440 81 q 528 136 507 136 q 558 124 544 136 q 572 94 572 113 q 550 44 572 68 q 397 -43 514 6 q 393 -137 396 -118 q 351 -260 388 -215 q 253 -306 314 -306 q 165 -270 201 -306 q 128 -186 128 -235 q 171 -85 128 -128 q 289 0 214 -42 q 286 38 286 22 q 164 -11 242 -11 q 49 32 97 -11 q 0 161 0 75 q 59 318 0 263 q 193 374 118 374 q 299 319 278 374 q 367 379 308 379 q 410 326 410 379 q 396 211 410 322 m 176 96 q 259 144 224 96 q 294 272 294 193 q 253 251 279 251 q 218 263 238 251 q 186 274 199 274 q 132 244 154 274 q 110 174 110 215 q 128 117 110 138 q 176 96 147 96 m 268 -193 q 292 -96 292 -192 q 249 -171 249 -128 q 268 -193 249 -193 m 190 432 q 142 452 161 432 q 124 501 124 472 q 152 582 124 543 q 204 621 181 621 q 233 597 233 621 q 222 574 233 589 q 207 550 210 558 q 261 500 261 539 q 238 449 261 467 q 190 432 215 432 z "},"":{"ha":643,"x_min":0,"x_max":643,"o":"m 607 357 q 633 344 624 357 q 643 314 643 332 q 503 229 643 256 q 506 126 503 196 q 510 33 510 56 q 456 -24 510 -24 q 397 19 397 -24 q 396 215 397 146 q 293 211 346 211 q 211 214 258 211 q 213 116 211 189 q 214 33 214 43 q 203 -12 214 3 q 164 -28 193 -28 q 96 47 96 -28 q 97 118 96 58 q 99 225 99 178 q 20 251 40 236 q 0 290 0 267 q 12 326 0 310 q 53 342 24 342 q 99 336 78 342 q 93 513 99 422 q 88 613 88 603 q 140 667 88 667 q 200 638 188 667 q 213 519 213 610 q 212 406 213 471 q 211 325 211 340 q 289 322 228 322 q 393 326 343 322 q 390 526 390 438 q 447 618 390 618 q 515 549 515 618 q 510 467 515 543 q 504 338 504 390 q 557 348 521 339 q 607 357 593 357 m 417 736 q 418 729 418 733 q 406 705 418 717 q 382 693 394 693 q 325 740 361 693 q 317 731 322 738 l 307 718 q 298 706 304 713 q 287 696 292 700 q 275 689 282 692 q 261 686 268 686 q 228 697 244 686 q 213 721 213 708 q 256 778 213 739 q 322 818 299 818 q 372 790 342 818 q 417 736 403 761 z "},"":{"ha":482,"x_min":0,"x_max":558,"o":"m 518 136 q 547 124 536 136 q 558 97 558 113 q 504 16 558 56 q 389 -24 450 -24 q 297 9 326 -24 q 268 93 268 42 q 274 163 268 118 q 281 222 281 207 q 250 267 281 267 q 171 220 210 267 q 121 121 132 174 q 124 74 124 88 q 69 -10 124 -10 q 13 57 25 -10 q 0 342 0 124 q 8 554 0 486 q 53 674 18 636 q 125 713 88 713 q 189 572 189 713 q 107 325 189 493 q 110 264 107 282 q 278 388 183 388 q 389 278 389 388 q 381 195 389 247 q 374 128 374 143 q 406 85 374 85 q 465 110 432 85 q 518 136 497 136 m 213 800 q 214 793 214 797 q 202 769 214 781 q 178 757 190 757 q 121 804 157 757 q 113 794 118 801 l 103 782 q 94 770 100 776 q 83 760 88 764 q 71 753 78 756 q 57 750 64 750 q 24 761 40 750 q 8 785 8 772 q 51 842 8 803 q 118 882 94 882 q 168 853 138 882 q 213 800 199 825 z "},"":{"ha":635,"x_min":0,"x_max":635,"o":"m 590 489 q 499 411 590 438 q 498 365 499 397 q 497 314 497 332 q 549 324 514 315 q 599 333 585 333 q 625 322 615 333 q 635 293 635 310 q 496 208 635 235 q 498 149 496 199 q 500 71 500 100 q 449 -17 500 -17 q 392 29 392 -17 q 390 194 392 122 q 289 190 340 190 q 206 193 253 190 q 199 -4 206 15 q 161 -21 189 -21 q 94 72 94 -21 q 96 129 94 79 q 97 204 97 179 q 19 230 39 217 q 0 268 0 243 q 51 318 0 318 q 97 313 76 318 q 96 392 97 367 q 0 449 0 410 q 46 493 0 493 q 68 490 53 493 q 93 486 83 488 q 90 565 92 518 q 89 624 89 611 q 104 674 89 651 q 143 697 119 697 q 195 651 183 697 q 207 475 207 606 l 258 474 q 386 481 319 472 l 386 500 l 386 521 l 386 546 q 387 568 386 553 q 389 592 388 583 l 393 613 q 399 632 394 625 q 408 647 403 639 q 422 657 414 654 q 440 660 431 660 q 508 588 508 660 q 508 570 508 582 q 506 538 507 558 q 503 500 504 517 q 558 514 554 514 q 590 489 583 514 m 388 301 q 386 389 386 326 q 263 382 308 381 l 206 383 l 206 300 q 285 297 222 297 q 388 301 338 297 z "},"":{"ha":493,"x_min":-96,"x_max":569,"o":"m 389 -24 q 301 11 335 -24 q 267 107 267 46 q 267 138 267 117 q 268 179 268 160 q 225 251 268 251 q 170 228 200 251 q 124 169 140 204 q 111 25 124 64 q 51 -14 99 -14 q 14 6 28 -14 q 0 46 0 25 q 10 190 0 96 q 21 319 21 285 q 20 351 21 333 q 18 392 19 369 q 17 426 17 414 q -96 496 -96 440 q -42 535 -96 535 q 10 531 -21 535 l 8 569 q 75 694 4 694 q 129 588 129 694 l 129 518 q 167 519 147 518 q 189 519 186 519 q 236 488 236 519 q 206 447 236 465 q 126 425 175 429 q 126 356 126 401 q 125 288 125 310 q 247 372 181 372 q 340 331 306 372 q 376 211 375 290 q 385 108 378 131 q 413 85 393 85 q 474 110 442 85 q 529 136 507 136 q 558 124 547 136 q 569 97 569 113 q 513 16 569 56 q 389 -24 457 -24 z "},"":{"ha":368,"x_min":7,"x_max":310,"o":"m 79 244 q 26 289 46 244 q 7 394 7 333 q 50 568 7 490 q 171 646 93 646 q 276 560 243 646 q 310 342 310 475 q 271 38 310 181 q 260 6 265 18 q 244 -17 256 -6 q 214 -28 232 -28 q 166 -10 186 -28 q 146 28 146 7 q 151 58 146 42 q 197 361 197 196 q 156 524 197 524 q 129 489 140 524 q 118 411 118 454 q 136 311 118 347 q 140 294 140 303 q 121 260 140 275 q 79 244 101 244 m 238 721 q 190 731 221 721 q 142 740 160 740 q 108 731 126 740 q 86 721 90 721 q 67 731 75 721 q 60 753 60 740 q 85 802 60 778 q 136 826 111 826 q 183 815 156 826 q 229 803 211 803 q 260 813 242 803 q 286 822 279 822 q 301 811 292 822 q 310 783 310 800 q 287 742 310 763 q 238 721 264 721 z "},"":{"ha":208,"x_min":-36,"x_max":319,"o":"m 276 136 q 306 124 292 136 q 319 97 319 113 q 311 65 319 82 q 255 10 299 40 q 156 -21 211 -21 q 40 46 79 -21 q 0 211 0 113 q 18 332 0 304 q 78 360 35 360 q 116 343 103 360 q 129 308 129 326 q 120 244 129 300 q 111 157 111 189 q 163 81 111 81 q 220 108 186 81 q 276 136 254 136 m 142 421 q 94 431 125 421 q 46 440 64 440 q 13 431 31 440 q -10 421 -6 421 q -28 431 -21 421 q -36 453 -36 440 q -10 502 -36 478 q 40 526 15 526 q 88 515 60 526 q 133 503 115 503 q 165 513 146 503 q 190 522 183 522 q 205 511 196 522 q 214 483 214 500 q 191 442 214 463 q 142 421 168 421 z "},"":{"ha":368,"x_min":7,"x_max":310,"o":"m 79 244 q 26 289 46 244 q 7 394 7 333 q 50 568 7 490 q 171 646 93 646 q 276 560 243 646 q 310 342 310 475 q 271 38 310 181 q 260 6 265 18 q 244 -17 256 -6 q 214 -28 232 -28 q 166 -10 186 -28 q 146 28 146 7 q 151 58 146 42 q 197 361 197 196 q 156 524 197 524 q 129 489 140 524 q 118 411 118 454 q 136 311 118 347 q 140 294 140 303 q 121 260 140 275 q 79 244 101 244 m 76 813 q 161 814 94 814 q 257 813 228 814 q 290 772 289 808 q 257 733 290 736 q 68 731 117 725 q 42 771 40 735 q 76 813 43 807 z "},"":{"ha":208,"x_min":-39,"x_max":321,"o":"m 278 136 q 307 124 293 136 q 321 97 321 113 q 313 65 321 82 q 256 10 300 40 q 157 -21 213 -21 q 41 46 81 -21 q 1 211 1 113 q 19 332 1 304 q 79 360 36 360 q 117 343 104 360 q 131 308 131 326 q 122 244 131 300 q 113 157 113 189 q 164 81 113 81 q 222 108 188 81 q 278 136 256 136 m -3 513 q 82 514 15 514 q 178 513 149 514 q 210 472 210 508 q 178 433 211 436 q -11 431 38 425 q -37 471 -39 435 q -3 513 -36 507 z "},"":{"ha":368,"x_min":7,"x_max":310,"o":"m 79 244 q 26 289 46 244 q 7 394 7 333 q 50 568 7 490 q 171 646 93 646 q 276 560 243 646 q 310 342 310 475 q 271 38 310 181 q 260 6 265 18 q 244 -17 256 -6 q 214 -28 232 -28 q 166 -10 186 -28 q 146 28 146 7 q 151 58 146 42 q 197 361 197 196 q 156 524 197 524 q 129 489 140 524 q 118 411 118 454 q 136 311 118 347 q 140 294 140 303 q 121 260 140 275 q 79 244 101 244 m 261 826 q 282 817 272 826 q 292 793 292 807 q 258 745 292 771 q 179 719 224 719 q 64 778 103 719 q 58 796 58 786 q 69 825 58 813 q 93 838 81 838 q 130 815 101 838 q 182 792 158 792 q 239 814 210 792 q 261 826 257 826 z "},"":{"ha":208,"x_min":-12,"x_max":319,"o":"m 276 136 q 306 124 292 136 q 319 97 319 113 q 311 65 319 82 q 255 10 299 40 q 156 -21 211 -21 q 40 46 79 -21 q 0 211 0 113 q 18 332 0 304 q 78 360 35 360 q 116 343 103 360 q 129 308 129 326 q 120 244 129 300 q 111 157 111 189 q 163 81 111 81 q 220 108 186 81 q 276 136 254 136 m 190 524 q 211 514 201 524 q 221 490 221 504 q 187 442 221 468 q 108 417 153 417 q -7 475 32 417 q -12 493 -12 483 q -1 522 -12 510 q 22 535 10 535 q 58 512 31 535 q 111 489 86 489 q 168 511 139 489 q 190 524 186 524 z "},"":{"ha":368,"x_min":7,"x_max":310,"o":"m 153 3 q 146 26 146 14 q 153 63 146 39 q 174 136 168 111 q 188 224 181 161 q 194 369 194 288 q 158 524 194 524 q 131 488 143 524 q 118 411 118 453 q 136 311 118 349 q 140 294 140 303 q 121 260 140 275 q 79 244 101 244 q 26 289 46 244 q 7 394 7 333 q 50 568 7 490 q 171 646 93 646 q 276 560 243 646 q 310 342 310 475 q 271 44 310 188 q 225 -26 254 -18 q 131 -131 131 -54 q 188 -185 131 -185 q 254 -161 219 -185 q 286 -168 271 -150 q 294 -204 301 -186 q 255 -247 288 -222 q 174 -271 222 -271 q 71 -236 104 -271 q 38 -150 38 -201 q 69 -57 38 -99 q 153 3 100 -15 z "},"":{"ha":243,"x_min":0,"x_max":319,"o":"m 276 136 q 306 124 292 136 q 319 97 319 113 q 311 65 319 82 q 272 23 301 47 q 206 -14 243 -1 q 119 -118 119 -43 q 135 -155 119 -142 q 176 -168 151 -168 q 243 -144 208 -168 q 275 -151 260 -133 q 283 -187 290 -169 q 244 -230 276 -206 q 163 -254 211 -254 q 60 -219 93 -254 q 26 -133 26 -185 q 92 -6 26 -53 q 0 211 0 42 q 18 332 0 304 q 78 360 35 360 q 116 343 103 360 q 129 308 129 326 q 120 244 129 300 q 111 157 111 189 q 163 81 111 81 q 220 108 186 81 q 276 136 254 136 m 147 481 q 127 427 147 450 q 74 404 107 404 q 28 422 46 404 q 11 463 11 439 q 35 515 11 493 q 90 536 60 536 q 133 519 119 536 q 147 481 147 501 z "},"":{"ha":368,"x_min":7,"x_max":310,"o":"m 79 244 q 26 289 46 244 q 7 394 7 333 q 50 568 7 490 q 171 646 93 646 q 276 560 243 646 q 310 342 310 475 q 271 38 310 181 q 260 6 265 18 q 244 -17 256 -6 q 214 -28 232 -28 q 166 -10 186 -28 q 146 28 146 7 q 151 58 146 42 q 197 361 197 196 q 156 524 197 524 q 129 489 140 524 q 118 411 118 454 q 136 311 118 347 q 140 294 140 303 q 121 260 140 275 q 79 244 101 244 m 183 825 q 242 769 242 825 q 219 726 242 742 q 176 710 197 710 q 122 761 122 710 q 142 806 122 788 q 183 825 161 824 z "},"":{"ha":243,"x_min":0,"x_max":319,"o":"m 276 136 q 306 124 292 136 q 319 97 319 113 q 311 65 319 82 q 255 10 299 40 q 156 -21 211 -21 q 40 46 79 -21 q 0 211 0 113 q 18 332 0 304 q 78 360 35 360 q 116 343 103 360 q 129 308 129 326 q 120 244 129 300 q 111 157 111 189 q 163 81 111 81 q 220 108 186 81 q 276 136 254 136 z "},"":{"ha":838,"x_min":7,"x_max":914,"o":"m 79 244 q 26 289 46 244 q 7 394 7 333 q 50 568 7 490 q 171 646 93 646 q 276 560 243 646 q 310 342 310 475 q 272 49 310 183 q 238 -21 256 -10 q 214 -28 226 -28 q 166 -10 186 -28 q 146 28 146 7 q 149 50 146 42 q 174 135 167 108 q 188 224 181 163 q 194 369 194 286 q 158 524 194 524 q 131 488 143 524 q 118 411 118 453 q 136 311 118 349 q 140 294 140 303 q 121 260 140 275 q 79 244 101 244 m 869 136 q 902 124 890 136 q 914 94 914 111 q 897 52 914 75 q 856 14 881 29 q 765 -23 822 -6 q 701 -42 707 -40 q 610 -219 668 -146 q 474 -292 551 -292 q 401 -262 429 -292 q 372 -187 372 -233 q 613 35 372 -46 q 656 322 656 175 q 633 488 656 424 q 568 553 610 553 q 497 506 524 553 q 471 394 471 460 q 557 211 471 267 q 586 164 586 190 q 567 126 586 142 q 526 111 547 111 q 414 183 476 111 q 351 379 351 256 q 417 578 351 494 q 563 661 482 661 q 711 580 654 661 q 768 357 768 499 q 733 71 768 225 q 801 97 775 81 q 840 125 826 114 q 869 136 853 136 m 492 -178 q 571 -86 535 -178 q 504 -128 526 -106 q 482 -168 482 -151 q 492 -178 482 -178 z "},"":{"ha":549,"x_min":0,"x_max":625,"o":"m 603 44 q 450 -46 565 3 q 449 -90 450 -69 l 446 -122 q 446 -137 446 -133 q 401 -261 440 -217 q 292 -306 363 -306 q 188 -272 222 -306 q 153 -186 153 -237 q 201 -78 153 -122 q 331 4 249 -33 l 324 63 q 156 -21 236 -21 q 40 46 79 -21 q 0 211 0 113 q 18 332 0 304 q 78 360 35 360 q 116 343 103 360 q 129 308 129 326 q 120 244 129 300 q 111 157 111 189 q 167 81 111 81 q 268 124 231 81 q 311 210 306 168 q 310 235 311 215 q 308 264 308 254 q 325 303 308 288 q 376 319 342 319 q 405 315 393 319 q 422 303 417 311 q 430 290 428 294 q 435 275 432 285 q 450 58 449 203 q 511 96 489 75 q 581 136 560 136 q 611 124 597 136 q 625 94 625 113 q 603 44 625 68 m 379 379 q 308 446 308 379 q 328 504 308 486 q 378 522 349 522 q 437 504 413 522 q 461 454 461 486 q 440 399 461 419 q 379 379 419 379 m 147 481 q 127 427 147 450 q 74 404 107 404 q 28 422 46 404 q 11 463 11 439 q 35 515 11 493 q 90 536 60 536 q 133 519 119 536 q 147 481 147 501 m 340 -147 q 339 -97 340 -114 q 274 -171 274 -132 q 307 -200 274 -200 q 340 -147 340 -200 z "},"":{"ha":503,"x_min":17,"x_max":579,"o":"m 535 136 q 567 124 556 136 q 579 94 579 111 q 563 52 579 75 q 521 14 546 29 q 430 -23 488 -6 q 367 -42 372 -40 q 275 -219 333 -146 q 139 -292 217 -292 q 66 -262 94 -292 q 38 -187 38 -233 q 278 35 38 -46 q 321 308 321 175 q 298 474 321 410 q 233 539 275 539 q 163 492 189 539 q 136 381 136 446 q 222 197 136 253 q 251 150 251 176 q 232 113 251 128 q 192 97 213 97 q 79 169 142 97 q 17 365 17 242 q 82 564 17 481 q 228 647 147 647 q 376 566 319 647 q 433 343 433 485 q 399 71 433 225 q 466 97 440 81 q 505 125 492 114 q 535 136 518 136 m 157 -178 q 236 -86 200 -178 q 169 -128 192 -106 q 147 -168 147 -151 q 157 -178 147 -178 m 328 757 q 329 750 329 754 q 317 726 329 738 q 293 714 306 714 q 236 761 272 714 q 228 750 233 758 l 218 738 q 209 727 215 733 q 198 717 203 721 q 186 710 193 713 q 172 707 179 707 q 140 718 156 707 q 124 742 124 729 q 167 799 124 760 q 233 839 210 839 q 283 810 253 839 q 328 757 314 782 z "},"":{"ha":319,"x_min":-76,"x_max":396,"o":"m 374 44 q 221 -46 336 3 q 219 -90 221 -69 l 217 -122 q 217 -137 217 -133 q 172 -261 211 -217 q 63 -306 133 -306 q -42 -272 -7 -306 q -76 -186 -76 -237 q -28 -78 -76 -122 q 101 4 19 -33 q 81 264 81 208 q 98 301 81 282 q 147 319 115 319 q 176 315 164 319 q 193 303 188 311 q 201 290 199 294 q 206 275 203 285 q 221 58 219 203 q 282 96 260 75 q 351 136 331 136 q 382 124 368 136 q 396 94 396 113 q 374 44 396 68 m 111 -147 q 110 -97 111 -114 q 44 -171 44 -132 q 78 -200 44 -200 q 111 -147 111 -200 m 221 438 q 222 431 222 435 q 210 406 222 418 q 186 394 199 394 q 129 442 165 394 q 121 432 126 439 l 111 419 q 102 408 108 414 q 91 397 96 401 q 79 390 86 393 q 65 388 72 388 q 33 399 49 388 q 17 422 17 410 q 60 480 17 440 q 126 519 103 519 q 176 491 146 519 q 221 438 207 463 z "},"":{"ha":569,"x_min":-62,"x_max":611,"o":"m 104 382 q 76 528 104 528 q 42 508 69 528 q -10 489 15 489 q -49 508 -36 489 q -62 553 -62 528 q -31 594 -62 578 q -3 608 -22 599 l 33 624 q 106 642 69 642 q 197 563 183 642 q 204 494 203 526 q 203 413 206 461 q 200 361 200 365 q 371 540 267 446 q 507 635 475 635 q 547 620 532 635 q 563 583 563 606 q 535 528 563 556 q 435 454 533 526 q 281 319 338 382 q 357 336 314 336 q 451 268 429 336 q 472 201 460 243 q 491 141 485 158 q 509 99 497 124 q 535 63 521 75 q 569 42 549 50 q 607 19 603 28 q 611 0 611 13 q 594 -35 611 -21 q 549 -49 576 -49 q 446 -6 485 -49 q 382 139 407 36 q 349 224 365 204 q 292 243 333 243 q 208 208 243 243 q 199 153 199 199 q 200 90 199 133 q 201 42 201 46 q 132 -14 201 -14 q 83 28 83 -14 q 94 171 83 38 q 104 382 104 304 m 315 -56 q 363 -76 344 -56 q 382 -125 382 -96 q 353 -206 382 -167 q 301 -244 325 -244 q 272 -221 272 -244 q 284 -197 272 -212 q 299 -174 296 -182 q 244 -124 244 -162 q 267 -73 244 -90 q 315 -56 290 -56 z "},"":{"ha":449,"x_min":14,"x_max":524,"o":"m 479 136 q 509 125 494 136 q 524 99 524 114 q 492 35 524 64 q 335 -26 428 -26 q 206 28 257 -26 q 156 131 156 83 q 169 167 156 151 q 197 185 183 182 q 253 210 228 190 q 278 249 278 229 q 261 264 278 264 q 201 235 239 264 q 128 150 164 207 q 129 100 128 133 q 131 56 131 67 q 72 -11 131 -11 q 15 54 15 -11 q 17 94 15 60 q 19 178 18 128 q 21 278 21 229 q 17 500 21 406 l 14 593 q 51 695 14 657 q 126 733 88 733 q 190 700 165 733 q 225 596 225 650 q 135 286 225 449 q 230 364 197 344 q 299 383 263 383 q 358 356 336 383 q 381 289 381 329 q 357 207 381 242 q 258 122 306 131 q 333 71 281 71 q 421 103 375 71 q 479 136 467 136 m 107 403 q 135 560 135 489 q 121 599 135 599 q 111 575 114 599 q 108 492 108 551 q 107 403 108 433 m 229 -69 q 277 -90 258 -69 q 296 -139 296 -110 q 267 -219 296 -181 q 215 -258 239 -258 q 186 -235 186 -258 q 198 -211 186 -226 q 213 -187 210 -196 q 158 -137 158 -176 q 181 -87 158 -104 q 229 -69 204 -69 z "},"":{"ha":419,"x_min":14,"x_max":496,"o":"m 417 122 q 453 136 436 136 q 482 125 468 136 q 496 96 496 114 q 493 79 496 88 q 433 10 481 43 q 326 -22 386 -22 q 226 11 274 -22 q 179 86 179 44 q 188 115 179 100 q 215 158 200 136 q 238 191 231 179 q 246 213 246 203 q 228 233 246 233 q 179 201 211 233 q 122 122 147 168 q 121 43 121 96 q 106 -6 121 13 q 72 -25 90 -25 q 26 35 38 -25 q 14 213 14 96 q 15 301 14 240 q 15 392 15 361 q 25 434 15 419 q 67 449 35 449 q 129 364 129 449 q 126 308 129 343 q 124 260 124 272 q 258 346 204 346 q 322 313 294 346 q 349 243 349 281 q 319 174 349 217 q 289 108 289 128 q 303 88 289 96 q 336 79 318 79 q 417 122 361 79 z "},"":{"ha":472,"x_min":-49,"x_max":563,"o":"m 514 111 q 548 98 533 111 q 563 63 563 85 q 519 -7 563 21 q 410 -35 476 -35 q 329 -28 367 -35 q 271 -16 292 -22 q 204 7 250 -10 q 72 -76 165 -76 q -18 -48 13 -76 q -49 21 -49 -19 q -11 107 -49 71 q 88 143 26 143 q 115 142 107 143 q 92 265 115 179 q 69 403 69 351 q 135 590 69 521 q 297 660 200 660 q 412 617 365 660 q 458 501 458 574 q 413 376 458 429 q 299 322 368 322 q 267 336 281 322 q 253 382 253 350 q 282 418 253 408 q 347 496 347 440 q 285 546 347 546 q 213 509 242 546 q 183 406 183 472 q 201 257 183 349 q 219 124 218 165 l 219 111 q 403 65 324 65 q 464 88 436 65 q 514 111 492 111 m 72 13 q 114 53 106 13 q 71 56 93 63 q 49 32 49 49 q 72 13 49 13 m 229 756 q 281 820 249 786 q 333 854 313 854 q 363 842 353 854 q 372 817 372 831 q 364 793 372 804 q 303 740 342 764 q 246 717 265 717 q 231 723 238 717 q 224 740 224 729 q 229 756 224 749 z "},"":{"ha":308,"x_min":-57,"x_max":371,"o":"m 200 -24 q 74 43 126 -24 q -10 -17 17 -17 q -42 2 -26 -17 q -57 39 -57 21 q -48 62 -57 51 q -16 91 -39 72 q 25 131 7 110 q -14 361 -14 236 q 35 619 -14 510 q 163 729 83 729 q 219 709 196 729 q 254 658 243 689 q 269 601 265 628 q 274 549 274 574 q 233 334 274 456 q 129 121 192 213 q 194 76 154 76 q 268 106 226 76 q 329 136 310 136 q 359 123 347 136 q 371 94 371 110 q 316 15 371 54 q 200 -24 261 -24 m 88 390 q 97 233 88 296 q 175 524 175 369 q 149 599 175 599 q 105 538 122 599 q 88 390 88 476 m 156 810 q 207 874 175 840 q 260 908 239 908 q 289 897 279 908 q 299 871 299 885 q 290 847 299 858 q 230 794 268 818 q 172 771 192 771 q 157 777 164 771 q 150 794 150 783 q 156 810 150 803 z "},"":{"ha":472,"x_min":-49,"x_max":563,"o":"m 514 111 q 548 98 533 111 q 563 63 563 85 q 519 -7 563 21 q 410 -35 476 -35 q 329 -28 367 -35 q 271 -16 292 -22 q 204 7 250 -10 q 72 -76 165 -76 q -18 -48 13 -76 q -49 21 -49 -19 q -11 107 -49 71 q 88 143 26 143 q 115 142 107 143 q 92 265 115 179 q 69 403 69 351 q 135 590 69 521 q 297 660 200 660 q 412 617 365 660 q 458 501 458 574 q 413 376 458 429 q 299 322 368 322 q 267 336 281 322 q 253 382 253 350 q 282 418 253 408 q 347 496 347 440 q 285 546 347 546 q 213 509 242 546 q 183 406 183 472 q 201 257 183 349 q 219 124 218 165 l 219 111 q 403 65 324 65 q 464 88 436 65 q 514 111 492 111 m 72 13 q 114 53 106 13 q 71 56 93 63 q 49 32 49 49 q 72 13 49 13 m 271 -69 q 319 -90 300 -69 q 338 -139 338 -110 q 309 -219 338 -181 q 257 -258 281 -258 q 228 -235 228 -258 q 240 -211 228 -226 q 254 -187 251 -196 q 200 -137 200 -176 q 223 -87 200 -104 q 271 -69 246 -69 z "},"":{"ha":308,"x_min":-57,"x_max":371,"o":"m 200 -24 q 74 43 126 -24 q -10 -17 17 -17 q -42 2 -26 -17 q -57 39 -57 21 q -48 62 -57 51 q -16 91 -39 72 q 25 131 7 110 q -14 361 -14 236 q 35 619 -14 510 q 163 729 83 729 q 219 709 196 729 q 254 658 243 689 q 269 601 265 628 q 274 549 274 574 q 233 334 274 456 q 129 121 192 213 q 194 76 154 76 q 268 106 226 76 q 329 136 310 136 q 359 123 347 136 q 371 94 371 110 q 316 15 371 54 q 200 -24 261 -24 m 88 390 q 97 233 88 296 q 175 524 175 369 q 149 599 175 599 q 105 538 122 599 q 88 390 88 476 m 131 -69 q 178 -90 160 -69 q 197 -139 197 -110 q 169 -219 197 -181 q 117 -258 140 -258 q 88 -235 88 -258 q 99 -211 88 -226 q 114 -187 111 -196 q 60 -137 60 -176 q 83 -87 60 -104 q 131 -69 106 -69 z "},"":{"ha":472,"x_min":-49,"x_max":638,"o":"m 514 111 q 548 98 533 111 q 563 63 563 85 q 519 -7 563 21 q 410 -35 476 -35 q 329 -28 367 -35 q 271 -16 292 -22 q 204 7 250 -10 q 72 -76 165 -76 q -18 -48 13 -76 q -49 21 -49 -19 q -11 107 -49 71 q 88 143 26 143 q 115 142 107 143 q 92 265 115 179 q 69 403 69 351 q 135 590 69 521 q 297 660 200 660 q 412 617 365 660 q 458 501 458 574 q 413 376 458 429 q 299 322 368 322 q 267 336 281 322 q 253 382 253 350 q 282 418 253 408 q 347 496 347 440 q 285 546 347 546 q 213 509 242 546 q 183 406 183 472 q 201 257 183 349 q 219 124 218 165 l 219 111 q 403 65 324 65 q 464 88 436 65 q 514 111 492 111 m 72 13 q 114 53 106 13 q 71 56 93 63 q 49 32 49 49 q 72 13 49 13 m 571 603 q 619 583 600 603 q 638 533 638 563 q 609 453 638 492 q 557 414 581 414 q 528 438 528 414 q 540 461 528 446 q 554 485 551 476 q 500 535 500 496 q 523 585 500 568 q 571 603 546 603 z "},"":{"ha":308,"x_min":-57,"x_max":446,"o":"m 200 -24 q 74 43 126 -24 q -10 -17 17 -17 q -42 2 -26 -17 q -57 39 -57 21 q -48 62 -57 51 q -16 91 -39 72 q 25 131 7 110 q -14 361 -14 236 q 35 619 -14 510 q 163 729 83 729 q 219 709 196 729 q 254 658 243 689 q 269 601 265 628 q 274 549 274 574 q 233 334 274 456 q 129 121 192 213 q 194 76 154 76 q 268 106 226 76 q 329 136 310 136 q 359 123 347 136 q 371 94 371 110 q 316 15 371 54 q 200 -24 261 -24 m 88 390 q 97 233 88 296 q 175 524 175 369 q 149 599 175 599 q 105 538 122 599 q 88 390 88 476 m 379 668 q 427 648 408 668 q 446 599 446 628 q 417 518 446 557 q 365 479 389 479 q 336 503 336 479 q 348 526 336 511 q 363 550 360 542 q 308 600 308 561 q 331 651 308 633 q 379 668 354 668 z "},"":{"ha":472,"x_min":-49,"x_max":563,"o":"m 514 111 q 548 98 533 111 q 563 63 563 85 q 519 -7 563 21 q 410 -35 476 -35 q 329 -28 367 -35 q 271 -16 292 -22 q 204 7 250 -10 q 72 -76 165 -76 q -18 -48 13 -76 q -49 21 -49 -19 q -11 107 -49 71 q 88 143 26 143 q 115 142 107 143 q 92 265 115 179 q 69 403 69 351 q 135 590 69 521 q 297 660 200 660 q 412 617 365 660 q 458 501 458 574 q 413 376 458 429 q 299 322 368 322 q 267 336 281 322 q 253 382 253 350 q 282 418 253 408 q 347 496 347 440 q 285 546 347 546 q 213 509 242 546 q 183 406 183 472 q 201 257 183 349 q 219 124 218 165 l 219 111 q 403 65 324 65 q 464 88 436 65 q 514 111 492 111 m 72 13 q 114 53 106 13 q 71 56 93 63 q 49 32 49 49 q 72 13 49 13 m 375 275 q 433 219 433 275 q 411 176 433 192 q 368 160 389 160 q 314 211 314 160 q 333 256 314 238 q 375 275 353 274 z "},"":{"ha":308,"x_min":-57,"x_max":383,"o":"m 200 -24 q 74 43 126 -24 q -10 -17 17 -17 q -42 2 -26 -17 q -57 39 -57 21 q -48 62 -57 51 q -16 91 -39 72 q 25 131 7 110 q -14 361 -14 236 q 35 619 -14 510 q 163 729 83 729 q 219 709 196 729 q 254 658 243 689 q 269 601 265 628 q 274 549 274 574 q 233 334 274 456 q 129 121 192 213 q 194 76 154 76 q 268 106 226 76 q 329 136 310 136 q 359 123 347 136 q 371 94 371 110 q 316 15 371 54 q 200 -24 261 -24 m 88 390 q 97 233 88 296 q 175 524 175 369 q 149 599 175 599 q 105 538 122 599 q 88 390 88 476 m 325 392 q 383 336 383 392 q 361 292 383 308 q 318 276 339 276 q 264 328 264 276 q 283 372 264 354 q 325 392 303 390 z "},"":{"ha":472,"x_min":-49,"x_max":563,"o":"m 514 111 q 548 98 533 111 q 563 63 563 85 q 519 -7 563 21 q 410 -35 476 -35 q 329 -28 367 -35 q 271 -16 292 -22 q 204 7 250 -10 q 72 -76 165 -76 q -18 -48 13 -76 q -49 21 -49 -19 q -11 107 -49 71 q 88 143 26 143 q 115 142 107 143 q 107 204 114 172 l 49 182 q 18 179 29 175 q -4 222 -4 188 q 22 253 -4 242 l 88 279 q 69 403 69 351 q 135 590 69 521 q 297 660 200 660 q 417 618 371 660 q 458 501 464 576 q 411 450 456 460 q 353 468 371 440 q 347 493 346 479 q 333 534 349 522 q 292 546 317 546 q 214 510 244 546 q 183 406 183 474 q 190 319 183 358 q 319 371 304 365 q 374 376 354 383 q 399 331 399 368 q 367 293 399 303 q 204 239 275 267 q 219 124 218 164 l 219 111 q 403 65 324 65 q 464 88 436 65 q 514 111 492 111 m 72 13 q 114 53 106 13 q 71 56 93 63 q 49 32 49 49 q 72 13 49 13 z "},"":{"ha":238,"x_min":-12,"x_max":314,"o":"m 97 742 q 50 724 75 742 q 19 707 25 707 q -12 742 -12 707 q 20 803 -12 772 q 89 835 53 835 q 138 828 107 835 q 189 821 169 821 q 233 836 206 821 q 271 851 261 851 q 290 841 281 851 q 300 813 300 831 q 268 757 300 782 q 200 732 236 732 q 145 737 174 732 q 97 742 117 742 m 144 -21 q 35 56 69 -21 q 0 317 0 133 q 22 562 0 469 q 71 672 43 654 q 106 683 89 683 q 150 657 135 683 q 165 560 165 631 q 137 362 165 492 q 103 164 108 232 q 121 109 106 135 q 153 83 136 83 q 215 110 178 83 q 269 136 251 136 q 301 124 289 136 q 314 97 314 111 q 288 40 314 67 q 144 -21 226 -21 z "},"":{"ha":667,"x_min":-62,"x_max":667,"o":"m 553 149 q 571 74 553 99 q 610 47 589 49 q 649 36 631 44 q 667 7 667 28 q 590 -49 667 -49 q 440 111 440 -49 q 456 317 440 192 q 472 465 472 443 q 462 501 472 489 q 438 514 451 514 q 356 456 396 514 q 287 315 315 397 q 241 164 258 233 q 218 56 224 94 q 211 17 215 29 q 191 -4 207 6 q 144 -14 175 -14 q 97 35 97 -14 q 101 184 97 58 q 104 371 104 310 q 76 528 104 528 q 38 490 61 528 q -7 451 14 451 q -62 499 -62 451 q -16 590 -62 540 q 106 639 31 639 q 197 563 185 639 q 203 488 203 526 q 201 406 203 449 q 199 347 199 364 q 301 560 235 474 q 451 646 368 646 q 553 609 515 646 q 590 500 590 572 q 572 342 590 458 q 553 149 553 226 m 306 736 q 357 801 325 767 q 410 835 389 835 q 439 823 429 835 q 449 797 449 811 q 440 774 449 785 q 380 721 418 744 q 322 697 342 697 q 307 703 314 697 q 300 721 300 710 q 306 736 300 729 z "},"":{"ha":496,"x_min":15,"x_max":572,"o":"m 413 79 q 438 85 424 79 q 458 97 451 92 l 481 113 l 494 124 q 531 136 511 136 q 558 124 544 136 q 572 94 572 113 q 565 67 572 81 q 497 3 546 31 q 401 -24 447 -24 q 318 4 351 -24 q 285 89 285 32 q 290 161 285 117 q 296 219 296 206 q 268 265 296 265 q 196 213 238 265 q 131 100 154 160 q 118 13 132 38 q 69 -12 104 -12 q 17 68 25 -12 q 15 297 15 97 q 33 345 15 324 q 75 367 50 367 q 97 365 89 367 q 111 359 106 364 q 120 350 117 354 q 125 334 124 346 q 126 314 126 322 q 127 285 126 306 q 128 249 128 264 q 202 335 158 300 q 288 369 246 369 q 370 338 343 369 q 397 264 397 307 q 391 179 397 229 q 385 111 385 129 q 413 79 385 79 m 200 453 q 251 517 219 483 q 304 551 283 551 q 333 540 324 551 q 343 514 343 528 q 335 490 343 501 q 274 438 313 461 q 217 414 236 414 q 201 420 208 414 q 194 438 194 426 q 200 453 194 446 z "},"":{"ha":667,"x_min":-62,"x_max":667,"o":"m 553 149 q 571 74 553 99 q 610 47 589 49 q 649 36 631 44 q 667 7 667 28 q 590 -49 667 -49 q 440 111 440 -49 q 456 317 440 192 q 472 465 472 443 q 462 501 472 489 q 438 514 451 514 q 356 456 396 514 q 287 315 315 397 q 241 164 258 233 q 218 56 224 94 q 211 17 215 29 q 191 -4 207 6 q 144 -14 175 -14 q 97 35 97 -14 q 101 184 97 58 q 104 371 104 310 q 76 528 104 528 q 38 490 61 528 q -7 451 14 451 q -62 499 -62 451 q -16 590 -62 540 q 106 639 31 639 q 197 563 185 639 q 203 488 203 526 q 201 406 203 449 q 199 347 199 364 q 301 560 235 474 q 451 646 368 646 q 553 609 515 646 q 590 500 590 572 q 572 342 590 458 q 553 149 553 226 m 357 -97 q 405 -117 386 -97 q 424 -167 424 -137 q 395 -247 424 -208 q 343 -286 367 -286 q 314 -262 314 -286 q 326 -239 314 -254 q 340 -215 338 -224 q 286 -165 286 -204 q 309 -115 286 -132 q 357 -97 332 -97 z "},"":{"ha":496,"x_min":15,"x_max":572,"o":"m 413 79 q 438 85 424 79 q 458 97 451 92 l 481 113 l 494 124 q 531 136 511 136 q 558 124 544 136 q 572 94 572 113 q 565 67 572 81 q 497 3 546 31 q 401 -24 447 -24 q 318 4 351 -24 q 285 89 285 32 q 290 161 285 117 q 296 219 296 206 q 268 265 296 265 q 196 213 238 265 q 131 100 154 160 q 118 13 132 38 q 69 -12 104 -12 q 17 68 25 -12 q 15 297 15 97 q 33 345 15 324 q 75 367 50 367 q 97 365 89 367 q 111 359 106 364 q 120 350 117 354 q 125 334 124 346 q 126 314 126 322 q 127 285 126 306 q 128 249 128 264 q 202 335 158 300 q 288 369 246 369 q 370 338 343 369 q 397 264 397 307 q 391 179 397 229 q 385 111 385 129 q 413 79 385 79 m 221 -56 q 269 -76 250 -56 q 288 -125 288 -96 q 259 -206 288 -167 q 207 -244 231 -244 q 178 -221 178 -244 q 190 -197 178 -212 q 204 -174 201 -182 q 150 -124 150 -162 q 173 -73 150 -90 q 221 -56 196 -56 z "},"":{"ha":667,"x_min":-62,"x_max":667,"o":"m 553 149 q 571 74 553 99 q 610 47 589 49 q 649 36 631 44 q 667 7 667 28 q 590 -49 667 -49 q 440 111 440 -49 q 456 317 440 192 q 472 465 472 443 q 462 501 472 489 q 438 514 451 514 q 356 456 396 514 q 287 315 315 397 q 241 164 258 233 q 218 56 224 94 q 211 17 215 29 q 191 -4 207 6 q 144 -14 175 -14 q 97 35 97 -14 q 101 184 97 58 q 104 371 104 310 q 76 528 104 528 q 38 490 61 528 q -7 451 14 451 q -62 499 -62 451 q -16 590 -62 540 q 106 639 31 639 q 197 563 185 639 q 203 488 203 526 q 201 406 203 449 q 199 347 199 364 q 301 560 235 474 q 451 646 368 646 q 553 609 515 646 q 590 500 590 572 q 572 342 590 458 q 553 149 553 226 m 244 794 q 243 801 243 797 q 255 826 243 814 q 279 838 267 838 q 336 790 300 838 q 344 801 339 793 l 354 814 q 363 824 357 818 q 374 835 369 831 q 386 842 379 839 q 400 844 393 844 q 433 833 417 844 q 449 810 449 822 q 406 752 449 792 q 339 713 363 713 q 289 741 319 713 q 244 794 258 769 z "},"":{"ha":496,"x_min":15,"x_max":572,"o":"m 413 79 q 438 85 424 79 q 458 97 451 92 l 481 113 l 494 124 q 531 136 511 136 q 558 124 544 136 q 572 94 572 113 q 565 67 572 81 q 497 3 546 31 q 401 -24 447 -24 q 318 4 351 -24 q 285 89 285 32 q 290 161 285 117 q 296 219 296 206 q 268 265 296 265 q 196 213 238 265 q 131 100 154 160 q 118 13 132 38 q 69 -12 104 -12 q 17 68 25 -12 q 15 297 15 97 q 33 345 15 324 q 75 367 50 367 q 97 365 89 367 q 111 359 106 364 q 120 350 117 354 q 125 334 124 346 q 126 314 126 322 q 127 285 126 306 q 128 249 128 264 q 202 335 158 300 q 288 369 246 369 q 370 338 343 369 q 397 264 397 307 q 391 179 397 229 q 385 111 385 129 q 413 79 385 79 m 136 499 q 135 506 135 501 q 147 530 135 518 q 171 542 158 542 q 228 494 192 542 q 236 506 231 497 l 246 518 q 255 528 249 522 q 266 539 261 535 q 278 546 271 543 q 292 549 285 549 q 324 538 308 549 q 340 514 340 526 q 297 456 340 496 q 231 417 254 417 q 181 445 211 417 q 136 499 150 474 z "},"":{"ha":496,"x_min":-69,"x_max":572,"o":"m 413 79 q 438 85 424 79 q 458 97 451 92 l 481 113 l 494 124 q 531 136 511 136 q 558 124 544 136 q 572 94 572 113 q 565 67 572 81 q 497 3 546 31 q 401 -24 447 -24 q 318 4 351 -24 q 285 89 285 32 q 290 161 285 117 q 296 219 296 206 q 268 265 296 265 q 196 213 238 265 q 131 100 154 160 q 118 13 132 38 q 69 -12 104 -12 q 17 68 25 -12 q 15 297 15 97 q 33 345 15 324 q 75 367 50 367 q 97 365 89 367 q 111 359 106 364 q 120 350 117 354 q 125 334 124 346 q 126 314 126 322 q 127 285 126 306 q 128 249 128 264 q 202 335 158 300 q 288 369 246 369 q 370 338 343 369 q 397 264 397 307 q 391 179 397 229 q 385 111 385 129 q 413 79 385 79 m 1 567 q 49 547 31 567 q 68 497 68 526 q 40 417 68 456 q -12 378 11 378 q -42 401 -42 378 q -30 425 -42 410 q -15 449 -18 440 q -69 499 -69 460 q -47 549 -69 532 q 1 567 -24 567 z "},"":{"ha":615,"x_min":0,"x_max":553,"o":"m 553 525 q 543 242 553 436 q 522 -43 533 53 q 453 -189 511 -132 q 336 -246 396 -246 q 279 -183 279 -246 q 332 -124 279 -140 q 395 -81 378 -108 q 421 28 413 -53 q 446 482 446 269 q 438 535 446 521 q 411 549 429 549 q 323 460 383 549 q 213 251 263 372 q 163 54 163 131 q 147 9 163 25 q 108 -7 131 -7 q 76 6 90 -7 q 61 43 61 19 q 57 549 61 464 q 17 563 35 549 q 0 606 0 578 q 40 651 0 640 q 72 660 51 653 q 103 668 92 668 q 138 658 125 668 q 157 620 151 647 q 164 569 163 593 q 165 496 165 544 q 164 367 165 410 q 206 451 183 408 q 265 549 229 493 q 343 638 301 604 q 422 672 385 672 q 517 635 482 672 q 553 525 553 599 z "},"":{"ha":467,"x_min":15,"x_max":397,"o":"m 397 264 q 383 -43 397 85 q 313 -188 372 -131 q 197 -246 254 -246 q 140 -183 140 -246 q 193 -124 140 -140 q 257 -75 238 -108 q 285 40 276 -42 q 296 219 296 151 q 268 265 296 265 q 196 213 238 265 q 131 100 154 160 q 118 13 132 38 q 69 -12 104 -12 q 17 68 25 -12 q 15 297 15 97 q 33 345 15 324 q 75 367 50 367 q 97 365 89 367 q 111 359 106 364 q 120 350 117 354 q 125 334 124 346 q 126 314 126 322 q 127 285 126 306 q 128 249 128 264 q 202 335 158 300 q 288 369 246 369 q 370 338 343 369 q 397 264 397 307 z "},"":{"ha":676,"x_min":42,"x_max":635,"o":"m 482 554 q 635 300 635 497 q 547 54 635 136 q 339 -28 458 -28 q 233 -14 282 -28 q 140 31 185 0 q 68 124 94 63 q 42 271 42 185 q 76 434 42 351 q 185 579 110 517 q 360 642 261 642 q 446 622 410 642 q 482 564 482 603 l 482 554 m 400 525 q 286 497 335 524 q 213 428 238 469 q 176 345 188 386 q 165 264 165 304 q 212 124 165 172 q 325 75 258 75 q 458 131 399 75 q 518 281 518 188 q 435 442 518 376 q 397 504 397 468 q 400 525 397 511 m 269 785 q 354 786 288 786 q 450 785 421 786 q 483 744 482 781 q 450 706 483 708 q 261 703 310 697 q 235 743 233 707 q 269 785 236 779 z "},"":{"ha":404,"x_min":0,"x_max":481,"o":"m 472 297 q 481 271 481 288 q 438 188 481 215 q 349 161 394 161 l 338 161 q 343 128 343 149 q 294 22 343 72 q 161 -28 246 -28 q 47 23 94 -28 q 0 146 0 74 q 15 233 0 185 q 74 325 31 281 q 182 369 118 369 q 240 356 221 369 q 260 324 260 343 q 254 296 260 306 q 302 274 276 293 q 347 254 328 254 q 383 272 365 254 q 449 308 417 308 q 472 297 461 308 m 194 264 q 123 221 146 253 q 100 153 100 189 q 119 98 100 119 q 167 76 138 76 q 227 101 206 76 q 249 156 249 125 q 243 181 249 164 q 190 243 190 200 q 194 264 190 253 m 92 503 q 176 504 110 504 q 272 503 243 504 q 305 463 304 499 q 272 424 306 426 q 83 421 132 415 q 57 461 56 425 q 92 503 58 497 z "},"":{"ha":676,"x_min":42,"x_max":635,"o":"m 482 554 q 635 300 635 497 q 547 54 635 136 q 339 -28 458 -28 q 233 -14 282 -28 q 140 31 185 0 q 68 124 94 63 q 42 271 42 185 q 76 434 42 351 q 185 579 110 517 q 360 642 261 642 q 446 622 410 642 q 482 564 482 603 l 482 554 m 400 525 q 286 497 335 524 q 213 428 238 469 q 176 345 188 386 q 165 264 165 304 q 212 124 165 172 q 325 75 258 75 q 458 131 399 75 q 518 281 518 188 q 435 442 518 376 q 397 504 397 468 q 400 525 397 511 m 453 810 q 474 800 464 810 q 483 776 483 790 q 449 728 483 754 q 371 703 415 703 q 256 761 294 703 q 250 779 250 769 q 261 808 250 796 q 285 821 272 821 q 322 798 293 821 q 374 775 350 775 q 431 797 401 775 q 453 810 449 810 z "},"":{"ha":404,"x_min":0,"x_max":481,"o":"m 472 297 q 481 271 481 288 q 438 188 481 215 q 349 161 394 161 l 338 161 q 343 128 343 149 q 294 22 343 72 q 161 -28 246 -28 q 47 23 94 -28 q 0 146 0 74 q 15 233 0 185 q 74 325 31 281 q 182 369 118 369 q 240 356 221 369 q 260 324 260 343 q 254 296 260 306 q 302 274 276 293 q 347 254 328 254 q 383 272 365 254 q 449 308 417 308 q 472 297 461 308 m 194 264 q 123 221 146 253 q 100 153 100 189 q 119 98 100 119 q 167 76 138 76 q 227 101 206 76 q 249 156 249 125 q 243 181 249 164 q 190 243 190 200 q 194 264 190 253 m 288 524 q 308 514 299 524 q 318 490 318 504 q 284 442 318 468 q 206 417 250 417 q 90 475 129 417 q 85 493 85 483 q 96 522 85 510 q 119 535 107 535 q 156 512 128 535 q 208 489 183 489 q 265 511 236 489 q 288 524 283 524 z "},"":{"ha":676,"x_min":42,"x_max":635,"o":"m 482 554 q 635 300 635 497 q 547 54 635 136 q 339 -28 458 -28 q 233 -14 282 -28 q 140 31 185 0 q 68 124 94 63 q 42 271 42 185 q 76 434 42 351 q 185 579 110 517 q 360 642 261 642 q 446 622 410 642 q 482 564 482 603 l 482 554 m 400 525 q 286 497 335 524 q 213 428 238 469 q 176 345 188 386 q 165 264 165 304 q 212 124 165 172 q 325 75 258 75 q 458 131 399 75 q 518 281 518 188 q 435 442 518 376 q 397 504 397 468 q 400 525 397 511 m 272 719 q 311 800 285 758 q 360 842 338 842 q 385 831 376 842 q 393 807 393 819 q 390 794 393 803 q 340 724 375 760 q 290 688 306 688 q 276 693 283 688 q 269 706 269 699 q 272 719 269 711 m 385 722 q 424 803 397 761 q 472 844 450 844 q 497 833 489 844 q 506 810 506 822 q 503 797 506 806 q 453 726 488 763 q 403 690 418 690 q 389 696 396 690 q 382 708 382 701 q 385 722 382 714 z "},"":{"ha":404,"x_min":0,"x_max":481,"o":"m 472 297 q 481 271 481 288 q 438 188 481 215 q 349 161 394 161 l 338 161 q 343 128 343 149 q 294 22 343 72 q 161 -28 246 -28 q 47 23 94 -28 q 0 146 0 74 q 15 233 0 185 q 74 325 31 281 q 182 369 118 369 q 240 356 221 369 q 260 324 260 343 q 254 296 260 306 q 302 274 276 293 q 347 254 328 254 q 383 272 365 254 q 449 308 417 308 q 472 297 461 308 m 194 264 q 123 221 146 253 q 100 153 100 189 q 119 98 100 119 q 167 76 138 76 q 227 101 206 76 q 249 156 249 125 q 243 181 249 164 q 190 243 190 200 q 194 264 190 253 m 86 435 q 125 515 99 474 q 174 557 151 557 q 199 546 190 557 q 207 522 207 535 q 204 510 207 518 q 154 439 189 475 q 104 403 119 403 q 90 408 97 403 q 83 421 83 414 q 86 435 83 426 m 199 438 q 238 518 211 476 q 286 560 264 560 q 311 549 303 560 q 319 525 319 538 q 317 513 319 521 q 267 442 301 478 q 217 406 232 406 q 203 411 210 406 q 196 424 196 417 q 199 438 196 429 z "},"":{"ha":882,"x_min":0,"x_max":882,"o":"m 638 592 q 599 570 615 589 q 582 525 582 551 l 582 508 q 578 408 582 467 q 610 409 588 408 q 643 410 632 410 q 742 399 708 410 q 775 353 775 388 q 688 293 775 300 q 569 292 669 292 q 565 188 565 238 q 572 103 565 132 q 592 101 578 101 q 665 106 607 101 q 758 110 724 110 q 818 107 779 110 q 840 104 833 106 q 857 97 847 103 q 871 80 867 92 q 875 49 875 68 q 833 0 875 8 q 679 -8 790 -8 q 583 -7 614 -8 q 520 1 553 -6 q 475 24 488 8 q 460 65 463 39 q 283 -11 386 -11 q 78 88 156 -11 q 0 322 0 188 q 32 506 0 425 q 113 633 64 588 q 214 701 163 678 q 311 725 265 725 q 347 713 332 725 q 361 675 361 701 q 336 633 361 644 q 281 607 300 617 q 225 569 263 597 q 167 513 188 542 q 131 432 147 483 q 114 318 114 381 q 162 148 114 201 q 274 94 210 94 q 406 160 351 94 q 461 324 461 225 q 440 430 461 383 q 397 504 418 476 q 375 547 375 532 q 391 585 375 568 q 433 601 407 601 q 499 560 471 601 q 554 672 506 633 q 746 710 603 710 q 851 697 821 710 q 882 647 882 683 q 804 588 882 588 q 726 590 776 588 q 660 593 675 593 q 647 592 654 593 q 638 592 640 592 z "},"":{"ha":621,"x_min":0,"x_max":697,"o":"m 653 136 q 685 124 672 136 q 697 97 697 111 q 634 13 697 53 q 465 -28 571 -28 q 311 33 368 -28 q 168 -28 256 -28 q 49 21 99 -28 q 0 146 0 69 q 49 299 0 233 q 196 364 99 364 q 250 351 229 364 q 271 313 271 338 q 240 271 271 279 q 275 258 263 271 q 418 356 317 356 q 510 321 476 356 q 544 233 544 286 q 510 146 544 185 q 385 107 476 107 q 478 68 408 68 q 615 121 547 68 q 653 136 635 136 m 204 264 q 126 229 153 261 q 100 153 100 197 q 122 97 100 118 q 174 76 143 76 q 260 139 247 76 q 194 229 194 165 q 204 264 194 251 m 443 221 q 435 243 443 233 q 415 253 428 253 q 374 228 386 253 q 361 181 361 204 q 443 221 443 174 z "},"":{"ha":590,"x_min":49,"x_max":576,"o":"m 340 535 q 257 510 290 535 q 208 438 224 485 q 186 343 192 392 q 181 229 181 294 q 185 99 181 156 q 193 15 189 42 q 197 -14 197 -12 q 132 -56 197 -56 q 76 7 76 -56 l 76 206 q 69 383 76 303 q 56 508 63 463 q 49 565 49 553 q 66 601 49 585 q 121 618 83 618 q 157 598 149 618 q 165 538 165 578 q 350 632 239 632 q 504 581 446 632 q 563 431 563 531 q 517 295 563 354 q 385 208 471 236 q 449 129 414 164 q 556 38 483 94 q 576 7 576 21 q 560 -32 576 -15 q 521 -49 544 -49 q 431 -1 496 -49 q 308 113 367 46 q 250 225 250 181 q 267 265 250 246 q 304 285 285 285 q 322 282 314 285 q 417 331 383 289 q 451 424 451 374 q 340 535 451 535 m 281 724 q 332 788 300 754 q 385 822 364 822 q 414 810 404 822 q 424 785 424 799 q 415 761 424 772 q 355 708 393 732 q 297 685 317 685 q 282 691 289 685 q 275 708 275 697 q 281 724 275 717 z "},"":{"ha":413,"x_min":-42,"x_max":489,"o":"m 301 -28 q 219 -3 247 -28 q 190 63 190 21 q 209 141 190 100 q 228 196 228 182 q 216 216 228 211 q 181 224 204 221 q 143 233 158 226 q 51 17 107 76 q 8 0 36 0 q -27 15 -12 0 q -42 53 -42 29 q -6 133 -42 69 q 44 267 31 196 q 10 339 10 289 q 28 400 10 374 q 79 426 46 426 q 130 401 108 426 q 151 335 151 376 q 201 314 151 314 q 239 317 214 314 q 272 319 264 319 q 316 296 296 319 q 336 239 336 272 q 328 197 336 215 q 293 93 293 117 q 317 74 293 74 q 388 105 350 74 q 444 136 425 136 q 476 124 464 136 q 489 97 489 111 q 463 40 489 67 q 301 -28 394 -28 m 142 488 q 193 552 161 518 q 246 586 225 586 q 275 574 265 586 q 285 549 285 563 q 276 525 285 536 q 216 472 254 496 q 158 449 178 449 q 143 455 150 449 q 136 472 136 461 q 142 488 136 481 z "},"":{"ha":590,"x_min":49,"x_max":576,"o":"m 340 535 q 257 510 290 535 q 208 438 224 485 q 186 343 192 392 q 181 229 181 294 q 185 99 181 156 q 193 15 189 42 q 197 -14 197 -12 q 132 -56 197 -56 q 76 7 76 -56 l 76 206 q 69 383 76 303 q 56 508 63 463 q 49 565 49 553 q 66 601 49 585 q 121 618 83 618 q 157 598 149 618 q 165 538 165 578 q 350 632 239 632 q 504 581 446 632 q 563 431 563 531 q 517 295 563 354 q 385 208 471 236 q 449 129 414 164 q 556 38 483 94 q 576 7 576 21 q 560 -32 576 -15 q 521 -49 544 -49 q 431 -1 496 -49 q 308 113 367 46 q 250 225 250 181 q 267 265 250 246 q 304 285 285 285 q 322 282 314 285 q 417 331 383 289 q 451 424 451 374 q 340 535 451 535 m 322 -69 q 370 -90 351 -69 q 389 -139 389 -110 q 360 -219 389 -181 q 308 -258 332 -258 q 279 -235 279 -258 q 291 -211 279 -226 q 306 -187 303 -196 q 251 -137 251 -176 q 274 -87 251 -104 q 322 -69 297 -69 z "},"":{"ha":413,"x_min":-42,"x_max":489,"o":"m 301 -28 q 219 -3 247 -28 q 190 63 190 21 q 209 141 190 100 q 228 196 228 182 q 216 216 228 211 q 181 224 204 221 q 143 233 158 226 q 51 17 107 76 q 8 0 36 0 q -27 15 -12 0 q -42 53 -42 29 q -6 133 -42 69 q 44 267 31 196 q 10 339 10 289 q 28 400 10 374 q 79 426 46 426 q 130 401 108 426 q 151 335 151 376 q 201 314 151 314 q 239 317 214 314 q 272 319 264 319 q 316 296 296 319 q 336 239 336 272 q 328 197 336 215 q 293 93 293 117 q 317 74 293 74 q 388 105 350 74 q 444 136 425 136 q 476 124 464 136 q 489 97 489 111 q 463 40 489 67 q 301 -28 394 -28 m 178 -69 q 226 -90 207 -69 q 244 -139 244 -110 q 216 -219 244 -181 q 164 -258 188 -258 q 135 -235 135 -258 q 147 -211 135 -226 q 161 -187 158 -196 q 107 -137 107 -176 q 130 -87 107 -104 q 178 -69 153 -69 z "},"":{"ha":590,"x_min":49,"x_max":576,"o":"m 340 535 q 257 510 290 535 q 208 438 224 485 q 186 343 192 392 q 181 229 181 294 q 185 99 181 156 q 193 15 189 42 q 197 -14 197 -12 q 132 -56 197 -56 q 76 7 76 -56 l 76 206 q 69 383 76 303 q 56 508 63 463 q 49 565 49 553 q 66 601 49 585 q 121 618 83 618 q 157 598 149 618 q 165 538 165 578 q 350 632 239 632 q 504 581 446 632 q 563 431 563 531 q 517 295 563 354 q 385 208 471 236 q 449 129 414 164 q 556 38 483 94 q 576 7 576 21 q 560 -32 576 -15 q 521 -49 544 -49 q 431 -1 496 -49 q 308 113 367 46 q 250 225 250 181 q 267 265 250 246 q 304 285 285 285 q 322 282 314 285 q 417 331 383 289 q 451 424 451 374 q 340 535 451 535 m 232 790 q 231 797 231 793 q 242 822 231 810 q 267 833 254 833 q 324 786 288 833 q 332 796 326 789 l 342 808 q 351 820 344 814 q 362 831 357 826 q 374 838 367 835 q 388 840 381 840 q 420 829 404 840 q 436 806 436 818 q 393 748 436 788 q 326 708 350 708 q 276 737 307 708 q 232 790 246 765 z "},"":{"ha":413,"x_min":-42,"x_max":489,"o":"m 301 -28 q 219 -3 247 -28 q 190 63 190 21 q 209 141 190 100 q 228 196 228 182 q 216 216 228 211 q 181 224 204 221 q 143 233 158 226 q 51 17 107 76 q 8 0 36 0 q -27 15 -12 0 q -42 53 -42 29 q -6 133 -42 69 q 44 267 31 196 q 10 339 10 289 q 28 400 10 374 q 79 426 46 426 q 130 401 108 426 q 151 335 151 376 q 201 314 151 314 q 239 317 214 314 q 272 319 264 319 q 316 296 296 319 q 336 239 336 272 q 328 197 336 215 q 293 93 293 117 q 317 74 293 74 q 388 105 350 74 q 444 136 425 136 q 476 124 464 136 q 489 97 489 111 q 463 40 489 67 q 301 -28 394 -28 m 92 531 q 90 538 90 533 q 102 562 90 550 q 126 574 114 574 q 183 526 147 574 q 192 538 186 529 l 201 550 q 210 560 204 554 q 222 571 217 567 q 233 578 226 575 q 247 581 240 581 q 280 569 264 581 q 296 546 296 558 q 253 488 296 528 q 186 449 210 449 q 136 477 167 449 q 92 531 106 506 z "},"":{"ha":576,"x_min":38,"x_max":535,"o":"m 142 443 q 182 385 142 403 q 280 360 222 367 q 396 342 338 354 q 494 287 454 329 q 535 169 535 244 q 465 19 535 72 q 288 -35 394 -35 q 94 15 150 -35 q 38 121 38 64 q 54 166 38 147 q 107 185 71 185 q 117 183 113 185 q 124 181 121 182 q 130 176 126 181 q 135 171 133 172 q 140 163 136 169 q 144 154 143 157 q 148 143 144 151 q 153 131 151 135 q 285 61 181 61 q 385 85 343 61 q 426 156 426 108 q 386 214 426 194 q 289 240 346 233 q 175 260 232 247 q 78 315 118 274 q 38 431 38 357 q 123 599 38 539 q 319 660 208 660 q 454 620 400 660 q 508 506 508 581 q 480 433 508 463 q 415 403 451 403 q 378 417 393 403 q 364 450 364 431 q 375 490 364 474 q 398 516 386 507 q 410 528 410 525 q 381 553 410 543 q 315 563 351 563 q 195 528 249 563 q 142 443 142 494 m 246 754 q 297 819 265 785 q 350 853 329 853 q 379 841 369 853 q 389 815 389 829 q 381 792 389 803 q 320 739 358 763 q 263 715 282 715 q 247 722 254 715 q 240 739 240 728 q 246 754 240 747 z "},"":{"ha":450,"x_min":-35,"x_max":547,"o":"m 503 231 q 534 219 521 231 q 547 188 547 207 q 522 142 547 161 q 381 92 465 92 q 347 1 383 36 q 251 -33 311 -33 q 149 -1 192 -33 q 106 76 106 32 q 108 100 106 92 q 18 24 54 24 q -20 39 -6 24 q -35 72 -35 54 q -11 117 -35 97 q 25 150 7 132 l 54 181 q 85 222 65 193 l 111 261 q 142 310 117 269 q 174 360 168 350 q 231 397 197 397 q 291 385 269 397 q 313 354 313 372 q 309 322 313 340 q 306 292 306 303 q 349 185 306 251 q 410 188 388 182 q 461 214 433 193 q 503 231 483 231 m 153 157 q 249 185 188 178 q 221 276 224 214 l 183 210 q 153 157 157 164 m 247 49 q 289 85 289 49 q 282 108 289 99 q 192 83 192 115 q 208 58 192 67 q 247 49 225 49 m 236 471 q 288 535 256 501 q 340 569 319 569 q 369 558 360 569 q 379 532 379 546 q 371 508 379 519 q 310 456 349 479 q 253 432 272 432 q 238 438 244 432 q 231 456 231 444 q 236 471 231 464 z "},"":{"ha":576,"x_min":38,"x_max":535,"o":"m 142 443 q 182 385 142 403 q 280 360 222 367 q 396 342 338 354 q 494 287 454 329 q 535 169 535 244 q 465 19 535 72 q 288 -35 394 -35 q 94 15 150 -35 q 38 121 38 64 q 54 166 38 147 q 107 185 71 185 q 117 183 113 185 q 124 181 121 182 q 130 176 126 181 q 135 171 133 172 q 140 163 136 169 q 144 154 143 157 q 148 143 144 151 q 153 131 151 135 q 285 61 181 61 q 385 85 343 61 q 426 156 426 108 q 386 214 426 194 q 289 240 346 233 q 175 260 232 247 q 78 315 118 274 q 38 431 38 357 q 123 599 38 539 q 319 660 208 660 q 454 620 400 660 q 508 506 508 581 q 480 433 508 463 q 415 403 451 403 q 378 417 393 403 q 364 450 364 431 q 375 490 364 474 q 398 516 386 507 q 410 528 410 525 q 381 553 410 543 q 315 563 351 563 q 195 528 249 563 q 142 443 142 494 m 394 754 q 396 747 396 751 q 384 723 396 735 q 360 711 372 711 q 303 758 339 711 q 294 749 300 756 l 285 736 q 276 724 282 731 q 265 714 269 718 q 253 707 260 710 q 239 704 246 704 q 206 715 222 704 q 190 739 190 726 q 233 797 190 757 q 300 836 276 836 q 350 808 319 836 q 394 754 381 779 z "},"":{"ha":450,"x_min":-35,"x_max":547,"o":"m 503 231 q 534 219 521 231 q 547 188 547 207 q 522 142 547 161 q 381 92 465 92 q 347 1 383 36 q 251 -33 311 -33 q 149 -1 192 -33 q 106 76 106 32 q 108 100 106 92 q 18 24 54 24 q -20 39 -6 24 q -35 72 -35 54 q -11 117 -35 97 q 25 150 7 132 l 54 181 q 85 222 65 193 l 111 261 q 142 310 117 269 q 174 360 168 350 q 231 397 197 397 q 291 385 269 397 q 313 354 313 372 q 309 322 313 340 q 306 292 306 303 q 349 185 306 251 q 410 188 388 182 q 461 214 433 193 q 503 231 483 231 m 153 157 q 249 185 188 178 q 221 276 224 214 l 183 210 q 153 157 157 164 m 247 49 q 289 85 289 49 q 282 108 289 99 q 192 83 192 115 q 208 58 192 67 q 247 49 225 49 m 344 481 q 346 474 346 478 q 334 449 346 461 q 310 438 322 438 q 253 485 289 438 q 244 475 250 482 l 235 461 q 226 451 232 457 q 215 440 219 444 q 203 433 210 436 q 189 431 196 431 q 156 442 172 431 q 140 465 140 453 q 183 523 140 483 q 250 563 226 563 q 300 534 269 563 q 344 481 331 506 z "},"":{"ha":576,"x_min":38,"x_max":535,"o":"m 142 443 q 182 385 142 403 q 280 360 222 367 q 396 342 338 354 q 494 287 454 329 q 535 169 535 244 q 478 31 535 83 q 332 -32 422 -21 q 329 -49 329 -40 q 341 -65 329 -57 q 368 -82 353 -74 q 395 -110 383 -90 q 407 -157 407 -129 q 381 -212 407 -187 q 313 -236 356 -236 q 204 -181 240 -236 q 200 -168 200 -175 q 221 -149 200 -149 q 250 -159 231 -149 q 282 -169 269 -169 q 315 -146 315 -169 q 292 -111 315 -132 q 260 -62 260 -83 q 265 -35 260 -46 q 151 -15 199 -32 q 80 26 103 1 q 47 74 57 51 q 38 121 38 97 q 54 166 38 147 q 107 185 71 185 q 117 183 113 185 q 124 181 121 182 q 130 176 126 181 q 135 171 133 172 q 140 163 136 169 q 144 154 143 157 q 148 143 144 151 q 153 131 151 135 q 285 61 181 61 q 385 85 343 61 q 426 156 426 108 q 386 214 426 194 q 289 240 346 233 q 175 260 232 247 q 78 315 118 274 q 38 431 38 357 q 123 599 38 539 q 319 660 208 660 q 454 620 400 660 q 508 506 508 581 q 480 433 508 463 q 415 403 451 403 q 378 417 393 403 q 364 450 364 431 q 375 490 364 474 q 398 516 386 507 q 410 528 410 525 q 381 553 410 543 q 315 563 351 563 q 195 528 249 563 q 142 443 142 494 z "},"":{"ha":450,"x_min":-35,"x_max":561,"o":"m 553 214 q 561 188 561 204 q 536 142 561 161 q 381 92 479 92 l 381 79 q 290 -29 381 -7 q 264 -53 264 -36 q 276 -70 264 -61 q 304 -87 289 -79 q 332 -116 319 -96 q 344 -164 344 -136 q 319 -219 344 -194 q 250 -243 293 -243 q 142 -187 178 -243 q 138 -175 138 -181 q 158 -156 138 -156 q 188 -166 168 -156 q 219 -176 207 -176 q 253 -153 253 -176 q 229 -118 253 -139 q 196 -68 196 -89 q 215 -31 196 -46 q 136 10 167 -19 q 106 76 106 40 q 108 100 106 92 q 18 24 54 24 q -20 39 -6 24 q -35 72 -35 54 q -11 117 -35 97 q 25 151 7 132 l 54 182 q 85 222 65 193 l 111 261 q 142 310 117 269 q 174 360 168 350 q 231 397 197 397 q 291 385 269 397 q 313 354 313 372 q 309 322 313 340 q 306 292 306 303 q 349 185 306 251 q 419 187 392 182 q 475 214 447 192 q 517 231 492 231 q 553 214 539 231 m 250 49 q 289 85 289 49 q 282 108 289 97 q 192 83 192 115 q 209 58 192 67 q 250 49 226 49 m 153 157 q 249 185 188 178 q 221 276 224 214 l 183 210 q 153 157 157 164 z "},"":{"ha":576,"x_min":38,"x_max":535,"o":"m 142 443 q 182 385 142 403 q 280 360 222 367 q 396 342 338 354 q 494 287 454 329 q 535 169 535 244 q 465 19 535 72 q 288 -35 394 -35 q 94 15 150 -35 q 38 121 38 64 q 54 166 38 147 q 107 185 71 185 q 117 183 113 185 q 124 181 121 182 q 130 176 126 181 q 135 171 133 172 q 140 163 136 169 q 144 154 143 157 q 148 143 144 151 q 153 131 151 135 q 285 61 181 61 q 385 85 343 61 q 426 156 426 108 q 386 214 426 194 q 289 240 346 233 q 175 260 232 247 q 78 315 118 274 q 38 431 38 357 q 123 599 38 539 q 319 660 208 660 q 454 620 400 660 q 508 506 508 581 q 480 433 508 463 q 415 403 451 403 q 378 417 393 403 q 364 450 364 431 q 375 490 364 474 q 398 516 386 507 q 410 528 410 525 q 381 553 410 543 q 315 563 351 563 q 195 528 249 563 q 142 443 142 494 m 199 801 q 197 808 197 804 q 209 833 197 821 q 233 844 221 844 q 290 797 254 844 q 299 808 293 800 l 307 821 q 317 831 311 825 q 328 842 324 838 q 340 849 333 846 q 354 851 347 851 q 387 840 371 851 q 403 817 403 829 q 360 759 403 799 q 293 719 317 719 q 243 748 274 719 q 199 801 213 776 z "},"":{"ha":450,"x_min":-35,"x_max":547,"o":"m 503 231 q 534 219 521 231 q 547 188 547 207 q 522 142 547 161 q 381 92 465 92 q 347 1 383 36 q 251 -33 311 -33 q 149 -1 192 -33 q 106 76 106 32 q 108 100 106 92 q 18 24 54 24 q -20 39 -6 24 q -35 72 -35 54 q -11 117 -35 97 q 25 150 7 132 l 54 181 q 85 222 65 193 l 111 261 q 142 310 117 269 q 174 360 168 350 q 231 397 197 397 q 291 385 269 397 q 313 354 313 372 q 309 322 313 340 q 306 292 306 303 q 349 185 306 251 q 410 188 388 182 q 461 214 433 193 q 503 231 483 231 m 153 157 q 249 185 188 178 q 221 276 224 214 l 183 210 q 153 157 157 164 m 247 49 q 289 85 289 49 q 282 108 289 99 q 192 83 192 115 q 208 58 192 67 q 247 49 225 49 m 146 528 q 144 535 144 531 q 156 559 144 547 q 181 571 168 571 q 238 524 201 571 q 246 533 240 526 l 256 547 q 265 558 258 551 q 276 568 271 564 q 288 575 281 572 q 301 578 294 578 q 334 567 318 578 q 350 543 350 556 q 307 485 350 525 q 240 446 264 446 q 190 474 221 446 q 146 528 160 503 z "},"":{"ha":479,"x_min":-35,"x_max":535,"o":"m 174 79 q 314 443 314 79 l 314 492 q 153 538 196 538 q 73 510 107 538 q 17 482 39 482 q -21 501 -7 482 q -35 549 -35 521 q 7 626 -35 593 q 118 660 49 660 q 340 611 192 660 q 435 660 371 660 q 512 633 489 660 q 535 569 535 606 q 506 502 535 529 q 426 475 478 475 q 418 383 425 463 q 406 250 411 304 q 331 38 388 104 q 165 -28 274 -28 q 46 13 92 -28 q 0 125 0 54 q 45 246 0 190 q 158 301 90 301 q 190 286 176 301 q 204 243 204 271 q 171 208 204 221 q 110 135 110 189 q 174 79 110 79 m 246 -69 q 294 -90 275 -69 q 313 -139 313 -110 q 284 -219 313 -181 q 232 -258 256 -258 q 203 -235 203 -258 q 215 -211 203 -226 q 229 -187 226 -196 q 175 -137 175 -176 q 198 -87 175 -104 q 246 -69 221 -69 z "},"":{"ha":276,"x_min":-47,"x_max":356,"o":"m 192 81 q 257 108 219 81 q 314 136 294 136 q 344 122 332 136 q 356 94 356 108 q 302 17 356 57 q 172 -24 249 -24 q 40 45 72 -24 q 21 260 8 114 q -44 329 -47 282 q 18 375 -40 375 l 32 375 q 161 614 76 614 q 201 581 189 614 q 208 500 213 547 q 176 358 200 432 q 226 360 201 360 q 262 353 249 360 q 274 328 275 346 q 136 249 267 254 q 122 219 126 225 q 192 81 119 81 m 131 -69 q 178 -90 160 -69 q 197 -139 197 -110 q 169 -219 197 -181 q 117 -258 140 -258 q 88 -235 88 -258 q 99 -211 88 -226 q 114 -187 111 -196 q 60 -137 60 -176 q 83 -87 60 -104 q 131 -69 106 -69 z "}}}
